<?xml version="1.0" encoding="UTF-8"?>
<!DOCTYPE svg PUBLIC "-//W3C//DTD SVG 1.1//EN" "http://www.w3.org/Graphics/SVG/1.1/DTD/svg11.dtd">
<!-- Creator: CorelDRAW 2018 (64-Bit) -->
<svg xmlns="http://www.w3.org/2000/svg" xml:space="preserve" width="180px" height="42px" version="1.1" style="shape-rendering:geometricPrecision; text-rendering:geometricPrecision; image-rendering:optimizeQuality; fill-rule:evenodd; clip-rule:evenodd"
viewBox="0 0 11597.06 2920.32"
 xmlns:xlink="http://www.w3.org/1999/xlink">
 <defs>
  <style type="text/css">
   <![CDATA[
    .str0 {stroke:#EBECEC;stroke-width:3.64;stroke-miterlimit:22.9256}
    .fil126 {fill:#5B5B5B;fill-rule:nonzero}
    .fil41 {fill:#FFED00;fill-rule:nonzero}
    .fil19 {fill:#EF7F1A;fill-rule:nonzero}
    .fil65 {fill:#00A0E3;fill-rule:nonzero}
    .fil20 {fill:#009846;fill-rule:nonzero}
    .fil124 {fill:#0960FB;fill-rule:nonzero}
    .fil122 {fill:#0F58EA;fill-rule:nonzero}
    .fil121 {fill:#1752CE;fill-rule:nonzero}
    .fil113 {fill:#1877FD;fill-rule:nonzero}
    .fil123 {fill:#1A6CF9;fill-rule:nonzero}
    .fil115 {fill:#2176FD;fill-rule:nonzero}
    .fil93 {fill:#297CFD;fill-rule:nonzero}
    .fil57 {fill:#2D70DF;fill-rule:nonzero}
    .fil120 {fill:#2E6DEA;fill-rule:nonzero}
    .fil72 {fill:#2E85FD;fill-rule:nonzero}
    .fil77 {fill:#3774DF;fill-rule:nonzero}
    .fil55 {fill:#3A89FD;fill-rule:nonzero}
    .fil117 {fill:#416BC4;fill-rule:nonzero}
    .fil118 {fill:#483979;fill-rule:nonzero}
    .fil66 {fill:#551112;fill-rule:nonzero}
    .fil8 {fill:#5A0810;fill-rule:nonzero}
    .fil114 {fill:#5A49A4;fill-rule:nonzero}
    .fil88 {fill:#5F2F4A;fill-rule:nonzero}
    .fil69 {fill:#6F0301;fill-rule:nonzero}
    .fil46 {fill:#6F2431;fill-rule:nonzero}
    .fil11 {fill:#781B1F;fill-rule:nonzero}
    .fil112 {fill:#806FB5;fill-rule:nonzero}
    .fil68 {fill:#820201;fill-rule:nonzero}
    .fil107 {fill:#8B0710;fill-rule:nonzero}
    .fil16 {fill:#8D0805;fill-rule:nonzero}
    .fil119 {fill:#8D1C1E;fill-rule:nonzero}
    .fil28 {fill:#900F0F;fill-rule:nonzero}
    .fil81 {fill:#9B0101;fill-rule:nonzero}
    .fil64 {fill:#A00602;fill-rule:nonzero}
    .fil110 {fill:#A13446;fill-rule:nonzero}
    .fil106 {fill:#A70301;fill-rule:nonzero}
    .fil111 {fill:#A71D01;fill-rule:nonzero}
    .fil108 {fill:#A73602;fill-rule:nonzero}
    .fil104 {fill:#AD4D01;fill-rule:nonzero}
    .fil17 {fill:#AE0A03;fill-rule:nonzero}
    .fil49 {fill:#AE6AA8;fill-rule:nonzero}
    .fil48 {fill:#B3811F;fill-rule:nonzero}
    .fil109 {fill:#B4462D;fill-rule:nonzero}
    .fil98 {fill:#B46002;fill-rule:nonzero}
    .fil31 {fill:#B83B29;fill-rule:nonzero}
    .fil75 {fill:#B93637;fill-rule:nonzero}
    .fil61 {fill:#BA0D05;fill-rule:nonzero}
    .fil92 {fill:#BB6F02;fill-rule:nonzero}
    .fil86 {fill:#BB851F;fill-rule:nonzero}
    .fil84 {fill:#BC0202;fill-rule:nonzero}
    .fil70 {fill:#BC413D;fill-rule:nonzero}
    .fil2 {fill:#C07B01;fill-rule:nonzero}
    .fil116 {fill:#C2DBF4;fill-rule:nonzero}
    .fil10 {fill:#C45D4E;fill-rule:nonzero}
    .fil59 {fill:#C52C2E;fill-rule:nonzero}
    .fil60 {fill:#C53633;fill-rule:nonzero}
    .fil79 {fill:#C7A63B;fill-rule:nonzero}
    .fil85 {fill:#C88102;fill-rule:nonzero}
    .fil94 {fill:#CAA331;fill-rule:nonzero}
    .fil63 {fill:#CD8701;fill-rule:nonzero}
    .fil103 {fill:#CE9D38;fill-rule:nonzero}
    .fil52 {fill:#CFDCF5;fill-rule:nonzero}
    .fil42 {fill:#D1A342;fill-rule:nonzero}
    .fil102 {fill:#D28D03;fill-rule:nonzero}
    .fil100 {fill:#D2A93D;fill-rule:nonzero}
    .fil18 {fill:#D40A06;fill-rule:nonzero}
    .fil105 {fill:#D51F0E;fill-rule:nonzero}
    .fil74 {fill:#D58F01;fill-rule:nonzero}
    .fil34 {fill:#D5BC5F;fill-rule:nonzero}
    .fil76 {fill:#D63D24;fill-rule:nonzero}
    .fil53 {fill:#D9B568;fill-rule:nonzero}
    .fil22 {fill:#DAB03B;fill-rule:nonzero}
    .fil58 {fill:#DACAB8;fill-rule:nonzero}
    .fil47 {fill:#DB9101;fill-rule:nonzero}
    .fil12 {fill:#DD6B58;fill-rule:nonzero}
    .fil43 {fill:#DDC858;fill-rule:nonzero}
    .fil91 {fill:#DE9203;fill-rule:nonzero}
    .fil82 {fill:#DEC575;fill-rule:nonzero}
    .fil29 {fill:#DF1D0D;fill-rule:nonzero}
    .fil56 {fill:#E29702;fill-rule:nonzero}
    .fil101 {fill:#E39C03;fill-rule:nonzero}
    .fil32 {fill:#E79C01;fill-rule:nonzero}
    .fil125 {fill:#E89C94;fill-rule:nonzero}
    .fil27 {fill:#E8C557;fill-rule:nonzero}
    .fil80 {fill:#E99E04;fill-rule:nonzero}
    .fil73 {fill:#E9BDC0;fill-rule:nonzero}
    .fil21 {fill:#E9C664;fill-rule:nonzero}
    .fil89 {fill:#EADF6C;fill-rule:nonzero}
    .fil54 {fill:#EBA902;fill-rule:nonzero}
    .fil9 {fill:#ED9F9E;fill-rule:nonzero}
    .fil38 {fill:#EDB8B9;fill-rule:nonzero}
    .fil24 {fill:#EEA401;fill-rule:nonzero}
    .fil90 {fill:#EEA603;fill-rule:nonzero}
    .fil36 {fill:#EEBDB8;fill-rule:nonzero}
    .fil51 {fill:#EF150F;fill-rule:nonzero}
    .fil62 {fill:#EFA601;fill-rule:nonzero}
    .fil97 {fill:#EFC3C5;fill-rule:nonzero}
    .fil87 {fill:#EFEDB8;fill-rule:nonzero}
    .fil26 {fill:#F0B7B6;fill-rule:nonzero}
    .fil67 {fill:#F0BABB;fill-rule:nonzero}
    .fil40 {fill:#F0C9CD;fill-rule:nonzero}
    .fil6 {fill:#F4C6CA;fill-rule:nonzero}
    .fil7 {fill:#F5D57E;fill-rule:nonzero}
    .fil71 {fill:#F5E1A4;fill-rule:nonzero}
    .fil45 {fill:#F6BAB8;fill-rule:nonzero}
    .fil44 {fill:#F7EBA6;fill-rule:nonzero}
    .fil33 {fill:#F8E386;fill-rule:nonzero}
    .fil23 {fill:#F9E79F;fill-rule:nonzero}
    .fil37 {fill:#F9EA89;fill-rule:nonzero}
    .fil25 {fill:#F9EAAA;fill-rule:nonzero}
    .fil3 {fill:#FAAF01;fill-rule:nonzero}
    .fil1 {fill:#FAE69F;fill-rule:nonzero}
    .fil50 {fill:#FAF0A9;fill-rule:nonzero}
    .fil13 {fill:#FB492D;fill-rule:nonzero}
    .fil39 {fill:#FBE987;fill-rule:nonzero}
    .fil5 {fill:#FBF1AE;fill-rule:nonzero}
    .fil15 {fill:#FBFCFB;fill-rule:nonzero}
    .fil0 {fill:#FBFDFC;fill-rule:nonzero}
    .fil95 {fill:#FBFDFD;fill-rule:nonzero}
    .fil30 {fill:#FC271E;fill-rule:nonzero}
    .fil4 {fill:#FCF3B1;fill-rule:nonzero}
    .fil78 {fill:#FCF7BC;fill-rule:nonzero}
    .fil35 {fill:#FD2C18;fill-rule:nonzero}
    .fil14 {fill:#FD3527;fill-rule:nonzero}
    .fil99 {fill:#FDF1AC;fill-rule:nonzero}
    .fil83 {fill:#FDF9CE;fill-rule:nonzero}
    .fil96 {fill:#FFF7C0;fill-rule:nonzero}
   ]]>
  </style>
 </defs>
 <g id="Layer_x0020_1">
  <metadata id="CorelCorpID_0Corel-Layer"/>
  <g id="_2366770786320">
   <g>
    <path class="fil0" d="M1530.39 32.47c44.5,-12.46 89.83,-22.99 135.87,-28 263.21,-30.63 532.26,98.51 686.31,311.12 35.57,59.65 76.03,118.53 93.43,186.73 48.35,132.47 43.86,277.4 16.25,413.91 -20.49,104.61 -75.39,198.68 -141.92,280.61 -45.27,57.41 -101.58,107.69 -130.99,176.01 -6.42,-7.83 -12.78,-15.6 -19.13,-23.37 -0.33,10.14 -0.71,20.23 -1.03,30.37 -36.48,0.19 -73.01,-2.5 -108.91,-8.99 -9.18,8.86 -18.43,17.72 -27.74,26.52 -0.32,-3.59 -0.96,-10.79 -1.35,-14.38 10.34,-46.11 33.14,-87.72 56.64,-128.17 46.3,-75.71 117.89,-131.32 165.61,-206 6.42,-8.92 12.52,-18.11 18.62,-27.22 43.15,-56.13 58.62,-129.14 63.05,-198.42 1.03,-8.93 1.93,-17.85 2.83,-26.71 8.99,-48.23 7.83,-97.74 -1.35,-145.83 -0.45,-2.57 -1.28,-7.64 -1.73,-10.21 -5.27,-34.74 -14.9,-68.58 -25.56,-101.97 -4.88,-34.55 -19.52,-66.33 -41.48,-93.3 -24.4,-49.57 -62.67,-89.71 -99.53,-130.03 -24.34,-42.13 -66.46,-71.6 -112.57,-85.47 -2.31,-1.29 -6.93,-3.79 -9.24,-5.01 -22.22,-26.26 -52.72,-42.89 -86.88,-47.07 -5.27,-1.6 -10.47,-3.21 -15.61,-4.75 -104.47,-48.29 -226.86,-51.95 -335.9,-16.31 -109.67,18.43 -198.41,91.89 -277.4,165.54 -33.96,36.15 -73.78,71.02 -87.97,120.4 -8.28,11.62 -16.44,23.31 -24.01,35.45 -74.81,137.86 -82.64,309.7 -34.61,458.22 7.51,32.3 19.65,63.57 39.55,90.35 47.07,92.78 147.24,142.68 194.12,235.4 26.77,42.38 41.54,90.74 49.44,139.99 4.63,44.69 7.06,89.77 15.28,134.07l5.21 0.32c65.49,0.45 130.99,-2.31 196.55,-0.9 14.06,-105.5 -4.88,-212.09 0.71,-318.11 -3.66,-64.14 12.97,-129.77 -4.5,-192.63 -24.14,-34.81 -43.92,-72.44 -68.9,-106.73 -10.46,-15.99 -21.64,-31.46 -33.9,-46.1 -18.69,-27.61 -48.87,-42.57 -74.75,-61.97 -26.84,-19.52 -25.42,-71.21 9.12,-81.16 28.58,-7.07 58.12,1.28 86.43,6.03 8.99,3.73 18.11,7.39 27.23,10.86 25.94,22.02 50.28,45.78 73.46,70.7 7.83,15.85 15.54,31.78 23.5,47.64 9.12,20.36 19.14,40.39 30.82,59.46 16.06,-33.77 29.73,-68.71 45.91,-102.48 39.69,-54.65 95.94,-95.04 161.37,-112.82 26.71,3.21 65.76,-3.15 79.82,26.13 7.25,24.85 8.48,59.65 -16.5,75.19 -25.24,16.7 -55.29,25.75 -77.38,47.07 -26.52,24.02 -52.08,49.89 -70.51,80.78 -12.71,22.22 -25.75,44.37 -42.06,64.28 -1.41,2.12 -4.3,6.35 -5.71,8.48 -11.37,15.41 -10.47,35.05 -11.05,53.29 -1.66,157.07 4.82,314.19 -0.57,471.32 63.63,-0.57 127.27,-0.77 190.9,1.29 2.57,-30.5 6.3,-60.88 10.47,-91.18 11.3,30.95 7.13,63.82 -2.12,94.71 -47.77,21.96 -91.7,54.77 -146.21,57.99 -2.64,2.24 -5.2,4.55 -7.71,6.93 8.29,6.55 16.63,13.16 25.04,19.84 -8.86,15.99 -21.76,29.54 -40.38,33.26 -100.5,-4.49 -201.19,-1.47 -301.81,-3.14 -18.94,1.47 -44.56,-3.73 -55.8,15.92 1.03,22.41 2.25,44.82 2.89,67.23 39.94,8.29 80.85,4.56 121.36,6.42 108.97,15.99 220.06,5.33 329.87,6.56 -3.6,6.03 -7.13,12.19 -10.66,18.3 4.62,8.47 9.24,17.01 13.87,25.55 -18.11,27.1 -28.39,59.01 -51.12,82.96 -118.85,1.61 -237.71,-1.21 -356.57,-0.96 -39.49,0.77 -76.86,15.67 -116.23,17.92 -65.94,-19.84 -102.93,-90.86 -98.88,-156.75 1.02,-8.09 2.44,-16.18 3.33,-24.27 3.92,-62.03 2.96,-124.44 3.22,-186.6 21.38,-102.42 -33.39,-199 -99.73,-272.39 -41.61,-43.99 -83.15,-88.55 -115.39,-140.12 -97.54,-161.3 -121.49,-361.13 -83.15,-544.14 4.17,-16.11 9.31,-31.91 14.7,-47.64 15.16,-48.35 35.12,-94.97 61.26,-138.38 9.95,-18.24 20.23,-36.28 31.02,-54 87.26,-143.91 235.98,-240.67 391.44,-297.44z"/>
   </g>
   <g>
    <path class="fil1" d="M1608.08 156.53c109.04,-35.64 231.43,-31.98 335.9,16.31 -72.37,-12.46 -144.48,-37.63 -218.71,-28.7 -64.15,6.87 -127.84,21.12 -188.46,42.96 -117,52.97 -214.79,143.83 -288.38,248.18l-5.72 7.19c14.19,-49.38 54.01,-84.25 87.97,-120.4 78.99,-73.65 167.73,-147.11 277.4,-165.54z"/>
   </g>
   <g>
    <path class="fil2" d="M1725.27 144.14c74.23,-8.93 146.34,16.24 218.71,28.7 5.14,1.54 10.34,3.15 15.61,4.75 28.19,17.02 56.76,33.59 86.88,47.07 2.31,1.22 6.93,3.72 9.24,5.01 38.79,26.78 76.1,55.61 112.57,85.47 36.86,40.32 75.13,80.46 99.53,130.03 1.28,5.58 3.85,16.69 5.14,22.28l-4.95 -7.32c-88.03,-150.84 -241.89,-264.94 -414.56,-296.41 -76.86,-24.72 -160.21,-17.85 -235.85,7.64 -26.07,9.31 -53.49,12.97 -80.78,15.74 60.62,-21.84 124.31,-36.09 188.46,-42.96z"/>
    <path class="fil2" d="M1834.44 1380.49c52.39,-40.64 148.2,-59.59 182.55,12.4 -12.97,35.7 -12.77,74.03 -19.39,111.02 -1.35,11.37 -9.63,22.28 -22.22,21.13 -49.12,2.82 -98.37,0.06 -147.56,-0.45 -3.21,-48.23 5.07,-96.07 6.62,-144.1z"/>
   </g>
   <g>
    <g>
     <path class="fil3" d="M1617.59 171.36c75.64,-25.49 158.99,-32.36 235.85,-7.64 172.67,31.47 326.53,145.57 414.56,296.41 0.64,28.89 7.45,57.6 5.4,86.49 -21.26,25.37 -63,30.7 -73.08,66.34 -13.42,42.18 -44.76,74.8 -77.25,103.19 -27.03,5.9 -55.22,-6.23 -82.45,-8.42 -26.39,-4.23 -53.94,-8.41 -79.88,0.33 -65.43,17.78 -121.68,58.17 -161.37,112.82 -18.94,20.87 -32.94,45.4 -46.1,70.12 -10.34,-8.99 -20.74,-17.79 -30.63,-27.1 -7.96,-15.86 -15.67,-31.79 -23.5,-47.64 -12.33,-33.01 -36.15,-65.7 -73.46,-70.7 -9.12,-3.47 -18.24,-7.13 -27.23,-10.86 -32.55,-17.78 -74.36,-27.03 -108.84,-9.82 -26.97,26.52 -21.57,79.37 11.11,99.21 25.36,16.37 52.46,29.92 76.93,47.71 12.26,14.64 23.44,30.11 33.9,46.1 7.71,42.19 39.88,72.5 56.64,110.39 12.2,46.16 4.56,94.64 3.4,141.78 -6.1,34.67 -7.96,70.31 -18.23,104.15 -7.78,20.29 -33.85,17.6 -51.5,19.65 -40.71,-0.06 -82.84,15.35 -122.59,1.8 -29.85,-16.7 -46.29,-48.8 -69.86,-72.63 -53.62,-71.59 -131.96,-122.97 -174.92,-202.59 -74.68,-154.82 -86.36,-340.46 -20.16,-500.41 11.75,-28.13 25.75,-55.35 34.1,-84.76 73.59,-104.35 171.38,-195.21 288.38,-248.18 27.29,-2.77 54.71,-6.43 80.78,-15.74zm-92.53 166.57l0 0c-41.93,20.68 -78.21,52.21 -112.76,83.16 -30.05,20.1 -57.54,48.86 -66.53,84.82 -0.89,1.29 -2.76,3.98 -3.66,5.27 -20.61,12.39 -25.74,37.05 -34.73,57.6 -10.79,28.44 -27.55,56.44 -23.76,88.16 -8.54,35.19 -10.02,81.81 21.06,106.85 20.87,11.82 47.39,9.96 70.31,5.78 33.78,-26.77 35.7,-74.1 47.46,-112.56 1.47,-2.57 4.43,-7.77 5.9,-10.41 28.06,-29.41 38.98,-71.4 70.06,-99.21 36.79,-53.74 102.23,-76.86 140.05,-129.13 17.14,-34.67 -24.08,-61.84 -39.49,-89.51 -17.28,-31.66 -53.69,-5.91 -73.91,9.18z"/>
    </g>
   </g>
   <g>
    <path class="fil4" d="M1959.59 177.59c34.16,4.18 64.66,20.81 86.88,47.07 -30.12,-13.48 -58.69,-30.05 -86.88,-47.07z"/>
   </g>
   <g>
    <path class="fil5" d="M2055.71 229.67c46.11,13.87 88.23,43.34 112.57,85.47 -36.47,-29.86 -73.78,-58.69 -112.57,-85.47z"/>
   </g>
   <path class="fil6" d="M2634.02 304.93c100.1,9.43 200.34,-8.03 300.38,-1.22 102.87,13.93 209.98,-11.31 309.96,23.43 19.97,6.94 43.28,12.98 53.68,33.52 -70.25,-37.43 -150.77,-44.5 -228.98,-42.31 -96.58,-9.89 -193.99,-4.76 -290.95,-4.82 -79.69,2.25 -159.63,-3.6 -239.19,3.66 -11.18,0.64 -22.29,1.73 -33.33,3.02 -38.59,-1.35 -77.25,-1.48 -115.78,-4.11 80.21,-16.12 162.98,-2.76 244.21,-11.17z"/>
   <path class="fil6" d="M322.28 507.77c17.98,-2.63 35.96,-5.97 54.2,-6.42 177.1,2.44 354.33,3.47 531.43,1.16 -1.42,2.18 -4.31,6.42 -5.72,8.61 -155.78,4.49 -311.88,1.34 -467.79,1.21 -33.84,2.44 -76.99,-13.42 -102.29,16.64l-0.45 4.3c-3.28,-8.48 -6.42,-16.95 -9.38,-25.5z"/>
   <path class="fil6" d="M3494.21 680.83c1.67,-2.95 5.01,-8.99 6.68,-11.94 9.7,103.18 2.63,207.21 4.94,310.79 -1.54,26.71 5.66,55.41 -5.71,80.65l-3.6 8.99c0.65,-129.52 0.71,-259.04 -2.31,-388.49z"/>
   <path class="fil6" d="M204 680.44c34.94,14.39 56.51,46.37 80.53,73.66 -25.62,-16.25 -46.04,-39.3 -72.24,-54.78 -3.41,117.45 0.77,235.09 -0.97,352.6l-7.57 0.45c-4.76,-123.87 -2.83,-248.12 0.25,-371.93z"/>
   <path class="fil6" d="M2772.72 903.65c29.21,-27.87 53.87,-62.03 91.56,-79.37 -104.86,107.49 -213.38,211.39 -319.91,317.15 -26.39,25.17 -51.11,52.07 -76.67,78.15 -9.69,9.31 -19.71,18.36 -29.41,27.67 7.13,-14.83 13.94,-30.31 26.01,-41.86 54.52,-52.47 105.18,-108.72 161.43,-159.38 51.82,-44.44 98.5,-94.4 146.99,-142.36z"/>
   <path class="fil6" d="M968.78 2077.2c104.86,-103.44 209.66,-206.89 313.62,-311.17 -7.84,14.32 -15.03,29.41 -26.65,41.22 -81.94,80.78 -163.62,161.88 -244.08,244.14 -11.81,12.27 -27.74,18.82 -42.89,25.81z"/>
   <path class="fil6" d="M2682.3 2237.67c-9.69,-10.21 -17.08,-22.15 -24.46,-33.9 7.32,6.03 14.96,11.94 22.34,18.17 8.16,8.28 16.31,16.63 25.69,23.7 1.48,1.15 4.37,3.53 5.84,4.68 31.72,34.36 65.05,67.3 99.15,99.34 0.83,1.28 2.57,3.85 3.47,5.14 4.49,9.18 12.65,15.6 21.76,20.1 1.16,0.77 3.47,2.37 4.69,3.14 0.84,8.73 5.59,14.39 14.26,16.89 45.33,46.75 90.66,93.69 138.57,137.93 31.21,33.33 64.73,64.41 95.48,98.18 -37.63,-17.4 -62.16,-51.63 -91.44,-79.43 -105.24,-104.54 -209.78,-209.78 -315.35,-313.94z"/>
   <path class="fil6" d="M370.77 2663.4c62.03,-42.7 104.6,-106.08 159.88,-156.1 3.6,-0.13 10.79,-0.25 14.39,-0.38 -69.16,59.39 -117.51,143.06 -200.54,185.57l-4.75 -2.44c10.08,-9.18 20.23,-18.3 31.02,-26.65z"/>
   <g>
    <path class="fil7" d="M1525.06 337.93c20.22,-15.09 56.63,-40.84 73.91,-9.18 15.41,27.67 56.63,54.84 39.49,89.51 -37.82,52.27 -103.26,75.39 -140.05,129.13 -31.08,27.81 -42,69.8 -70.06,99.21 28.77,-79.3 89.9,-143.19 159.06,-189.49 17.85,-14.58 40.07,-30.18 44.75,-54.13 -6.16,-30.05 -26.07,-57.66 -50.6,-75.71 -19.39,-1.09 -38.2,5.2 -56.5,10.66z"/>
   </g>
   <g>
    <path class="fil8" d="M2352.57 315.59c12.33,0.12 24.79,0.45 37.24,0.51 38.53,2.63 77.19,2.76 115.78,4.11l-8.73 4.04c-38.27,6.23 -77.64,-0.12 -115.46,9.7 16.76,40.33 38.02,78.53 58.05,117.25 9.7,17.02 21.13,39.43 43.92,39.11 57.86,3.53 116.36,0.71 173.44,13.1 -70.31,0.77 -140.56,-1.16 -210.81,-1.09 -17.4,-68.2 -57.86,-127.08 -93.43,-186.73z"/>
   </g>
   <g>
    <path class="fil9" d="M2538.92 317.19c79.56,-7.26 159.5,-1.41 239.19,-3.66 96.96,0.06 194.37,-5.07 290.95,4.82 -176.72,-1.42 -353.43,1.99 -530.14,-1.16z"/>
   </g>
   <g>
    <path class="fil10" d="M330.57 322.84c218.19,-9.31 437.16,-1.6 655.68,-6.8l-0.97 5.07c-2.89,20.55 -11.04,39.87 -22.79,56.89 3.98,-17.02 6.74,-34.22 9.44,-51.43 -24.6,-1.99 -49.32,-2.44 -73.91,-0.58 -189.11,-0.52 -378.54,4.88 -567.45,-3.15z"/>
   </g>
   <path class="fil11" d="M2505.59 320.21c11.04,-1.29 22.15,-2.38 33.33,-3.02 176.71,3.15 353.42,-0.26 530.14,1.16 78.21,-2.19 158.73,4.88 228.98,42.31 115.07,63.64 186.99,190.65 196.17,320.17 3.02,129.45 2.96,258.97 2.31,388.49l-1.47 -7.84c-15.8,-101.07 -4.56,-204.51 -8.03,-306.55 3.08,-119.69 -32.81,-247.6 -124.12,-329.61 -17.34,-17.2 -37.18,-31.65 -57.73,-44.62 -60.55,-40.78 -134.01,-55.8 -206.06,-56.96 -168.75,-2.05 -337.57,-1.54 -506.26,0.32 -26.39,1.09 -52.78,3.92 -79.17,1.99 -4.24,-0.45 -12.65,-1.35 -16.82,-1.8l8.73 -4.04z"/>
   <path class="fil11" d="M3301.25 696.11c12.46,55.35 1.16,111.99 2.96,167.98 1.6,64.28 5.07,128.56 1.28,192.9l-8.28 -0.45c0,-3.98 0,-12.01 -0.07,-15.99 5.14,-109.03 0.52,-218.2 2.25,-327.23 0.45,-4.3 1.41,-12.91 1.86,-17.21z"/>
   <path class="fil11" d="M2540.84 2085.29c43.79,27.81 80.2,66.66 109.87,108.98 -15.92,-15.74 -32.23,-31.02 -48.67,-46.11 -20.23,-21.13 -40.59,-42.12 -61.2,-62.87z"/>
   <path class="fil11" d="M2767.9 2729.74c20.93,-0.71 41.93,-0.39 62.93,-0.52 -22.48,10.98 -54.71,26.84 -47.07,57.47 10.27,41.61 8.67,84.57 15.8,126.63 -47.84,0.71 -95.75,1.29 -143.52,-1.28 33.58,-28.26 86.05,-6.87 116.1,-39.04 3.4,-67.49 -75.97,-70.51 -110.96,-110.26 36.6,-7.38 72.62,-17.59 106.72,-33z"/>
   <g>
    <path class="fil12" d="M49.19 526.52c52.01,-107.42 158.34,-186.15 276.63,-203.04 -85.41,31.15 -173.51,69.48 -228.92,145.32 -36.99,59.39 -73.33,124.25 -74.56,196.17 -4.75,67.36 -4.68,134.97 1.35,202.27 -4.11,46.62 -0.7,94.13 -13.03,139.79 3.21,-110.45 3.21,-221.15 0.13,-331.66 3.66,-51.56 14.89,-102.48 38.4,-148.85z"/>
   </g>
   <g>
    <path class="fil13" d="M325.82 323.48l4.75 -0.64c188.91,8.03 378.34,2.63 567.45,3.15 -162.72,15.79 -326.33,9.89 -489.56,11.75 -36.35,-4.69 -61.07,20.36 -83.35,44.5 -47.2,26.97 -89.58,61.13 -135.68,89.96 -42.83,25.11 -51.63,78.98 -85.73,112.44 -19.32,17.46 -23.5,43.47 -30.76,67.1 -5.13,16.38 -25.23,23.76 -30.37,39.3 8.22,59.01 3.79,120.66 -18.88,176.2 -6.03,-67.3 -6.1,-134.91 -1.35,-202.27 1.23,-71.92 37.57,-136.78 74.56,-196.17 55.41,-75.84 143.51,-114.17 228.92,-145.32z"/>
   </g>
   <g>
    <path class="fil14" d="M898.02 325.99c24.59,-1.86 49.31,-1.41 73.91,0.58 -2.7,17.21 -5.46,34.41 -9.44,51.43 -20.42,27.87 -39.17,57.79 -45.21,92.53 -1.54,-3.66 -4.56,-10.98 -6.1,-14.64 3.98,-28.77 10.73,-57.02 17.34,-85.27 -57.21,-8.35 -112.05,10.01 -165.99,25.75 -53.23,3.4 -100.75,31.78 -154.88,29.92 -49.51,13.74 -104.16,3.21 -150.13,28.83 -30.95,7.83 -63.83,3.92 -94.91,12.01 36.47,21.06 79.56,19.33 119.44,29.09 -53.17,5.26 -108.46,-7.64 -159.77,11.55 2.96,8.55 6.1,17.02 9.38,25.5 2.05,4.81 4.43,9.5 7.13,14.06 -14.58,-0.77 -29.22,-2.44 -43.8,-0.96 -23.56,31.4 -28.44,71.53 -33.13,109.22 -6.94,5.78 -14.9,10.15 -22.41,15.09 39.17,34.81 69.99,78.15 98.5,121.82 -55.8,-26.46 -73.01,-104.67 -137.28,-113.85 -2.64,34.8 -5.46,69.67 -6.49,104.6 -11.88,-41.1 -12.46,-83.86 -12.65,-126.24 -47.26,38.72 -23.05,106.53 -60.23,150.19 -29.54,37.44 -28.77,95.23 -76.16,118.02 -6.29,44.57 -13.81,95.36 23.37,129.26 -24.91,-0.9 -67.29,0.97 -60.23,-36.08 0.58,-2.83 1.8,-8.48 2.38,-11.37 12.33,-45.66 8.92,-93.17 13.03,-139.79 22.67,-55.54 27.1,-117.19 18.88,-176.2 5.14,-15.54 25.24,-22.92 30.37,-39.3 7.26,-23.63 11.44,-49.64 30.76,-67.1 34.1,-33.46 42.9,-87.33 85.73,-112.44 46.1,-28.83 88.48,-62.99 135.68,-89.96 22.28,-24.14 47,-49.19 83.35,-44.5 163.23,-1.86 326.84,4.04 489.56,-11.75z"/>
   </g>
   <g>
    <path class="fil15" d="M1525.06 337.93c18.3,-5.46 37.11,-11.75 56.5,-10.66 24.53,18.05 44.44,45.66 50.6,75.71 -4.68,23.95 -26.9,39.55 -44.75,54.13 -69.16,46.3 -130.29,110.19 -159.06,189.49 -1.47,2.64 -4.43,7.84 -5.9,10.41 -18.75,25.62 -22.35,58.05 -36.73,85.66 -21.39,29.6 -70.12,17.72 -90.29,-7.58 -14.19,-25.62 -9.05,-56.83 -9.37,-84.95 18.62,-46.3 35.06,-93.63 56.05,-138.96 0.9,-1.29 2.77,-3.98 3.66,-5.27 23.06,-27.61 44.5,-56.44 66.53,-84.82 34.55,-30.95 70.83,-62.48 112.76,-83.16z"/>
   </g>
   <g>
    <path class="fil16" d="M2381.4 333.95c37.82,-9.82 77.19,-3.47 115.46,-9.7 4.17,0.45 12.58,1.35 16.82,1.8 -0.45,30.89 1.54,66.59 27.48,87.78 63.06,47.39 136.52,91.63 218.9,83.42 132.54,3.14 265.46,4.75 397.55,-8.35 1.22,2.76 3.66,8.28 4.94,11.1 -166.89,8.8 -333.97,0.39 -500.92,3.79l-4.82 -0.38c-57.08,-12.39 -115.58,-9.57 -173.44,-13.1 -22.79,0.32 -34.22,-22.09 -43.92,-39.11 -20.03,-38.72 -41.29,-76.92 -58.05,-117.25z"/>
   </g>
   <g>
    <path class="fil17" d="M2513.68 326.05c26.39,1.93 52.78,-0.9 79.17,-1.99 -11.23,6.42 -22.02,13.61 -32.81,20.81 34.36,48.8 84.38,82.7 131.57,117.96 20.42,15.6 43.03,28.96 68.45,34.42 -82.38,8.21 -155.84,-36.03 -218.9,-83.42 -25.94,-21.19 -27.93,-56.89 -27.48,-87.78z"/>
    <path class="fil17" d="M911.18 455.89c1.54,3.66 4.56,10.98 6.1,14.64 -1.28,6.74 -2.63,13.49 -4.04,20.23 -1.35,2.95 -3.98,8.86 -5.33,11.75 -177.1,2.31 -354.33,1.28 -531.43,-1.16 -18.24,0.45 -36.22,3.79 -54.2,6.42 51.31,-19.19 106.6,-6.29 159.77,-11.55 139.72,2.76 279.58,1.79 419.37,-0.71 3.34,-13.23 6.68,-26.39 9.76,-39.62z"/>
   </g>
   <g>
    <path class="fil18" d="M2592.85 324.06c168.69,-1.86 337.51,-2.37 506.26,-0.32 72.05,1.16 145.51,16.18 206.06,56.96 -3.15,10.14 -6.1,20.35 -9.06,30.63 6.94,11.81 18.05,22.73 19.14,37.05 -10.47,7.19 -22.15,12.2 -33.58,17.53 28.89,21.77 13.35,58.56 12.78,88.48 -2.96,25.82 10.85,49.45 12.07,74.75 -11.18,17.01 -25.05,32.49 -31.72,52.14 -12.01,9.05 -23.31,18.94 -33.07,30.37 -33.78,-38.46 3.91,-84.44 -8.93,-127.14 -7.83,-21.32 -24.4,-37.56 -38.46,-54.71 -15.09,3.47 -30.25,7 -45.34,10.47l1.93 -4.69c4.94,-9.63 9.76,-19.39 13.93,-29.41l-2.31 -6.17c-1.28,-2.82 -3.72,-8.34 -4.94,-11.1 -132.09,13.1 -265.01,11.49 -397.55,8.35 -25.42,-5.46 -48.03,-18.82 -68.45,-34.42 -47.19,-35.26 -97.21,-69.16 -131.57,-117.96 10.79,-7.2 21.58,-14.39 32.81,-20.81z"/>
   </g>
   <g>
    <path class="fil19" d="M762.53 396.37c53.94,-15.74 108.78,-34.1 165.99,-25.75 -6.61,28.25 -13.36,56.5 -17.34,85.27 -3.08,13.23 -6.42,26.39 -9.76,39.62 -139.79,2.5 -279.65,3.47 -419.37,0.71 -39.88,-9.76 -82.97,-8.03 -119.44,-29.09 31.08,-8.09 63.96,-4.18 94.91,-12.01 45.97,-25.62 100.62,-15.09 150.13,-28.83 54.13,1.86 101.65,-26.52 154.88,-29.92z"/>
    <path class="fil19" d="M1330.17 1527.16l0.07 -0.58c-0.26,62.16 0.7,124.57 -3.22,186.6 1.16,-62.03 0.58,-124.06 3.15,-186.02z"/>
   </g>
   <g>
    <path class="fil20" d="M3305.17 380.7c20.55,12.97 40.39,27.42 57.73,44.62 11.75,35.58 37.88,63.77 51.5,98.06 1.92,37.5 -13.17,73.84 -28.32,107.49 -18.3,43.54 -73.4,37.82 -111.28,50.41 6.67,-19.65 20.54,-35.13 31.72,-52.14 -1.22,-25.3 -15.03,-48.93 -12.07,-74.75 0.57,-29.92 16.11,-66.71 -12.78,-88.48 11.43,-5.33 23.11,-10.34 33.58,-17.53 -1.09,-14.32 -12.2,-25.24 -19.14,-37.05 2.96,-10.28 5.91,-20.49 9.06,-30.63z"/>
   </g>
   <g>
    <path class="fil21" d="M1345.77 505.91c8.99,-35.96 36.48,-64.72 66.53,-84.82 -22.03,28.38 -43.47,57.21 -66.53,84.82z"/>
   </g>
   <path class="fil20" d="M3362.9 425.32c91.31,82.01 127.2,209.92 124.12,329.61 3.47,102.04 -7.77,205.48 8.03,306.55 -24.53,-0.45 -49,-0.7 -73.4,-1.15 -32.62,-0.58 -65.24,-1.03 -97.8,-2.51 -4.62,-0.19 -13.8,-0.64 -18.36,-0.83 3.79,-64.34 0.32,-128.62 -1.28,-192.9 -1.8,-55.99 9.5,-112.63 -2.96,-167.98 -4.11,-1.48 -12.26,-4.43 -16.37,-5.91 -6.68,5.53 -13.29,11.18 -19.78,16.83 -7.38,5.2 -14.9,10.21 -22.47,15.02l-9.96 3.92c2.25,-3.6 6.81,-10.72 9.06,-14.32 9.76,-11.43 21.06,-21.32 33.07,-30.37 37.88,-12.59 92.98,-6.87 111.28,-50.41 15.15,-33.65 30.24,-69.99 28.32,-107.49 -13.62,-34.29 -39.75,-62.48 -51.5,-98.06z"/>
   <g>
    <path class="fil22" d="M1242.71 442.47l5.72 -7.19c-8.35,29.41 -22.35,56.63 -34.1,84.76 -66.2,159.95 -54.52,345.59 20.16,500.41 42.96,79.62 121.3,131 174.92,202.59 18.36,41.36 46.94,78.09 58.11,122.52 16.76,58.18 22.54,118.6 28.32,178.71 58.43,6.22 117.51,4.17 176.01,-0.45 7.9,-117.58 1.47,-235.98 -0.26,-353.75 1.16,-47.14 8.8,-95.62 -3.4,-141.78 -16.76,-37.89 -48.93,-68.2 -56.64,-110.39 24.98,34.29 44.76,71.92 68.9,106.73 -0.06,170.22 -2.5,340.58 3.79,510.74 -65.56,-1.41 -131.06,1.35 -196.55,0.9 -3.22,-45.27 -7.9,-90.6 -20.49,-134.39 -7.9,-49.25 -22.67,-97.61 -49.44,-139.99 -46.88,-92.72 -147.05,-142.62 -194.12,-235.4 -40.71,-102.1 -67.55,-212.36 -59.07,-322.93 3.85,-77.95 28.57,-152.57 54.13,-225.64 7.57,-12.14 15.73,-23.83 24.01,-35.45z"/>
   </g>
   <g>
    <path class="fil23" d="M2267.81 445.17c21.96,26.97 36.6,58.75 41.48,93.3 -11.49,-24.02 -22.92,-48.03 -36.34,-71.02 -1.29,-5.59 -3.86,-16.7 -5.14,-22.28z"/>
   </g>
   <g>
    <path class="fil24" d="M2268 460.13l4.95 7.32c13.42,22.99 24.85,47 36.34,71.02 10.66,33.39 20.29,67.23 25.56,101.97 -3.6,-4.69 -7.19,-9.25 -10.79,-13.81 4.24,28.32 1.54,57.15 -20.61,77.64 -22.09,22.99 33.52,34.03 14.83,59.2 -14.77,16.82 -40.45,10.08 -59.14,3.98 -1.48,6.87 -2.95,13.81 -4.3,20.74 -34.42,-7.96 -65.18,14.9 -94.14,29.86 -22.92,11.37 -6.93,40.14 -5.2,59.4 -37.31,21.25 -65.05,54.45 -93.49,85.79 -27.74,34.54 -75.84,34.42 -114.43,48.93 -23.31,-14.71 -50.28,-20.49 -77.31,-23.38 2.63,-17.14 4.68,-34.35 5.9,-51.56 18.43,-30.89 43.99,-56.76 70.51,-80.78 33.26,-16.37 72.24,-23.95 99.72,-50.15 22.28,-29.15 12.14,-69.8 -5.78,-98.57 27.23,2.19 55.42,14.32 82.45,8.42 32.49,-28.39 63.83,-61.01 77.25,-103.19 10.08,-35.64 51.82,-40.97 73.08,-66.34 2.05,-28.89 -4.76,-57.6 -5.4,-86.49z"/>
   </g>
   <g>
    <path class="fil25" d="M1184.09 936.14c-48.03,-148.52 -40.2,-320.36 34.61,-458.22 -25.56,73.07 -50.28,147.69 -54.13,225.64 -8.48,110.57 18.36,220.83 59.07,322.93 -19.9,-26.78 -32.04,-58.05 -39.55,-90.35z"/>
   </g>
   <g>
    <path class="fil26" d="M2661.63 503.79c166.95,-3.4 334.03,5.01 500.92,-3.79l2.31 6.17c-128.81,8.54 -257.88,7.83 -386.82,5.65 -38.97,0.51 -78.14,-0.26 -116.41,-8.03z"/>
   </g>
   <g>
    <path class="fil27" d="M1307.38 568.78c8.99,-20.55 14.12,-45.21 34.73,-57.6 -20.99,45.33 -37.43,92.66 -56.05,138.96l-2.44 6.8c-3.79,-31.72 12.97,-59.72 23.76,-88.16z"/>
   </g>
   <g>
    <path class="fil28" d="M331.66 533.27l0.45 -4.3c289.54,295.05 585.24,583.95 877.53,876.37 33.14,33.65 62.8,71.47 102.68,97.74 6.29,7.77 12.46,15.54 17.85,24.08 -2.57,61.96 -1.99,123.99 -3.15,186.02 -0.89,8.09 -2.31,16.18 -3.33,24.27 -14.97,7.65 -29.86,16.06 -41.29,28.58 -103.96,104.28 -208.76,207.73 -313.62,311.17 -119.11,117.84 -236.82,237.27 -359.59,351.31 9.44,-14.89 18.36,-30.24 29.54,-43.98 228.4,-214.28 448.59,-437.61 671.09,-658.06 16.24,-31.78 5.58,-70.18 8.6,-104.66 -2.57,-34.87 8.67,-75.71 -14.19,-105.7 -96.26,-92.15 -182.94,-194.37 -283.18,-282.66 -62.03,-72.95 -134.01,-136.71 -201.95,-204.01 -100.3,-99.34 -202.27,-196.88 -299.94,-298.78 -59.27,-61.97 -120.85,-121.62 -180.37,-183.33 -2.7,-4.56 -5.08,-9.25 -7.13,-14.06z"/>
    <path class="fil28" d="M200.67 678.65c64.27,9.18 81.48,87.39 137.28,113.85 38.34,48.22 98.83,75.45 127.98,131.31 -25.69,-27.68 -52.66,-54.13 -82.32,-77.44 -32.11,-31.79 -67.1,-60.43 -99.08,-92.27 -24.02,-27.29 -45.59,-59.27 -80.53,-73.66 -3.08,123.81 -5.01,248.06 -0.25,371.93 -26.39,1.28 -52.79,-0.13 -79.18,0.06 25.5,-6.49 77.76,6.1 73.4,-33.9 -6.23,-78.28 -3.73,-156.81 -3.79,-235.28 1.03,-34.93 3.85,-69.8 6.49,-104.6z"/>
    <path class="fil28" d="M3132.05 829.35c23.57,-42.96 63.38,-72.94 100.62,-103.38l9.96 -3.92c-35.39,37.25 -72.44,72.88 -110.58,107.3z"/>
    <path class="fil28" d="M2933.38 1020.84c39.04,-49.13 82.96,-97.29 136.06,-131.45 -40,41.36 -82.19,80.53 -122.64,121.37 -4.56,3.27 -9.06,6.61 -13.42,10.08z"/>
    <path class="fil28" d="M3440.85 2680.1c9.83,-26.07 21.58,-51.95 41.68,-71.86 -2.44,9.83 -4.88,19.72 -7.39,29.61 -33.97,89.77 -93.81,169.26 -175.88,220.18 -78.21,50.15 -171.7,59.79 -262.44,55.48 -79.04,-1.6 -158.15,-1.02 -237.26,-0.19 -7.13,-42.06 -5.53,-85.02 -15.8,-126.63 -7.64,-30.63 24.59,-46.49 47.07,-57.47 26.13,-0.58 52.33,-0.19 78.53,-0.19 -20.1,12.65 -43.34,17.85 -66.52,21.19 15.73,43.99 35.19,90.99 15.99,137.42 46.04,16.82 95.35,20.03 144.03,17.4 68.45,-4.05 139.98,8.15 205.41,-18.3 97.35,-39.94 192.32,-105.25 232.58,-206.64z"/>
   </g>
   <g>
    <path class="fil20" d="M3149 540.27c15.09,-3.47 30.25,-7 45.34,-10.47 14.06,17.15 30.63,33.39 38.46,54.71 12.84,42.7 -24.85,88.68 8.93,127.14 -2.25,3.6 -6.81,10.72 -9.06,14.32 -37.24,30.44 -77.05,60.42 -100.62,103.38 -20.42,20.55 -41.22,40.65 -62.61,60.04 -53.1,34.16 -97.02,82.32 -136.06,131.45 -55.87,59.78 -118.28,112.88 -176.2,170.61 -41.1,12.78 -68.9,52.27 -112.31,58.69 -52.14,2.12 -102.42,-16.57 -154.43,-15.86 13.74,-26.46 31.01,-50.99 53.16,-71.08 48.74,-29.54 114.88,-32.82 146.73,-85.86 35.77,-55.03 106.79,-60.16 150.13,-104.98 55.48,-38.21 87.97,-102.1 147.95,-135.04 53.29,-55.42 95.93,-119.57 137.48,-184.36 22.28,-33.52 9.63,-76.22 23.11,-112.69z"/>
   </g>
   <g>
    <path class="fil29" d="M3118.05 571.41c10.73,-12.14 22.16,-23.69 32.88,-35.83l-1.93 4.69c-13.48,36.47 -0.83,79.17 -23.11,112.69 -41.55,64.79 -84.19,128.94 -137.48,184.36 -59.98,32.94 -92.47,96.83 -147.95,135.04 -43.34,44.82 -114.36,49.95 -150.13,104.98 -31.85,53.04 -97.99,56.32 -146.73,85.86 5.85,-8.61 11.37,-17.47 17.15,-26.07 182.49,-169.2 352.59,-351.19 531.49,-524.11 11.56,-11.82 18.3,-27.16 25.81,-41.61z"/>
   </g>
   <g>
    <path class="fil30" d="M294.99 546.37c14.58,-1.48 29.22,0.19 43.8,0.96 59.52,61.71 121.1,121.36 180.37,183.33 -10.85,6.16 -21.7,12.39 -32.49,18.75 29.02,24.08 53.42,53.17 71.53,86.24 17.15,36.47 66.33,44.88 73.27,88.29 -12.33,2.05 -24.66,4.37 -36.92,6.93 16.24,20.04 35.06,37.76 51.11,57.92 -11.62,16.64 -24.66,32.94 -28.83,53.43 27.93,28.45 51.05,61 75.13,92.6 -3.66,0.12 -10.98,0.38 -14.64,0.51 1.47,-9.83 -3.15,-14.9 -13.81,-15.22 -25.17,-20.68 -47.77,-44.11 -69.15,-68.51 -20.94,-30.57 -46.56,-57.73 -77.96,-77.7 -18.56,-14.9 -35.77,-31.47 -50.47,-50.09 -29.15,-55.86 -89.64,-83.09 -127.98,-131.31 -28.51,-43.67 -59.33,-87.01 -98.5,-121.82 7.51,-4.94 15.47,-9.31 22.41,-15.09 4.69,-37.69 9.57,-77.82 33.13,-109.22z"/>
   </g>
   <g>
    <path class="fil31" d="M2864.28 824.28c85.21,-83.67 167.28,-170.48 253.77,-252.87 -7.51,14.45 -14.25,29.79 -25.81,41.61 -178.9,172.92 -349,354.91 -531.49,524.11 -4.05,1.09 -12.27,3.21 -16.38,4.3 106.53,-105.76 215.05,-209.66 319.91,-317.15z"/>
   </g>
   <g>
    <path class="fil32" d="M2324.06 626.63c3.6,4.56 7.19,9.12 10.79,13.81 0.45,2.57 1.28,7.64 1.73,10.21 -0.26,48.61 -3.79,97.28 1.35,145.83 -0.9,8.86 -1.8,17.78 -2.83,26.71 -15.98,67.74 -32.36,135.42 -63.05,198.42 -6.1,9.11 -12.2,18.3 -18.62,27.22 -26.91,17.6 -55.03,45.6 -89.78,30.57 2.38,11.11 5.14,22.15 6.3,33.52 -54.97,22.79 -110.64,46.81 -169.52,57.92 -21.13,6.16 -36.54,-11.69 -52.34,-22.09 -26.26,-21.06 -59.39,-29.28 -91.12,-37.89 -14.57,-34.67 -22.41,-71.72 -22.86,-109.35 16.31,-19.91 29.35,-42.06 42.06,-64.28 -1.22,17.21 -3.27,34.42 -5.9,51.56 27.03,2.89 54,8.67 77.31,23.38 38.59,-14.51 86.69,-14.39 114.43,-48.93 28.44,-31.34 56.18,-64.54 93.49,-85.79 -1.73,-19.26 -17.72,-48.03 5.2,-59.4 28.96,-14.96 59.72,-37.82 94.14,-29.86 1.35,-6.93 2.82,-13.87 4.3,-20.74 18.69,6.1 44.37,12.84 59.14,-3.98 18.69,-25.17 -36.92,-36.21 -14.83,-59.2 22.15,-20.49 24.85,-49.32 20.61,-77.64z"/>
   </g>
   <g>
    <path class="fil33" d="M1283.62 656.94l2.44 -6.8c0.32,28.12 -4.82,59.33 9.37,84.95 20.17,25.3 68.9,37.18 90.29,7.58 14.38,-27.61 17.98,-60.04 36.73,-85.66 -11.76,38.46 -13.68,85.79 -47.46,112.56 -22.92,4.18 -49.44,6.04 -70.31,-5.78 -31.08,-25.04 -29.6,-71.66 -21.06,-106.85z"/>
   </g>
   <g>
    <path class="fil34" d="M2336.58 650.65c9.18,48.09 10.34,97.6 1.35,145.83 -5.14,-48.55 -1.61,-97.22 -1.35,-145.83z"/>
   </g>
   <g>
    <path class="fil35" d="M121.3 807.2c37.18,-43.66 12.97,-111.47 60.23,-150.19 0.19,42.38 0.77,85.14 12.65,126.24 0.06,78.47 -2.44,157 3.79,235.28 4.36,40 -47.9,27.41 -73.4,33.9 -18.68,0.9 -37.37,1.99 -56.06,2.05 -37.18,-33.9 -29.66,-84.69 -23.37,-129.26 47.39,-22.79 46.62,-80.58 76.16,-118.02z"/>
   </g>
   <g>
    <path class="fil36" d="M3.4 889.78c3.28,-71.47 -7.38,-143.77 7.39,-214.41 3.08,110.51 3.08,221.21 -0.13,331.66 -0.58,2.89 -1.8,8.54 -2.38,11.37 -2.18,9.11 -4.69,18.17 -6.93,27.35 -3.98,-52.01 3.53,-103.96 2.05,-155.97z"/>
   </g>
   <g>
    <path class="fil37" d="M1960.74 708.06c25.94,-8.74 53.49,-4.56 79.88,-0.33 17.92,28.77 28.06,69.42 5.78,98.57 -27.48,26.2 -66.46,33.78 -99.72,50.15 22.09,-21.32 52.14,-30.37 77.38,-47.07 24.98,-15.54 23.75,-50.34 16.5,-75.19 -14.06,-29.28 -53.11,-22.92 -79.82,-26.13z"/>
   </g>
   <g>
    <path class="fil38" d="M3242.63 722.05c7.57,-4.81 15.09,-9.82 22.47,-15.02 -69.16,89.19 -162.01,156.04 -238.04,239.06 -24.14,24.53 -46.62,52.79 -80.26,64.67 40.45,-40.84 82.64,-80.01 122.64,-121.37 21.39,-19.39 42.19,-39.49 62.61,-60.04 38.14,-34.42 75.19,-70.05 110.58,-107.3z"/>
   </g>
   <g>
    <path class="fil39" d="M1489.61 724.88c34.48,-17.21 76.29,-7.96 108.84,9.82 -28.31,-4.75 -57.85,-13.1 -86.43,-6.03 -34.54,9.95 -35.96,61.64 -9.12,81.16 25.88,19.4 56.06,34.36 74.75,61.97 -24.47,-17.79 -51.57,-31.34 -76.93,-47.71 -32.68,-19.84 -38.08,-72.69 -11.11,-99.21z"/>
   </g>
   <g>
    <path class="fil40" d="M3290.72 883.29c1.16,-56.7 -6.81,-114.49 8.67,-169.97 -1.73,109.03 2.89,218.2 -2.25,327.23 -13.55,-51.56 -5.33,-104.8 -6.42,-157.26z"/>
   </g>
   <g>
    <path class="fil41" d="M486.67 749.41c10.79,-6.36 21.64,-12.59 32.49,-18.75 97.67,101.9 199.64,199.44 299.94,298.78 -13.74,2.7 -27.42,5.33 -41.1,7.96 4.11,22.74 19.91,39.24 37.76,52.66 -3.47,7 -7,14 -10.4,21.06 20.42,22.28 40.71,44.76 61.32,66.91 -18.55,-4.43 -37.24,-8.8 -54.51,-17.08 -1.03,28.06 -5.4,55.93 -13.55,82.9 -34.81,-37.12 -73.85,-70.06 -106.66,-109.03 -24.08,-31.6 -47.2,-64.15 -75.13,-92.6 4.17,-20.49 17.21,-36.79 28.83,-53.43 -16.05,-20.16 -34.87,-37.88 -51.11,-57.92 12.26,-2.56 24.59,-4.88 36.92,-6.93 -6.94,-43.41 -56.12,-51.82 -73.27,-88.29 -18.11,-33.07 -42.51,-62.16 -71.53,-86.24z"/>
   </g>
   <g>
    <path class="fil42" d="M1625.68 745.56c37.31,5 61.13,37.69 73.46,70.7 -23.18,-24.92 -47.52,-48.68 -73.46,-70.7z"/>
   </g>
   <g>
    <path class="fil43" d="M1753.27 891c13.16,-24.72 27.16,-49.25 46.1,-70.12 -16.18,33.77 -29.85,68.71 -45.91,102.48 -11.68,-19.07 -21.7,-39.1 -30.82,-59.46 9.89,9.31 20.29,18.11 30.63,27.1z"/>
   </g>
   <g>
    <path class="fil44" d="M2272.05 1021.61c30.69,-63 47.07,-130.68 63.05,-198.42 -4.43,69.28 -19.9,142.29 -63.05,198.42z"/>
   </g>
   <g>
    <path class="fil45" d="M383.61 846.37c29.66,23.31 56.63,49.76 82.32,77.44 14.7,18.62 31.91,35.19 50.47,50.09 26.65,25.23 52.27,51.5 77.96,77.7 21.38,24.4 43.98,47.83 69.15,68.51 1.54,7.77 6.17,12.84 13.81,15.22 51.56,54.13 106.72,104.79 158.09,159.25 -22.86,-11.3 -42.77,-27.42 -59.4,-46.69 -111.6,-110.89 -222.82,-222.3 -333.78,-333.84 -22.6,-19.71 -45.59,-40 -58.62,-67.68z"/>
   </g>
   <g>
    <path class="fil46" d="M516.4 973.9c31.4,19.97 57.02,47.13 77.96,77.7 -25.69,-26.2 -51.31,-52.47 -77.96,-77.7z"/>
    <path class="fil46" d="M2677.87 2728.77c29.99,-0.25 59.98,0.71 90.03,0.97 -34.1,15.41 -70.12,25.62 -106.72,33 34.99,39.75 114.36,42.77 110.96,110.26 -30.05,32.17 -82.52,10.78 -116.1,39.04l-6.1 0.13 -6.68 0.06c21.77,-23.82 53.17,-32.62 83.29,-40.45 -41.55,-31.53 -87.72,-57.54 -122.33,-97.29 20.23,-21.38 46.23,-35.7 73.65,-45.72z"/>
   </g>
   <g>
    <path class="fil47" d="M1828.4 1009.99c1.41,-2.13 4.3,-6.36 5.71,-8.48 0.45,37.63 8.29,74.68 22.86,109.35 31.73,8.61 64.86,16.83 91.12,37.89 15.8,10.4 31.21,28.25 52.34,22.09 58.88,-11.11 114.55,-35.13 169.52,-57.92 -1.16,-11.37 -3.92,-22.41 -6.3,-33.52 34.75,15.03 62.87,-12.97 89.78,-30.57 -47.72,74.68 -119.31,130.29 -165.61,206 -21.45,16.95 -37.44,39.68 -45.66,65.82 -8.47,-16.19 -17.27,-32.11 -26.52,-47.84 -58.24,21.77 -109.16,-37.44 -167.85,-12.91 -6.36,-14.64 -12.91,-29.22 -18.23,-44.31 -1.8,-68.51 -0.33,-137.09 -1.16,-205.6z"/>
   </g>
   <g>
    <path class="fil48" d="M1817.35 1063.28c0.58,-18.24 -0.32,-37.88 11.05,-53.29 0.83,68.51 -0.64,137.09 1.16,205.6 -2.32,55.04 1.09,110 4.88,164.9 -1.55,48.03 -9.83,95.87 -6.62,144.1 49.19,0.51 98.44,3.27 147.56,0.45 12.59,1.15 20.87,-9.76 22.22,-21.13 6.62,-36.99 6.42,-75.32 19.39,-111.02 8.22,-24.15 16.51,-48.29 25.17,-72.24 8.22,-26.14 24.21,-48.87 45.66,-65.82 -23.5,40.45 -46.3,82.06 -56.64,128.17 -5.65,20.29 -10.78,40.77 -13.03,61.71 -4.17,30.3 -7.9,60.68 -10.47,91.18 -63.63,-2.06 -127.27,-1.86 -190.9,-1.29 5.39,-157.13 -1.09,-314.25 0.57,-471.32z"/>
   </g>
   <g>
    <path class="fil49" d="M1.35 1045.75c2.24,-9.18 4.75,-18.24 6.93,-27.35 -7.06,37.05 35.32,35.18 60.23,36.08 18.69,-0.06 37.38,-1.15 56.06,-2.05 26.39,-0.19 52.79,1.22 79.18,-0.06l7.57 -0.45 0 2.56c-1.92,4.31 -5.84,12.91 -7.77,17.21l-6.22 -4.88c-64.67,-9.05 -130.93,4.11 -196.43,-0.45 -0.19,-3.34 -0.71,-9.88 -0.9,-13.16 0.32,-1.86 1.03,-5.59 1.35,-7.45z"/>
   </g>
   <g>
    <path class="fil50" d="M1680.45 1024.63c17.47,62.86 0.84,128.49 4.5,192.63 -5.59,106.02 13.35,212.61 -0.71,318.11 -6.29,-170.16 -3.85,-340.52 -3.79,-510.74z"/>
   </g>
   <g>
    <path class="fil51" d="M778 1037.4c13.68,-2.63 27.36,-5.26 41.1,-7.96 67.94,67.3 139.92,131.06 201.95,204.01 22.8,40.39 59.78,69.47 86.62,106.59 -7.7,16.76 -33.19,6.36 -48.61,8.35 19.2,17.14 36.15,47.51 66.27,39.74 -2.63,-13.03 -5.14,-26.06 -7.45,-39.1 11.63,10.85 28.06,22.15 25.56,40.45 -3.72,27.94 -31.59,42.51 -50.54,59.85 1.29,21.96 -4.04,43.66 -27.35,50.28 6.04,-10.28 12.2,-20.36 18.49,-30.44 -12.13,-6.23 -24.33,-12.26 -36.6,-18.11 0.52,8.48 1.09,17.09 1.73,25.69 -9.05,-3.53 -18.04,-7 -26.84,-10.92 -22.66,-21.57 -44.94,-43.6 -70.95,-61.13 -25.62,-24.01 -51.69,-47.84 -74.04,-75.06 -15.28,-37.57 -53.1,-56.51 -78.72,-85.79 8.15,-26.97 12.52,-54.84 13.55,-82.9 17.27,8.28 35.96,12.65 54.51,17.08 -20.61,-22.15 -40.9,-44.63 -61.32,-66.91 3.4,-7.06 6.93,-14.06 10.4,-21.06 -17.85,-13.42 -33.65,-29.92 -37.76,-52.66z"/>
   </g>
   <g>
    <path class="fil52" d="M211.32 1054.48c2.89,22.03 5.91,44.12 5.91,66.47 -1.73,374.55 -1.73,749.17 -2.05,1123.72 -2.06,77.57 -1.35,155.27 5.58,232.58 1.99,21.58 0.9,43.54 -5.97,64.21l-5.33 4.11c-8.99,-51.69 -2.89,-104.54 -8.41,-156.55 3.34,-439.09 -5.84,-878.43 2.5,-1317.33 1.93,-4.3 5.85,-12.9 7.77,-17.21z"/>
   </g>
   <g>
    <path class="fil53" d="M3297.21 1056.54l8.28 0.45c4.56,0.19 13.74,0.64 18.36,0.83 -5,3.99 -9.95,8.03 -14.83,12.08 2.25,223.84 -4.17,447.95 3.34,671.66 -3.66,34.42 -4.24,69.03 -3.79,103.58 0.07,3.02 0.13,8.99 0.13,11.94 -4.56,110.32 -8.35,221.09 -2.31,331.41 0.06,2.37 0.13,7.12 0.19,9.5 -3.4,55.16 -4.62,110.45 -2.76,165.73 -0.26,21.77 -1.48,43.6 -0.13,65.44 1.35,36.4 3.86,73.2 -2.25,109.41l-2.56 5.59c2.11,-495.79 0.32,-991.83 -1.67,-1487.62z"/>
   </g>
   <g>
    <path class="fil54" d="M3323.85 1057.82c32.56,1.48 65.18,1.93 97.8,2.51 15.54,23.89 31.72,54.13 12.72,81.16 -31.92,99.6 -59.53,202.27 -66.27,307.2 -2.06,19.46 -8.16,38.21 -12.4,57.28 -7.89,31.27 8.87,63.5 -2.18,94.58 -14.45,47.01 -7.51,101.14 -41.16,141.01 -7.51,-223.71 -1.09,-447.82 -3.34,-671.66 4.88,-4.05 9.83,-8.09 14.83,-12.08z"/>
   </g>
   <g>
    <path class="fil55" d="M0.9 1066.36c65.5,4.56 131.76,-8.6 196.43,0.45 -3.73,143.71 0.12,287.55 -1.54,431.32 -5.53,0 -11.05,0.07 -16.57,0.19 -16.83,26.72 -26.78,62.42 -54.01,79.89 -44.24,-3.54 -100.87,10.59 -102.8,64.72 -3.4,-2.25 -10.21,-6.74 -13.61,-8.99 -3.79,-189.17 6.48,-378.79 -7.9,-567.58z"/>
   </g>
   <g>
    <path class="fil56" d="M3421.65 1060.33c24.4,0.45 48.87,0.7 73.4,1.15 -1.29,277.47 1.54,555 -1.42,832.46 -7.83,-38.08 -7.45,-77.12 -11.88,-115.58 -5.26,-82.58 5.27,-165.48 -5.13,-247.87 -18.18,10.28 -39.11,21.2 -45.14,42.84 -30.25,99.01 -39.17,210.29 -106.28,293.26 -5.58,-7.2 -11.17,-14.32 -16.63,-21.45 -0.45,-34.55 0.13,-69.16 3.79,-103.58 33.65,-39.87 26.71,-94 41.16,-141.01 11.05,-31.08 -5.71,-63.31 2.18,-94.58 4.24,-19.07 10.34,-37.82 12.4,-57.28 6.74,-104.93 34.35,-207.6 66.27,-307.2 19,-27.03 2.82,-57.27 -12.72,-81.16z"/>
   </g>
   <g>
    <path class="fil57" d="M3495.05 1061.48l1.47 7.84c-1.09,256.91 0.2,513.89 -0.12,770.87 -3.54,233.48 4.55,467.22 -3.34,700.63 2.56,-48.86 1.47,-97.73 2.31,-146.6 0,-33.07 -0.32,-66.07 -0.52,-99.14 -0.38,-94.91 1.42,-189.81 -0.7,-284.72 0.96,-33.52 0.64,-67.04 -0.07,-100.56 -0.12,-3.98 -0.32,-11.88 -0.45,-15.86 2.96,-277.46 0.13,-554.99 1.42,-832.46z"/>
    <path class="fil57" d="M197.33 1066.81l6.22 4.88c-8.34,438.9 0.84,878.24 -2.5,1317.33 -14.51,-148.59 1.54,-299.1 -7.26,-448.33 5.46,-147.44 -1.09,-295.06 2,-442.56 1.66,-143.77 -2.19,-287.61 1.54,-431.32z"/>
    <path class="fil57" d="M123.35 2791.32c91.64,48.41 183.14,122.77 293.01,110.57 231.03,-4.81 462.52,5.14 693.3,-6.23 132.28,-0.38 264.82,10.21 397.03,0.26 170.42,14.13 342.06,-3.98 512.29,13.61 52.91,2.83 105.89,1.54 158.8,2.06 128.88,3.79 257.82,-1.29 386.69,0.83 11.75,0.52 23.5,1.41 35.32,2.06 -30.44,1.73 -60.87,3.66 -91.31,3.4 -687.14,0.9 -1374.22,-4.05 -2061.37,-1.67 -119.3,7.71 -237.2,-45.08 -323.76,-124.89z"/>
   </g>
   <g>
    <path class="fil58" d="M3496.52 1069.32l3.6 -8.99c14,40.13 7.77,83.22 9.57,124.83 -0.45,406.92 0.9,814.09 -1.54,1220.81 -16.06,76.03 17.21,166.06 -33.01,231.88 2.51,-9.89 4.95,-19.78 7.39,-29.61 5.45,-22.15 9.05,-44.75 10.53,-67.42 7.89,-233.41 -0.2,-467.15 3.34,-700.63 0.32,-256.98 -0.97,-513.96 0.12,-770.87z"/>
   </g>
   <g>
    <path class="fil59" d="M663.51 1120.11c10.66,0.32 15.28,5.39 13.81,15.22 -7.64,-2.38 -12.27,-7.45 -13.81,-15.22z"/>
   </g>
   <g>
    <path class="fil60" d="M677.32 1135.33c3.66,-0.13 10.98,-0.39 14.64,-0.51 32.81,38.97 71.85,71.91 106.66,109.03 25.62,29.28 63.44,48.22 78.72,85.79 -13.55,-12.2 -27.61,-23.76 -41.93,-35.06 -51.37,-54.46 -106.53,-105.12 -158.09,-159.25z"/>
   </g>
   <g>
    <path class="fil61" d="M2467.7 1219.58c25.56,-26.08 50.28,-52.98 76.67,-78.15 4.11,-1.09 12.33,-3.21 16.38,-4.3 -5.78,8.6 -11.3,17.46 -17.15,26.07 -22.15,20.09 -39.42,44.62 -53.16,71.08 52.01,-0.71 102.29,17.98 154.43,15.86 43.41,-6.42 71.21,-45.91 112.31,-58.69 -29.41,30.89 -59.27,61.32 -90.87,90.03 -53.94,27.74 -90.73,78.66 -141.65,111.15 -0.13,-11.3 -0.19,-22.47 -0.19,-33.71 -36.03,-4.75 -76.41,-17.6 -93.5,-52.59 7,-30.95 32.17,-54.65 36.73,-86.75z"/>
   </g>
   <g>
    <path class="fil62" d="M1653.36 1274.22c10.27,-33.84 12.13,-69.48 18.23,-104.15 1.73,117.77 8.16,236.17 0.26,353.75 -58.5,4.62 -117.58,6.67 -176.01,0.45 -5.78,-60.11 -11.56,-120.53 -28.32,-178.71 -11.17,-44.43 -39.75,-81.16 -58.11,-122.52 23.57,23.83 40.01,55.93 69.86,72.63 39.75,13.55 81.88,-1.86 122.59,-1.8 17.65,-2.05 43.72,0.64 51.5,-19.65z"/>
   </g>
   <g>
    <path class="fil63" d="M1829.56 1215.59c5.32,15.09 11.87,29.67 18.23,44.31 58.69,-24.53 109.61,34.68 167.85,12.91 9.25,15.73 18.05,31.65 26.52,47.84 -8.66,23.95 -16.95,48.09 -25.17,72.24 -34.35,-71.99 -130.16,-53.04 -182.55,-12.4 -3.79,-54.9 -7.2,-109.86 -4.88,-164.9z"/>
   </g>
   <g>
    <path class="fil64" d="M2438.29 1247.25c9.7,-9.31 19.72,-18.36 29.41,-27.67 -4.56,32.1 -29.73,55.8 -36.73,86.75 17.09,34.99 57.47,47.84 93.5,52.59 0,11.24 0.06,22.41 0.19,33.71 50.92,-32.49 87.71,-83.41 141.65,-111.15 -6.16,5.91 -12,12.07 -18.1,17.98 -9.19,7.51 -18.11,15.34 -26.14,24.01 -63.63,62.16 -127.65,123.93 -192.64,184.68 -20.22,4.69 -36.85,17.46 -52.33,30.56 1.48,-22.34 5.78,-46.87 -8.09,-66.52 -22.73,-33.84 -22.86,-75.58 -24.72,-114.68 18.55,-17.73 38.07,-36.03 46.68,-61.01 15.99,-16.18 32.11,-32.3 47.32,-49.25z"/>
   </g>
   <g>
    <path class="fil65" d="M1021.05 1233.45c100.24,88.29 186.92,190.51 283.18,282.66 22.86,29.99 11.62,70.83 14.19,105.7 -3.02,34.48 7.64,72.88 -8.6,104.66 -222.5,220.45 -442.69,443.78 -671.09,658.06 -46.69,32.04 -83.61,75.13 -126.76,111.21 -7.84,-37.75 -50.47,-57.08 -51.76,-96.76 -3.79,-26.85 15.41,-48.1 29.8,-68.26 -6.04,-2.96 -12.07,-5.85 -18.05,-8.67 62.68,-52.85 111.09,-120.66 173.51,-174.15 60.04,-48.8 105.12,-113.65 168.49,-158.54 89.2,-90.6 186.74,-173.5 270.02,-270.21 28.57,-31.91 62.8,-59.14 84.44,-96.83 -1.41,-2.25 -4.24,-6.81 -5.65,-9.12 -8.03,-19.39 -25.11,-30.76 -44.12,-37.63 -14.38,-13.1 -27.87,-27.22 -41.03,-41.48 -15.28,-25.17 -33.58,-48.42 -55.29,-68.26 8.8,3.92 17.79,7.39 26.84,10.92 -0.64,-8.6 -1.21,-17.21 -1.73,-25.69 12.27,5.85 24.47,11.88 36.6,18.11 -6.29,10.08 -12.45,20.16 -18.49,30.44 23.31,-6.62 28.64,-28.32 27.35,-50.28 18.95,-17.34 46.82,-31.91 50.54,-59.85 2.5,-18.3 -13.93,-29.6 -25.56,-40.45 2.31,13.04 4.82,26.07 7.45,39.1 -30.12,7.77 -47.07,-22.6 -66.27,-39.74 15.42,-1.99 40.91,8.41 48.61,-8.35 -26.84,-37.12 -63.82,-66.2 -86.62,-106.59z"/>
   </g>
   <g>
    <path class="fil66" d="M2166.29 1483.17c86.69,-45.85 152.06,-122.2 224.68,-186.67 -8.61,24.98 -28.13,43.28 -46.68,61.01 -9.19,8.86 -18.3,17.78 -27.36,26.77 -38.4,30.12 -66.72,72.5 -110.96,94.84 -12.45,8.42 -32.94,13.36 -32.75,31.73 -5.9,61.51 -0.77,123.74 -9.76,185.06 -1.54,-61.65 -4.56,-123.42 -1.79,-185.06 1.34,-9.25 3.14,-18.43 4.62,-27.68z"/>
   </g>
   <g>
    <path class="fil67" d="M2622.07 1323.47c8.03,-8.67 16.95,-16.5 26.14,-24.01 4.62,16.37 -10.34,29.47 -26.14,24.01z"/>
   </g>
   <g>
    <path class="fil68" d="M2316.93 1384.28c9.06,-8.99 18.17,-17.91 27.36,-26.77 1.86,39.1 1.99,80.84 24.72,114.68 13.87,19.65 9.57,44.18 8.09,66.52 15.48,-13.1 32.11,-25.87 52.33,-30.56 -32.49,33.39 -66.72,65.11 -96.25,101.26 48.99,55.35 100.88,108.2 153.79,159.83 -49.38,-14 -72.88,-67.87 -123.74,-79.17 -22.73,49.89 -73.72,91.05 -64.92,150.89 -27.74,-24.78 -30.89,-68.7 -64.41,-87 14.71,-32.17 28.45,-66.66 20.94,-102.75 -5.2,-29.72 -1.35,-60.81 18.56,-84.56 26.64,-32.3 -1.42,-72.31 2.37,-108.33 7.96,-27.35 25.94,-50.34 41.16,-74.04z"/>
   </g>
   <g>
    <path class="fil69" d="M2205.97 1479.12c44.24,-22.34 72.56,-64.72 110.96,-94.84 -15.22,23.7 -33.2,46.69 -41.16,74.04 -3.79,36.02 24.27,76.03 -2.37,108.33 -19.91,23.75 -23.76,54.84 -18.56,84.56 7.51,36.09 -6.23,70.58 -20.94,102.75 33.52,18.3 36.67,62.22 64.41,87 0.26,2.51 0.71,7.45 0.9,9.89 -46.17,-39.36 -83.29,-89.06 -133.76,-123.35 -0.45,-6.42 -1.15,-12.91 -1.73,-19.2 -0.07,-3.08 -0.19,-9.31 -0.26,-12.39 8.99,-61.32 3.86,-123.55 9.76,-185.06 -0.19,-18.37 20.3,-23.31 32.75,-31.73z"/>
    <path class="fil69" d="M2737.59 2017.81c152.31,146.53 299.55,298.27 452.57,443.97 34.04,30.95 61.46,71.85 105.63,89.38 -0.96,2.18 -2.95,6.49 -3.91,8.61 -107.62,-59.02 -173.83,-167.41 -270.08,-240.8 -91.51,-97.03 -187.12,-190.01 -280.74,-284.92 -0.9,-4.04 -2.63,-12.2 -3.47,-16.24z"/>
    <path class="fil69" d="M2680.18 2221.94c15.74,-6.04 30.31,7.38 25.69,23.7 -9.38,-7.07 -17.53,-15.42 -25.69,-23.7z"/>
    <path class="fil69" d="M2711.71 2250.32c39.43,25.69 74.23,59.21 99.15,99.34 -34.1,-32.04 -67.43,-64.98 -99.15,-99.34z"/>
    <path class="fil69" d="M2840.78 2378.04c9.31,1.61 14.06,7.26 14.26,16.89 -8.67,-2.5 -13.42,-8.16 -14.26,-16.89z"/>
    <path class="fil69" d="M2993.61 2532.86c32.36,14.06 53.17,43.15 78.02,66.72 28.38,36.6 73.2,59.39 93.81,101.65 -27.55,-21.07 -51.24,-46.37 -76.35,-70.19 -30.75,-33.77 -64.27,-64.85 -95.48,-98.18z"/>
   </g>
   <g>
    <path class="fil70" d="M951.38 1404.7c26.01,17.53 48.29,39.56 70.95,61.13 21.71,19.84 40.01,43.09 55.29,68.26 -44.11,-41.1 -86.3,-84.31 -126.24,-129.39z"/>
   </g>
   <g>
    <path class="fil71" d="M1467.2 1401.88c12.59,43.79 17.27,89.12 20.49,134.39l-5.21 -0.32c-8.22,-44.3 -10.65,-89.38 -15.28,-134.07z"/>
   </g>
   <g>
    <path class="fil72" d="M179.22 1498.32c5.52,-0.12 11.04,-0.19 16.57,-0.19 -3.09,147.5 3.46,295.12 -2,442.56 -4.3,31.66 -3.01,63.83 -7.7,95.42 -11.95,21.51 -40.58,9.89 -52.14,-5.72 -14.84,-21.7 -21.71,-47.51 -32.05,-71.4 -7.7,19.9 -13.8,40.45 -19.07,61.19 -27.09,4.31 -51.43,18.56 -60.36,45.79 -1.22,-141.01 -1.66,-282.09 -0.06,-423.04 1.93,-54.13 58.56,-68.26 102.8,-64.72 27.23,-17.47 37.18,-53.17 54.01,-79.89z"/>
   </g>
   <g>
    <path class="fil73" d="M2163.72 1708.3c-13.29,-64.66 -10.34,-132.28 -2.05,-197.45 -2.77,61.64 0.25,123.41 1.79,185.06 0.07,3.08 0.19,9.31 0.26,12.39z"/>
   </g>
   <g>
    <path class="fil74" d="M3431.48 1573.33c6.03,-21.64 26.96,-32.56 45.14,-42.84 10.4,82.39 -0.13,165.29 5.13,247.87 -14.51,38.65 -48.03,63.83 -74.8,93.36 -30.25,31.34 -48.61,75 -90.48,93.5 -1.54,-36.09 -5.46,-72.05 -7.77,-108.14 0,-2.95 -0.06,-8.92 -0.13,-11.94 5.46,7.13 11.05,14.25 16.63,21.45 67.11,-82.97 76.03,-194.25 106.28,-293.26z"/>
   </g>
   <g>
    <path class="fil75" d="M1118.65 1575.57c19.01,6.87 36.09,18.24 44.12,37.63 -15.86,-11.17 -30.44,-23.95 -44.12,-37.63z"/>
   </g>
   <g>
    <path class="fil76" d="M1162.77 1613.2c1.41,2.31 4.24,6.87 5.65,9.12 -21.64,37.69 -55.87,64.92 -84.44,96.83 -83.28,96.71 -180.82,179.61 -270.02,270.21 -63.37,44.89 -108.45,109.74 -168.49,158.54 -62.42,53.49 -110.83,121.3 -173.51,174.15 -37.3,19.58 -51.5,70.83 -95.8,76.67 155.14,-165.93 323.63,-318.69 483.65,-479.87 70.25,-64.59 132.92,-136.9 203.68,-200.92 34.81,-33.26 69.93,-66.52 99.28,-104.73z"/>
   </g>
   <g>
    <path class="fil77" d="M8.8 1633.94c3.4,2.25 10.21,6.74 13.61,8.99 -1.6,140.95 -1.16,282.03 0.06,423.04 -0.7,140.88 -0.32,281.76 -0.51,422.71 -4.3,102.16 32.17,204.33 95.36,284.14 0.13,3.34 0.45,10.15 0.58,13.49 -69.74,-71.28 -112.25,-171.71 -109.68,-271.94 -0.64,-293.46 1.09,-586.97 0.58,-880.43z"/>
   </g>
   <g>
    <path class="fil78" d="M1489.16 1670.22c11.24,-19.65 36.86,-14.45 55.8,-15.92 100.62,1.67 201.31,-1.35 301.81,3.14 50.79,1.87 102.35,-3.21 152.37,7.97 -143.32,5.26 -286.71,-12.97 -430.1,-1.03 -26.77,0.13 -53.29,3.21 -79.88,5.84z"/>
   </g>
   <g>
    <path class="fil79" d="M1569.04 1664.38c143.39,-11.94 286.78,6.29 430.1,1.03 4.43,23.82 3.28,48.16 0.97,72.24 -2.57,0.38 -7.65,1.22 -10.21,1.67 -20.62,-0.58 -41.16,-2.51 -61.71,-3.15 22.6,-1.8 45.01,-5.2 67.55,-8.09 -2.57,-16.12 -4.82,-32.24 -6.81,-48.35 -49.51,-3.15 -99.27,-1.87 -148.59,-7.9 -90.22,-9.83 -181.21,3.14 -271.3,-7.45z"/>
   </g>
   <g>
    <path class="fil80" d="M1489.16 1670.22c26.59,-2.63 53.11,-5.71 79.88,-5.84 90.09,10.59 181.08,-2.38 271.3,7.45 49.32,6.03 99.08,4.75 148.59,7.9 1.99,16.11 4.24,32.23 6.81,48.35 -22.54,2.89 -44.95,6.29 -67.55,8.09 -145.38,7.51 -290.89,-4.69 -436.14,1.28 -0.64,-22.41 -1.86,-44.82 -2.89,-67.23z"/>
   </g>
   <g>
    <path class="fil81" d="M2298.31 1840.96c-8.8,-59.84 42.19,-101 64.92,-150.89 50.86,11.3 74.36,65.17 123.74,79.17 83.09,83.22 167.85,164.96 250.62,248.57 0.84,4.04 2.57,12.2 3.47,16.24 -65.37,-55.35 -120.08,-122 -186.35,-176.26 -39.17,-32.3 -68.71,-79.11 -119.43,-94.65 -16.38,33.2 -42.06,60.55 -73.85,79.43 0.77,20.1 -2.25,43.92 15.22,58.24 33.07,31.53 58.75,69.67 92.02,101.07 26.07,25.88 56.18,49.32 72.17,83.41 -31.27,-28.06 -60.55,-58.11 -90.6,-87.39 -48.03,-51.31 -100.69,-98.05 -151.03,-147.05 -0.19,-2.44 -0.64,-7.38 -0.9,-9.89z"/>
   </g>
   <g>
    <path class="fil82" d="M1492.05 1737.45c145.25,-5.97 290.76,6.23 436.14,-1.28 20.55,0.64 41.09,2.57 61.71,3.15 -3.22,0.64 -9.64,1.99 -12.85,2.63 -121.23,2.57 -242.47,3.72 -363.64,1.92 -40.51,-1.86 -81.42,1.87 -121.36,-6.42z"/>
   </g>
   <g>
    <path class="fil83" d="M1613.41 1743.87c121.17,1.8 242.41,0.65 363.64,-1.92 -11.3,2.82 -22.47,5.97 -33.77,8.48 -109.81,-1.23 -220.9,9.43 -329.87,-6.56z"/>
   </g>
   <g>
    <path class="fil84" d="M2435.28 1763.14c50.72,15.54 80.26,62.35 119.43,94.65 66.27,54.26 120.98,120.91 186.35,176.26 93.62,94.91 189.23,187.89 280.74,284.92 20.22,33.13 48.22,60.29 71.92,90.79 -6.3,6.94 -12.46,13.87 -18.63,20.87 36.16,3.41 40.65,38.79 42.96,68.13 16.25,41.55 37.18,82.26 64.47,117.83 -36.41,8.22 -52.78,-22.21 -58.62,-53.04 -6.81,14.64 -13.81,29.22 -20.81,43.8 -10.53,-2.51 -21.12,-4.95 -31.46,-7.77 -24.85,-23.57 -45.66,-52.66 -78.02,-66.72 -47.91,-44.24 -93.24,-91.18 -138.57,-137.93 -0.2,-9.63 -4.95,-15.28 -14.26,-16.89 -1.22,-0.77 -3.53,-2.37 -4.69,-3.14 0.2,-11.88 -8.66,-24.6 -21.76,-20.1 -0.9,-1.29 -2.64,-3.86 -3.47,-5.14 -24.92,-40.13 -59.72,-73.65 -99.15,-99.34 -1.47,-1.15 -4.36,-3.53 -5.84,-4.68 4.62,-16.32 -9.95,-29.74 -25.69,-23.7 -7.38,-6.23 -15.02,-12.14 -22.34,-18.17 -2.44,-3.21 -4.82,-6.42 -7.13,-9.5 -29.67,-42.32 -66.08,-81.17 -109.87,-108.98 -15.99,-34.09 -46.1,-57.53 -72.17,-83.41 -33.27,-31.4 -58.95,-69.54 -92.02,-101.07 -17.47,-14.32 -14.45,-38.14 -15.22,-58.24 31.79,-18.88 57.47,-46.23 73.85,-79.43z"/>
   </g>
   <g>
    <path class="fil85" d="M3481.75 1778.36c4.43,38.46 4.05,77.5 11.88,115.58 0.13,3.98 0.33,11.88 0.45,15.86 -13.16,45.27 -65.36,47.58 -96.12,75 -34.16,25.49 -49.64,66.46 -69.1,102.74 -5.2,-2.76 -10.33,-5.46 -15.41,-8.09 2.31,-38.01 4.56,-76.09 3.02,-114.23 41.87,-18.5 60.23,-62.16 90.48,-93.5 26.77,-29.53 60.29,-54.71 74.8,-93.36z"/>
   </g>
   <g>
    <path class="fil86" d="M3306.39 2188.49c-6.04,-110.32 -2.25,-221.09 2.31,-331.41 2.31,36.09 6.23,72.05 7.77,108.14 1.54,38.14 -0.71,76.22 -3.02,114.23 -1.09,36.41 -3.21,72.76 -7.06,109.04z"/>
   </g>
   <g>
    <path class="fil87" d="M1422.57 1894.2c39.37,-2.25 76.74,-17.15 116.23,-17.92 118.86,-0.25 237.72,2.57 356.57,0.96 40.2,0.71 82.45,-7.44 120.66,8.8 0.71,23.63 1.28,47.26 0.06,70.83l-5.71 1.16c0.13,-21.39 0.58,-42.84 -0.39,-64.15 -0.96,-1.61 -2.95,-4.82 -3.98,-6.36 -170.23,-0.71 -340.65,-0.32 -510.88,1.28l-3.27 0.26c-22.67,16.57 -31.66,44.05 -31.98,71.15 -14.19,-21 -25.94,-43.41 -37.31,-66.01z"/>
   </g>
   <g>
    <path class="fil88" d="M1495.13 1888.8c170.23,-1.6 340.65,-1.99 510.88,-1.28 1.03,1.54 3.02,4.75 3.98,6.36 -66.52,-11.88 -134.39,-2.96 -201.5,-5.2 -104.47,0.32 -208.95,-1.55 -313.36,0.12z"/>
    <path class="fil88" d="M2590.93 2734.49c11.49,-2.31 23.05,-4.56 34.74,-6.36 17.4,-0.26 34.74,0.32 52.2,0.64 -27.42,10.02 -53.42,24.34 -73.65,45.72 34.61,39.75 80.78,65.76 122.33,97.29 -30.12,7.83 -61.52,16.63 -83.29,40.45 -2.25,0.77 -6.74,2.25 -8.99,2.95 7.58,-21.76 23.31,-46.1 10.73,-68.96 -19.2,-37.05 -61.84,-64.66 -54.07,-111.73z"/>
   </g>
   <g>
    <path class="fil89" d="M1459.88 1960.21c0.32,-27.1 9.31,-54.58 31.98,-71.15 -2.31,20.87 -4.17,41.8 -5.65,62.8 -0.26,4.56 -0.9,13.68 -1.22,18.24l-6.74 0.32c-3.02,-0.26 -9.06,-0.84 -12.08,-1.16 -1.54,-2.24 -4.68,-6.8 -6.29,-9.05z"/>
   </g>
   <g>
    <path class="fil90" d="M1491.86 1889.06l3.27 -0.26c104.41,-1.67 208.89,0.2 313.36,-0.12 5.78,17.46 11.56,34.93 17.34,52.46 -8.03,6.87 -16.05,13.8 -24.01,20.8 -105.06,-5.07 -211.84,9.89 -315.61,-10.08 1.48,-21 3.34,-41.93 5.65,-62.8z"/>
   </g>
   <g>
    <path class="fil91" d="M1808.49 1888.68c67.11,2.24 134.98,-6.68 201.5,5.2 0.97,21.31 0.52,42.76 0.39,64.15 -69.22,7.31 -139.09,2.05 -208.56,3.91 7.96,-7 15.98,-13.93 24.01,-20.8 -5.78,-17.53 -11.56,-35 -17.34,-52.46z"/>
   </g>
   <g>
    <path class="fil92" d="M3397.96 1984.8c30.76,-27.42 82.96,-29.73 96.12,-75 0.71,33.52 1.03,67.04 0.07,100.56 -9.95,32.43 -31.47,57.53 -60.88,73.84 -41.41,68.33 -60.61,149.81 -109.29,214.28 -7.06,-33.26 -12.84,-66.78 -17.4,-100.49 -0.06,-2.38 -0.13,-7.13 -0.19,-9.5 3.85,-36.28 5.97,-72.63 7.06,-109.04 5.08,2.63 10.21,5.33 15.41,8.09 19.46,-36.28 34.94,-77.25 69.1,-102.74z"/>
   </g>
   <g>
    <path class="fil93" d="M186.09 2036.11c4.69,-31.59 3.4,-63.76 7.7,-95.42 8.8,149.23 -7.25,299.74 7.26,448.33 5.52,52.01 -0.58,104.86 8.41,156.55 5.91,26.59 16.44,51.82 25.88,77.32 -11.24,-4.11 -22.73,-7.52 -34.16,-10.98 -0.45,17.91 -0.51,35.83 -0.71,53.81 -28.12,22.6 -48.09,55.22 -82.19,69.99 -0.51,12.33 -0.96,24.66 -0.96,37.11 -63.19,-79.81 -99.66,-181.98 -95.36,-284.14 0.19,-140.95 -0.19,-281.83 0.51,-422.71 8.93,-27.23 33.27,-41.48 60.36,-45.79 5.27,-20.74 11.37,-41.29 19.07,-61.19 10.34,23.89 17.21,49.7 32.05,71.4 11.56,15.61 40.19,27.23 52.14,5.72z"/>
   </g>
   <g>
    <path class="fil94" d="M1486.21 1951.86c103.77,19.97 210.55,5.01 315.61,10.08 69.47,-1.86 139.34,3.4 208.56,-3.91l5.71 -1.16c-0.13,3.21 -0.38,9.63 -0.51,12.91l-5.78 0.64c-174.85,-2.44 -350.02,-3.21 -524.81,-0.32 0.32,-4.56 0.96,-13.68 1.22,-18.24z"/>
   </g>
   <g>
    <path class="fil95" d="M1340.12 1993.86c33.2,-21.58 72.82,-28.19 111.8,-25.62 3.59,0.25 10.72,0.77 14.25,1.02 3.02,0.32 9.06,0.9 12.08,1.16 92.4,11.36 185.96,2.7 278.87,5.59 -3.08,2.76 -9.31,8.34 -12.39,11.1 22.28,21.45 54,22.8 82.83,27.68 -10.08,15.35 -22.4,29.15 -38.07,38.98 14.06,0.57 28.19,3.91 38.91,13.61 -25.81,15.93 -55.16,25.49 -85.47,27.29 -85.08,4.11 -170.81,-6.29 -255.5,3.85 2.89,60.88 50.53,111.28 106.34,130.42 47.19,18.17 98.56,11.88 147.75,18.43 22.8,5.39 45.72,10.27 68.9,13.87 -10.79,46.55 22.6,91.57 67.87,101.2 31.98,-0.64 62.74,-14.51 95.29,-10.28 -87.58,48.42 -191.03,42.19 -287.6,38.72 -85.41,-8.79 -171.84,-32.42 -242.34,-83.09 -99.21,-66.2 -135.94,-202.85 -103.52,-313.93z"/>
   </g>
   <g>
    <path class="fil96" d="M1478.25 1970.42l6.74 -0.32c174.79,-2.89 349.96,-2.12 524.81,0.32 -83.67,11.49 -168.49,3.66 -252.68,5.59 -92.91,-2.89 -186.47,5.77 -278.87,-5.59z"/>
   </g>
   <g>
    <path class="fil97" d="M2450.24 1997.9c30.05,29.28 59.33,59.33 90.6,87.39 20.61,20.75 40.97,41.74 61.2,62.87 -39.69,-16.82 -64.92,-52.91 -96.64,-80.27 -22.74,-19.58 -41.93,-42.96 -55.16,-69.99z"/>
   </g>
   <g>
    <path class="fil98" d="M3433.27 2084.2c29.41,-16.31 50.93,-41.41 60.88,-73.84 2.12,94.91 0.32,189.81 0.7,284.72 -24.27,-1.29 -52.01,-15.8 -73.13,2.5 -41.94,30.83 -68.65,77 -105.7,112.89 -4.24,-15.6 -8.6,-31.08 -12.2,-46.75 -1.86,-55.28 -0.64,-110.57 2.76,-165.73 4.56,33.71 10.34,67.23 17.4,100.49 48.68,-64.47 67.88,-145.95 109.29,-214.28z"/>
   </g>
   <g>
    <path class="fil99" d="M1487.43 2098.52c84.69,-10.14 170.42,0.26 255.5,-3.85 58.24,0.39 116.48,3.21 174.73,0.77 25.75,-0.38 53.04,-3.59 77.05,8.09 -165.6,1.74 -331.27,-1.99 -496.88,-1.03 1.09,8.48 2.19,17.15 3.66,25.69 25.37,73.97 105.44,102.36 176.97,106.34 62.93,5.45 126.57,5.84 189.49,0 10.28,-0.84 20.49,-1.93 30.76,-3.34 -49.57,21.7 -104.99,9.5 -157.19,16.18 -49.19,-6.55 -100.56,-0.26 -147.75,-18.43 -55.81,-19.14 -103.45,-69.54 -106.34,-130.42z"/>
   </g>
   <g>
    <path class="fil100" d="M1497.83 2102.5c165.61,-0.96 331.28,2.77 496.88,1.03 2.44,1.22 7.38,3.6 9.83,4.75 -1.8,6.42 -3.73,12.85 -5.72,19.27 -10.6,-8.22 -21.19,-18.63 -35.7,-17.53 -58.5,-0.9 -117.06,0.58 -175.56,0.45 -74.36,-1.99 -148.72,-0.84 -223.01,-2.7 -22.73,0.45 -52.46,-5.84 -63.06,20.42 -1.47,-8.54 -2.57,-17.21 -3.66,-25.69z"/>
   </g>
   <g>
    <path class="fil101" d="M1501.49 2128.19c10.6,-26.26 40.33,-19.97 63.06,-20.42 74.29,1.86 148.65,0.71 223.01,2.7 8.99,4.75 17.85,10.01 26.78,15.22 -49.9,21.06 -44.44,88.8 -96.64,106.91 -13.1,0.77 -26.2,1.6 -39.24,1.93 -71.53,-3.98 -151.6,-32.37 -176.97,-106.34z"/>
   </g>
   <g>
    <path class="fil102" d="M1787.56 2110.47c58.5,0.13 117.06,-1.35 175.56,-0.45 14.51,-1.1 25.1,9.31 35.7,17.53 -19.52,44.63 -53.04,86.75 -100.11,103.64 -10.27,1.41 -20.48,2.5 -30.76,3.34 -50.08,-0.58 -100.17,-2.83 -150.25,-1.93 52.2,-18.11 46.74,-85.85 96.64,-106.91 -8.93,-5.21 -17.79,-10.47 -26.78,-15.22z"/>
   </g>
   <g>
    <path class="fil103" d="M1678.46 2234.53c13.04,-0.33 26.14,-1.16 39.24,-1.93 50.08,-0.9 100.17,1.35 150.25,1.93 -62.92,5.84 -126.56,5.45 -189.49,0z"/>
   </g>
   <g>
    <path class="fil104" d="M3421.72 2297.58c21.12,-18.3 48.86,-3.79 73.13,-2.5 0.2,33.07 0.52,66.07 0.52,99.14 -29.22,20.55 -67.68,19.01 -96,41.16 -23.18,17.34 -51.37,24.66 -79.56,28.64 -5.52,-11.62 -11.17,-23.11 -16.12,-34.86 -1.35,-21.84 -0.13,-43.67 0.13,-65.44 3.6,15.67 7.96,31.15 12.2,46.75 37.05,-35.89 63.76,-82.06 105.7,-112.89z"/>
   </g>
   <g>
    <path class="fil105" d="M376.16 2398.72c44.3,-5.84 58.5,-57.09 95.8,-76.67 5.98,2.82 12.01,5.71 18.05,8.67 -14.39,20.16 -33.59,41.41 -29.8,68.26 1.29,39.68 43.92,59.01 51.76,96.76 43.15,-36.08 80.07,-79.17 126.76,-111.21 -11.18,13.74 -20.1,29.09 -29.54,43.98 -26.27,26.2 -52.53,52.34 -78.54,78.79 -55.28,50.02 -97.85,113.4 -159.88,156.1 -70,19.27 -139.73,-48.35 -137.03,-117.06 12.52,-22.28 35.05,-37.69 46.42,-61.13 18.17,-18.55 37.95,-35.51 57.6,-52.52 20.68,-0.07 31.72,-16.57 38.4,-33.97z"/>
   </g>
   <g>
    <path class="fil106" d="M3021.8 2318.97c96.25,73.39 162.46,181.78 270.08,240.8 33.13,17.59 57.15,49.76 94.52,59.84 30.63,6.17 51.88,29.15 54.45,60.49 -40.26,101.39 -135.23,166.7 -232.58,206.64 -65.43,26.45 -136.96,14.25 -205.41,18.3 -48.68,2.63 -97.99,-0.58 -144.03,-17.4 19.2,-46.43 -0.26,-93.43 -15.99,-137.42 23.18,-3.34 46.42,-8.54 66.52,-21.19 2.12,0 6.23,0 8.28,-0.06 59.27,4.49 119.95,9.44 178.45,-4.11 24.27,-3.21 52.4,-2.83 69.35,-23.63 -20.61,-42.26 -65.43,-65.05 -93.81,-101.65 10.34,2.82 20.93,5.26 31.46,7.77 7,-14.58 14,-29.16 20.81,-43.8 5.84,30.83 22.21,61.26 58.62,53.04 -27.29,-35.57 -48.22,-76.28 -64.47,-117.83 -2.31,-29.34 -6.8,-64.72 -42.96,-68.13 6.17,-7 12.33,-13.93 18.63,-20.87 -23.7,-30.5 -51.7,-57.66 -71.92,-90.79z"/>
   </g>
   <g>
    <path class="fil107" d="M2814.33 2354.8c13.1,-4.5 21.96,8.22 21.76,20.1 -9.11,-4.5 -17.27,-10.92 -21.76,-20.1z"/>
   </g>
   <g>
    <path class="fil108" d="M3399.37 2435.38c28.32,-22.15 66.78,-20.61 96,-41.16 -0.84,48.87 0.25,97.74 -2.31,146.6 -1.48,22.67 -5.08,45.27 -10.53,67.42 -13.55,-28.06 -27.17,-58.04 -51.95,-78.01 -24.79,-14.45 -53.75,-18.88 -80.72,-27.55 -16.31,11.69 -32.87,23.12 -48.42,35.89 6.11,-36.21 3.6,-73.01 2.25,-109.41 4.95,11.75 10.6,23.24 16.12,34.86 28.19,-3.98 56.38,-11.3 79.56,-28.64z"/>
   </g>
   <g>
    <path class="fil109" d="M337.76 2432.69c12.58,-11.56 25.49,-22.73 38.4,-33.97 -6.68,17.4 -17.72,33.9 -38.4,33.97z"/>
   </g>
   <g>
    <path class="fil110" d="M218.13 2539.09c22.35,-15.93 41.1,-36.22 62.03,-53.88 -11.37,23.44 -33.9,38.85 -46.42,61.13 -2.7,68.71 67.03,136.33 137.03,117.06 -10.79,8.35 -20.94,17.47 -31.02,26.65 -27.42,-15.47 -54.13,-32.1 -80.91,-48.54 -3.21,-3.92 -6.29,-7.84 -9.25,-11.75 -13.22,-29.22 -22.34,-60.04 -31.46,-90.67z"/>
   </g>
   <g>
    <path class="fil111" d="M3301.44 2538.57c15.55,-12.77 32.11,-24.2 48.42,-35.89 26.97,8.67 55.93,13.1 80.72,27.55 24.78,19.97 38.4,49.95 51.95,78.01 -20.1,19.91 -31.85,45.79 -41.68,71.86 -2.57,-31.34 -23.82,-54.32 -54.45,-60.49 -37.37,-10.08 -61.39,-42.25 -94.52,-59.84 0.96,-2.12 2.95,-6.43 3.91,-8.61l3.09 -7 2.56 -5.59z"/>
   </g>
   <g>
    <path class="fil112" d="M209.46 2545.57l5.33 -4.11 3.34 -2.37c9.12,30.63 18.24,61.45 31.46,90.67 -3.59,-1.67 -10.72,-5.14 -14.25,-6.87 -9.44,-25.5 -19.97,-50.73 -25.88,-77.32z"/>
   </g>
   <g>
    <path class="fil113" d="M201.18 2611.91c11.43,3.46 22.92,6.87 34.16,10.98 3.53,1.73 10.66,5.2 14.25,6.87 2.96,3.91 6.04,7.83 9.25,11.75 15.99,23.24 40.39,38.08 60.68,57.08 4.24,10.47 7.9,21.19 11.75,31.85 50.48,24.15 57.09,94.59 48.61,144.16 12.97,3.15 25.94,6.23 38.98,9.38 -0.83,5.9 -1.67,11.88 -2.5,17.91 -109.87,12.2 -201.37,-62.16 -293.01,-110.57 -1.35,-1.29 -4.11,-3.79 -5.45,-5.01 -0.13,-3.34 -0.45,-10.15 -0.58,-13.49 0,-12.45 0.45,-24.78 0.96,-37.11 34.1,-14.77 54.07,-47.39 82.19,-69.99 0.2,-17.98 0.26,-35.9 0.71,-53.81z"/>
   </g>
   <g>
    <path class="fil114" d="M258.84 2641.51c26.78,16.44 53.49,33.07 80.91,48.54l4.75 2.44c-1.47,4.05 -4.43,12.2 -5.91,16.31l-1.79 5.52c-5.85,-5.2 -11.56,-10.53 -17.28,-15.73 -20.29,-19 -44.69,-33.84 -60.68,-57.08z"/>
   </g>
   <g>
    <path class="fil115" d="M319.52 2698.59c5.72,5.2 11.43,10.53 17.28,15.73 8.34,8.42 19.97,11.56 31.27,13.87 8.41,1.8 16.82,3.6 25.36,5.14 143.33,18.95 288.58,8.48 432.61,19.46 84.43,-5.27 168.87,-6.36 253.38,-3.4 -30.37,47.96 -19.39,115.71 30.24,146.27 -230.78,11.37 -462.27,1.42 -693.3,6.23 0.83,-6.03 1.67,-12.01 2.5,-17.91 -13.04,-3.15 -26.01,-6.23 -38.98,-9.38 8.48,-49.57 1.87,-120.01 -48.61,-144.16 -3.85,-10.66 -7.51,-21.38 -11.75,-31.85z"/>
   </g>
   <g>
    <path class="fil116" d="M338.59 2708.8c136.46,11.11 273.55,8.29 410.39,8.74 248.63,-1.16 497.46,2.44 745.96,-2.77 324.6,3.47 649.96,3.15 974.95,2.7 32.04,-0.83 63.95,2.76 95.55,7.84 -732.42,3.4 -1464.9,-1.48 -2197.37,2.88 -11.3,-2.31 -22.93,-5.45 -31.27,-13.87l1.79 -5.52z"/>
   </g>
   <g>
    <path class="fil117" d="M368.07 2728.19c732.47,-4.36 1464.95,0.52 2197.37,-2.88 1.73,66.14 91.88,111.21 54.06,180.18 22.09,-67.68 -48.41,-112.57 -71.21,-169.27 -208.88,-5.65 -418.54,-8.8 -627.36,0.19 -488.98,-8.41 -978.29,2.83 -1467.33,-6.16 -20.1,0.39 -40.13,2.18 -60.17,3.08 -8.54,-1.54 -16.95,-3.34 -25.36,-5.14z"/>
   </g>
   <g>
    <path class="fil118" d="M2565.44 2725.31c20.03,1.92 40.13,2.56 60.23,2.82 -11.69,1.8 -23.25,4.05 -34.74,6.36 -7.77,47.07 34.87,74.68 54.07,111.73 12.58,22.86 -3.15,47.2 -10.73,68.96 -4.75,-0.06 -14.19,-0.32 -18.94,-0.45 1.03,-2.31 3.15,-6.93 4.17,-9.24 37.82,-68.97 -52.33,-114.04 -54.06,-180.18z"/>
   </g>
   <g>
    <path class="fil119" d="M2917.64 2728.97c59.34,-5.14 118.93,-4.05 178.45,-4.11 -58.5,13.55 -119.18,8.6 -178.45,4.11z"/>
   </g>
   <g>
    <path class="fil120" d="M393.43 2733.33c20.04,-0.9 40.07,-2.69 60.17,-3.08 489.04,8.99 978.35,-2.25 1467.33,6.16 46.56,6.17 93.49,2.57 140.24,5.65l8.09 2.38c-329.8,4.11 -660.11,-3.34 -989.84,4.95 -84.51,-2.96 -168.95,-1.87 -253.38,3.4 -144.03,-10.98 -289.28,-0.51 -432.61,-19.46z"/>
   </g>
   <g>
    <path class="fil121" d="M1920.93 2736.41c208.82,-8.99 418.48,-5.84 627.36,-0.19 22.8,56.7 93.3,101.59 71.21,169.27 -1.02,2.31 -3.14,6.93 -4.17,9.24 -3.92,-0.06 -11.62,-0.19 -15.54,-0.25 -11.82,-0.65 -23.57,-1.54 -35.32,-2.06 19.01,-6.48 49.83,-11.36 49.7,-37.11 -1.28,-39.56 -34.99,-65.44 -56.83,-94.78 -12,-13.16 -21.57,-33.71 -42.12,-33.52 -89.96,-7.83 -180.18,-0.26 -270.14,2.76 -61,-6.93 -122.39,-17.27 -183.91,-7.71 -46.75,-3.08 -93.68,0.52 -140.24,-5.65z"/>
   </g>
   <g>
    <path class="fil122" d="M2061.17 2742.06c61.52,-9.56 122.91,0.78 183.91,7.71 89.96,-3.02 180.18,-10.59 270.14,-2.76 20.55,-0.19 30.12,20.36 42.12,33.52 21.84,29.34 55.55,55.22 56.83,94.78 0.13,25.75 -30.69,30.63 -49.7,37.11 -128.87,-2.12 -257.81,2.96 -386.69,-0.83l-6.42 -5.52c78.21,1.92 156.1,-9.19 234.31,-5.98 58.5,1.16 118.16,8.03 175.76,-5.39 27.61,-6.68 17.07,-42.7 2.56,-57.6 -24.65,-36.79 -71.72,-38.66 -109.67,-52.53 -45.4,-5.52 -90.93,11.31 -128.75,35.71 -49.06,34.29 -115.71,2.63 -145.83,-42.45 -20.67,-34.35 -65.11,-25.3 -98.82,-26.84 -10.72,-1.73 -21.19,-4.04 -31.66,-6.55l-8.09 -2.38z"/>
   </g>
   <g>
    <path class="fil123" d="M1079.42 2749.39c329.73,-8.29 660.04,-0.84 989.84,-4.95 10.47,2.51 20.94,4.82 31.66,6.55 -12.46,4.5 -24.66,9.76 -36.79,14.96 21.12,39.69 35.12,82.84 51.37,124.77 18.62,5.14 37.3,9.95 55.86,15.35l6.42 5.52c-52.91,-0.52 -105.89,0.77 -158.8,-2.06 -170.23,-17.59 -341.87,0.52 -512.29,-13.61 -132.21,9.95 -264.75,-0.64 -397.03,-0.26 -49.63,-30.56 -60.61,-98.31 -30.24,-146.27z"/>
   </g>
   <g>
    <path class="fil124" d="M2064.13 2765.95c12.13,-5.2 24.33,-10.46 36.79,-14.96 33.71,1.54 78.15,-7.51 98.82,26.84 30.12,45.08 96.77,76.74 145.83,42.45 37.82,-24.4 83.35,-41.23 128.75,-35.71 37.95,13.87 85.02,15.74 109.67,52.53 14.51,14.9 25.05,50.92 -2.56,57.6 -57.6,13.42 -117.26,6.55 -175.76,5.39 -78.21,-3.21 -156.1,7.9 -234.31,5.98 -18.56,-5.4 -37.24,-10.21 -55.86,-15.35 -16.25,-41.93 -30.25,-85.08 -51.37,-124.77z"/>
   </g>
   <g>
    <path class="fil125" d="M2649.94 2912.17l6.1 -0.13c47.77,2.57 95.68,1.99 143.52,1.28 79.11,-0.83 158.22,-1.41 237.26,0.19 -103.7,10.21 -208.18,-2.37 -312.01,6.81 -25.17,-0.83 -50.08,-4.43 -74.87,-8.15z"/>
   </g>
  </g>
  <g id="_2366193153024">
   <polygon class="fil126 str0" points="11178.66,2052.25 11422.43,1296.71 11594.48,1296.71 11241.39,2280.5 11113.14,2280.5 10756.64,1296.71 10928.37,1296.71 "/>
   <path class="fil126 str0" d="M9929.69 1799.16c0,109 25.14,196.89 75.76,263.03 50.62,66.14 118.63,99.06 203.4,99.06 85.4,0 153.41,-33.54 203.72,-100.61 50.31,-67.08 75.46,-160.87 75.46,-281.66 0,-108.07 -25.46,-195.33 -76.7,-262.41 -51.24,-67.07 -119.25,-100.61 -204.34,-100.61 -82.91,0 -149.98,32.92 -200.92,99.06 -50.93,66.15 -76.38,160.86 -76.38,284.14zm-169.25 -19.56c0,-96.58 18.94,-183.22 56.83,-260.23 37.88,-77.33 90.68,-136.64 158.38,-178.56 67.38,-41.93 144.7,-62.73 231.34,-62.73 134.16,0 242.53,46.27 325.45,139.12 82.6,92.85 123.9,216.45 123.9,370.48l0 11.79c0,95.96 -18.32,181.98 -54.96,258.06 -36.65,76.08 -89.13,135.39 -157.44,177.94 -68.01,42.54 -146.58,63.66 -235.09,63.66 -133.52,0 -241.59,-46.27 -324.2,-139.12 -82.91,-92.86 -124.21,-215.82 -124.21,-368.61l0 -11.8zm-624.8 45.34l-105.58 109.92 0 345.64 -168.31 0 0 -1397.42 168.31 0 0 845.59 90.06 -108.38 306.49 -323.58 204.96 0 -383.21 410.84 427.61 572.95 -197.5 0 -342.83 -455.56z"/>
   <path class="fil126 str0" d="M7992.24 1296.71l5.28 123.29c75.15,-94.72 173.59,-141.92 294.69,-141.92 208.07,0 313.03,117.38 314.89,352.15l0 650.27 -168.31 0 0 -650.89c-0.62,-70.81 -16.76,-123.28 -48.75,-157.13 -31.68,-33.85 -81.36,-50.93 -148.75,-50.93 -54.35,0 -102.48,14.59 -143.78,43.48 -40.99,29.18 -73.29,67.38 -96.26,114.58l0 700.89 -168.32 0 0 -983.79 159.31 0zm-610.51 -261.78c0,-27.33 8.38,-50.62 24.84,-69.57 16.76,-18.94 41.61,-28.25 74.22,-28.25 32.91,0 57.76,9.31 74.53,28.25 17.07,18.95 25.46,42.24 25.46,69.57 0,27.33 -8.39,50.3 -25.46,68.63 -16.77,18.32 -41.62,27.32 -74.53,27.32 -32.61,0 -57.46,-9 -74.22,-27.32 -16.46,-18.33 -24.84,-41.3 -24.84,-68.63zm181.97 1245.57l-168.31 0 0 -983.79 168.31 0 0 983.79z"/>
   <polygon class="fil126 str0" points="7111.25,2280.5 6942.94,2280.5 6942.94,883.08 7111.25,883.08 "/>
   <path class="fil126 str0" d="M6773.38 1446.7c-25.46,-4.35 -53.1,-6.52 -82.6,-6.52 -110.55,0 -185.39,46.89 -224.83,140.99l0 699.33 -168.31 0 0 -983.79 163.65 0 2.8 113.35c55.27,-87.88 133.53,-131.98 234.77,-131.98 32.91,0 57.75,4.34 74.52,12.73l0 155.89z"/>
   <path class="fil126 str0" d="M5698.61 1415.96c-68,0 -124.84,24.84 -171.1,74.52 -45.97,49.69 -74.54,119.25 -85.41,208.69l493.14 0 0 -12.73c-4.97,-86.02 -27.95,-152.48 -69.25,-199.68 -41.3,-47.2 -97.2,-70.8 -167.38,-70.8zm20.81 883.17c-133.22,0 -241.91,-43.79 -325.76,-131.36 -83.53,-87.88 -125.46,-204.95 -125.46,-351.84l0 -31.05c0,-97.51 18.64,-184.77 55.9,-261.48 37.27,-76.7 89.44,-136.94 156.51,-180.11 67.08,-43.47 139.74,-65.21 218,-65.21 127.94,0 227.31,42.23 298.42,126.39 70.81,84.46 106.52,205.26 106.52,362.39l0 70.19 -667.04 0c2.49,96.89 30.75,175.14 85.09,234.77 54.35,59.62 123.28,89.43 207.13,89.43 59.31,0 109.62,-12.11 150.93,-36.33 41.29,-24.23 77.32,-56.21 108.37,-95.96l102.79 80.12c-82.6,126.7 -206.51,190.05 -371.4,190.05z"/>
   <path class="fil126 str0" d="M4352.12 1520.3l263.64 0c76.4,0 137.58,-19.25 183.54,-57.45 45.65,-38.19 68.62,-89.74 68.62,-155.27 0,-72.98 -21.42,-125.76 -63.65,-158.68 -42.55,-33.23 -107.15,-49.69 -193.79,-49.69l-258.36 0 0 421.09zm0 143.46l0 473.27 288.18 0c81.36,0 145.64,-20.81 192.53,-62.73 46.9,-41.93 70.49,-99.68 70.49,-172.97 0,-158.38 -86.64,-237.57 -260.23,-237.57l-290.97 0zm-174.84 616.74l0 -1324.76 433.2 0c143.78,0 251.85,29.81 324.21,89.44 72.36,59.31 108.68,147.5 108.68,264.26 0,61.8 -17.38,116.76 -52.78,164.28 -35.09,47.82 -82.92,84.77 -143.78,110.86 71.73,19.87 128.25,58.07 169.86,113.97 41.61,56.21 62.11,122.97 62.11,200.3 0,118.93 -38.51,212.09 -115.52,279.79 -77.02,68.01 -185.7,101.86 -326.37,101.86l-459.61 0z"/>
  </g>
 </g>
</svg>
