<?xml version="1.0" encoding="UTF-8"?>
<!DOCTYPE svg PUBLIC "-//W3C//DTD SVG 1.1//EN" "http://www.w3.org/Graphics/SVG/1.1/DTD/svg11.dtd">
<!-- Creator: CorelDRAW 2018 (64-Bit) -->
<svg xmlns="http://www.w3.org/2000/svg" xml:space="preserve" width="171px" height="43px" version="1.1" style="shape-rendering:geometricPrecision; text-rendering:geometricPrecision; image-rendering:optimizeQuality; fill-rule:evenodd; clip-rule:evenodd"
viewBox="0 0 263.5 66.36"
 xmlns:xlink="http://www.w3.org/1999/xlink">
 <defs>
  <style type="text/css">
   <![CDATA[
    .str0 {stroke:#393185;stroke-width:0.03;stroke-miterlimit:22.9256}
    .fil41 {fill:#FFED00;fill-rule:nonzero}
    .fil19 {fill:#EF7F1A;fill-rule:nonzero}
    .fil127 {fill:#E31E24;fill-rule:nonzero}
    .fil65 {fill:#00A0E3;fill-rule:nonzero}
    .fil20 {fill:#009846;fill-rule:nonzero}
    .fil126 {fill:#393185;fill-rule:nonzero}
    .fil124 {fill:#0960FB;fill-rule:nonzero}
    .fil122 {fill:#0F58EA;fill-rule:nonzero}
    .fil121 {fill:#1752CE;fill-rule:nonzero}
    .fil113 {fill:#1877FD;fill-rule:nonzero}
    .fil123 {fill:#1A6CF9;fill-rule:nonzero}
    .fil115 {fill:#2176FD;fill-rule:nonzero}
    .fil93 {fill:#297CFD;fill-rule:nonzero}
    .fil57 {fill:#2D70DF;fill-rule:nonzero}
    .fil120 {fill:#2E6DEA;fill-rule:nonzero}
    .fil72 {fill:#2E85FD;fill-rule:nonzero}
    .fil77 {fill:#3774DF;fill-rule:nonzero}
    .fil55 {fill:#3A89FD;fill-rule:nonzero}
    .fil117 {fill:#416BC4;fill-rule:nonzero}
    .fil118 {fill:#483979;fill-rule:nonzero}
    .fil66 {fill:#551112;fill-rule:nonzero}
    .fil8 {fill:#5A0810;fill-rule:nonzero}
    .fil114 {fill:#5A49A4;fill-rule:nonzero}
    .fil88 {fill:#5F2F4A;fill-rule:nonzero}
    .fil69 {fill:#6F0301;fill-rule:nonzero}
    .fil46 {fill:#6F2431;fill-rule:nonzero}
    .fil11 {fill:#781B1F;fill-rule:nonzero}
    .fil112 {fill:#806FB5;fill-rule:nonzero}
    .fil68 {fill:#820201;fill-rule:nonzero}
    .fil107 {fill:#8B0710;fill-rule:nonzero}
    .fil16 {fill:#8D0805;fill-rule:nonzero}
    .fil119 {fill:#8D1C1E;fill-rule:nonzero}
    .fil28 {fill:#900F0F;fill-rule:nonzero}
    .fil81 {fill:#9B0101;fill-rule:nonzero}
    .fil64 {fill:#A00602;fill-rule:nonzero}
    .fil110 {fill:#A13446;fill-rule:nonzero}
    .fil106 {fill:#A70301;fill-rule:nonzero}
    .fil111 {fill:#A71D01;fill-rule:nonzero}
    .fil108 {fill:#A73602;fill-rule:nonzero}
    .fil104 {fill:#AD4D01;fill-rule:nonzero}
    .fil17 {fill:#AE0A03;fill-rule:nonzero}
    .fil49 {fill:#AE6AA8;fill-rule:nonzero}
    .fil48 {fill:#B3811F;fill-rule:nonzero}
    .fil109 {fill:#B4462D;fill-rule:nonzero}
    .fil98 {fill:#B46002;fill-rule:nonzero}
    .fil31 {fill:#B83B29;fill-rule:nonzero}
    .fil75 {fill:#B93637;fill-rule:nonzero}
    .fil61 {fill:#BA0D05;fill-rule:nonzero}
    .fil92 {fill:#BB6F02;fill-rule:nonzero}
    .fil86 {fill:#BB851F;fill-rule:nonzero}
    .fil84 {fill:#BC0202;fill-rule:nonzero}
    .fil70 {fill:#BC413D;fill-rule:nonzero}
    .fil2 {fill:#C07B01;fill-rule:nonzero}
    .fil116 {fill:#C2DBF4;fill-rule:nonzero}
    .fil10 {fill:#C45D4E;fill-rule:nonzero}
    .fil59 {fill:#C52C2E;fill-rule:nonzero}
    .fil60 {fill:#C53633;fill-rule:nonzero}
    .fil79 {fill:#C7A63B;fill-rule:nonzero}
    .fil85 {fill:#C88102;fill-rule:nonzero}
    .fil94 {fill:#CAA331;fill-rule:nonzero}
    .fil63 {fill:#CD8701;fill-rule:nonzero}
    .fil103 {fill:#CE9D38;fill-rule:nonzero}
    .fil52 {fill:#CFDCF5;fill-rule:nonzero}
    .fil42 {fill:#D1A342;fill-rule:nonzero}
    .fil102 {fill:#D28D03;fill-rule:nonzero}
    .fil100 {fill:#D2A93D;fill-rule:nonzero}
    .fil18 {fill:#D40A06;fill-rule:nonzero}
    .fil105 {fill:#D51F0E;fill-rule:nonzero}
    .fil74 {fill:#D58F01;fill-rule:nonzero}
    .fil34 {fill:#D5BC5F;fill-rule:nonzero}
    .fil76 {fill:#D63D24;fill-rule:nonzero}
    .fil53 {fill:#D9B568;fill-rule:nonzero}
    .fil22 {fill:#DAB03B;fill-rule:nonzero}
    .fil58 {fill:#DACAB8;fill-rule:nonzero}
    .fil47 {fill:#DB9101;fill-rule:nonzero}
    .fil12 {fill:#DD6B58;fill-rule:nonzero}
    .fil43 {fill:#DDC858;fill-rule:nonzero}
    .fil91 {fill:#DE9203;fill-rule:nonzero}
    .fil82 {fill:#DEC575;fill-rule:nonzero}
    .fil29 {fill:#DF1D0D;fill-rule:nonzero}
    .fil56 {fill:#E29702;fill-rule:nonzero}
    .fil101 {fill:#E39C03;fill-rule:nonzero}
    .fil32 {fill:#E79C01;fill-rule:nonzero}
    .fil125 {fill:#E89C94;fill-rule:nonzero}
    .fil27 {fill:#E8C557;fill-rule:nonzero}
    .fil80 {fill:#E99E04;fill-rule:nonzero}
    .fil73 {fill:#E9BDC0;fill-rule:nonzero}
    .fil21 {fill:#E9C664;fill-rule:nonzero}
    .fil89 {fill:#EADF6C;fill-rule:nonzero}
    .fil54 {fill:#EBA902;fill-rule:nonzero}
    .fil9 {fill:#ED9F9E;fill-rule:nonzero}
    .fil38 {fill:#EDB8B9;fill-rule:nonzero}
    .fil24 {fill:#EEA401;fill-rule:nonzero}
    .fil90 {fill:#EEA603;fill-rule:nonzero}
    .fil36 {fill:#EEBDB8;fill-rule:nonzero}
    .fil51 {fill:#EF150F;fill-rule:nonzero}
    .fil62 {fill:#EFA601;fill-rule:nonzero}
    .fil97 {fill:#EFC3C5;fill-rule:nonzero}
    .fil87 {fill:#EFEDB8;fill-rule:nonzero}
    .fil26 {fill:#F0B7B6;fill-rule:nonzero}
    .fil67 {fill:#F0BABB;fill-rule:nonzero}
    .fil40 {fill:#F0C9CD;fill-rule:nonzero}
    .fil6 {fill:#F4C6CA;fill-rule:nonzero}
    .fil7 {fill:#F5D57E;fill-rule:nonzero}
    .fil71 {fill:#F5E1A4;fill-rule:nonzero}
    .fil45 {fill:#F6BAB8;fill-rule:nonzero}
    .fil44 {fill:#F7EBA6;fill-rule:nonzero}
    .fil33 {fill:#F8E386;fill-rule:nonzero}
    .fil23 {fill:#F9E79F;fill-rule:nonzero}
    .fil37 {fill:#F9EA89;fill-rule:nonzero}
    .fil25 {fill:#F9EAAA;fill-rule:nonzero}
    .fil3 {fill:#FAAF01;fill-rule:nonzero}
    .fil1 {fill:#FAE69F;fill-rule:nonzero}
    .fil50 {fill:#FAF0A9;fill-rule:nonzero}
    .fil13 {fill:#FB492D;fill-rule:nonzero}
    .fil39 {fill:#FBE987;fill-rule:nonzero}
    .fil5 {fill:#FBF1AE;fill-rule:nonzero}
    .fil15 {fill:#FBFCFB;fill-rule:nonzero}
    .fil0 {fill:#FBFDFC;fill-rule:nonzero}
    .fil95 {fill:#FBFDFD;fill-rule:nonzero}
    .fil30 {fill:#FC271E;fill-rule:nonzero}
    .fil4 {fill:#FCF3B1;fill-rule:nonzero}
    .fil78 {fill:#FCF7BC;fill-rule:nonzero}
    .fil35 {fill:#FD2C18;fill-rule:nonzero}
    .fil14 {fill:#FD3527;fill-rule:nonzero}
    .fil99 {fill:#FDF1AC;fill-rule:nonzero}
    .fil83 {fill:#FDF9CE;fill-rule:nonzero}
    .fil96 {fill:#FFF7C0;fill-rule:nonzero}
   ]]>
  </style>
 </defs>
 <g id="Layer_x0020_1">
  <metadata id="CorelCorpID_0Corel-Layer"/>
  <g id="_2366780964304">
   <g>
    <path class="fil0" d="M34.78 0.74c1.01,-0.29 2.04,-0.52 3.08,-0.64 5.99,-0.69 12.1,2.24 15.6,7.07 0.81,1.36 1.73,2.7 2.12,4.24 1.1,3.02 1,6.31 0.37,9.41 -0.46,2.38 -1.71,4.52 -3.22,6.38 -1.03,1.3 -2.31,2.44 -2.98,4 -0.14,-0.18 -0.29,-0.36 -0.43,-0.53 -0.01,0.23 -0.02,0.46 -0.03,0.69 -0.83,0 -1.66,-0.06 -2.47,-0.21 -0.21,0.2 -0.42,0.4 -0.63,0.6 -0.01,-0.08 -0.02,-0.24 -0.03,-0.32 0.23,-1.05 0.75,-2 1.28,-2.91 1.06,-1.73 2.68,-2.99 3.77,-4.69 0.14,-0.2 0.28,-0.41 0.42,-0.61 0.98,-1.28 1.33,-2.94 1.43,-4.51 0.03,-0.21 0.05,-0.41 0.07,-0.61 0.2,-1.1 0.18,-2.22 -0.03,-3.31 -0.01,-0.06 -0.03,-0.18 -0.04,-0.24 -0.12,-0.79 -0.34,-1.55 -0.58,-2.31 -0.11,-0.79 -0.45,-1.51 -0.95,-2.12 -0.55,-1.13 -1.42,-2.04 -2.26,-2.96 -0.55,-0.96 -1.51,-1.63 -2.56,-1.94 -0.05,-0.03 -0.15,-0.09 -0.21,-0.11 -0.5,-0.6 -1.19,-0.98 -1.97,-1.07 -0.12,-0.04 -0.24,-0.08 -0.35,-0.11 -2.38,-1.1 -5.16,-1.18 -7.64,-0.37 -2.49,0.42 -4.51,2.09 -6.3,3.76 -0.77,0.82 -1.68,1.61 -2,2.73 -0.19,0.27 -0.37,0.53 -0.55,0.81 -1.7,3.13 -1.87,7.04 -0.78,10.41 0.17,0.74 0.44,1.45 0.9,2.06 1.07,2.1 3.34,3.24 4.41,5.35 0.61,0.96 0.94,2.06 1.12,3.18 0.11,1.01 0.16,2.04 0.35,3.04l0.12 0.01c1.48,0.01 2.97,-0.05 4.46,-0.02 0.32,-2.4 -0.11,-4.82 0.02,-7.23 -0.08,-1.46 0.29,-2.95 -0.1,-4.38 -0.55,-0.79 -1,-1.64 -1.57,-2.42 -0.24,-0.36 -0.49,-0.72 -0.77,-1.05 -0.42,-0.63 -1.11,-0.97 -1.7,-1.41 -0.61,-0.44 -0.58,-1.62 0.21,-1.84 0.65,-0.16 1.32,0.03 1.96,0.14 0.21,0.08 0.42,0.16 0.62,0.24 0.59,0.5 1.14,1.04 1.67,1.61 0.18,0.36 0.35,0.72 0.54,1.08 0.2,0.46 0.43,0.92 0.7,1.35 0.36,-0.76 0.67,-1.56 1.04,-2.33 0.9,-1.24 2.18,-2.16 3.67,-2.56 0.6,0.07 1.49,-0.07 1.81,0.59 0.17,0.57 0.19,1.36 -0.37,1.71 -0.58,0.38 -1.26,0.59 -1.76,1.07 -0.61,0.55 -1.19,1.14 -1.61,1.84 -0.28,0.5 -0.58,1.01 -0.95,1.46 -0.03,0.05 -0.1,0.14 -0.13,0.19 -0.26,0.35 -0.24,0.8 -0.25,1.21 -0.04,3.57 0.11,7.14 -0.02,10.71 1.45,-0.01 2.9,-0.01 4.34,0.03 0.06,-0.69 0.15,-1.38 0.24,-2.07 0.26,0.7 0.16,1.45 -0.05,2.15 -1.08,0.5 -2.08,1.25 -3.32,1.32 -0.06,0.05 -0.12,0.1 -0.17,0.16 0.18,0.15 0.37,0.3 0.56,0.45 -0.2,0.36 -0.49,0.67 -0.91,0.75 -2.29,-0.1 -4.58,-0.03 -6.86,-0.07 -0.43,0.04 -1.01,-0.08 -1.27,0.36 0.02,0.51 0.05,1.02 0.07,1.53 0.9,0.19 1.83,0.11 2.75,0.15 2.48,0.36 5,0.12 7.5,0.15 -0.08,0.13 -0.16,0.27 -0.24,0.41 0.1,0.2 0.21,0.39 0.31,0.58 -0.41,0.62 -0.64,1.34 -1.16,1.89 -2.7,0.04 -5.4,-0.03 -8.1,-0.02 -0.9,0.01 -1.75,0.35 -2.64,0.4 -1.5,-0.45 -2.34,-2.06 -2.25,-3.56 0.02,-0.18 0.06,-0.37 0.08,-0.55 0.08,-1.41 0.06,-2.83 0.07,-4.24 0.48,-2.33 -0.76,-4.52 -2.27,-6.19 -0.94,-1 -1.89,-2.01 -2.62,-3.18 -2.22,-3.67 -2.76,-8.21 -1.89,-12.37 0.1,-0.36 0.21,-0.72 0.33,-1.08 0.35,-1.1 0.8,-2.16 1.4,-3.15 0.22,-0.41 0.46,-0.82 0.7,-1.22 1.98,-3.27 5.36,-5.47 8.9,-6.76z"/>
   </g>
   <g>
    <path class="fil1" d="M36.54 3.56c2.48,-0.81 5.26,-0.73 7.64,0.37 -1.65,-0.29 -3.29,-0.86 -4.97,-0.65 -1.46,0.15 -2.91,0.48 -4.29,0.97 -2.66,1.21 -4.88,3.27 -6.55,5.64l-0.13 0.16c0.32,-1.12 1.23,-1.91 2,-2.73 1.79,-1.67 3.81,-3.34 6.3,-3.76z"/>
   </g>
   <g>
    <path class="fil2" d="M39.21 3.28c1.68,-0.21 3.32,0.36 4.97,0.65 0.11,0.03 0.23,0.07 0.35,0.11 0.64,0.38 1.29,0.76 1.97,1.07 0.06,0.02 0.16,0.08 0.21,0.11 0.89,0.61 1.73,1.26 2.56,1.94 0.84,0.92 1.71,1.83 2.26,2.96 0.03,0.12 0.09,0.38 0.12,0.5l-0.11 -0.16c-2,-3.43 -5.5,-6.02 -9.42,-6.74 -1.75,-0.56 -3.64,-0.41 -5.36,0.17 -0.59,0.22 -1.22,0.3 -1.84,0.36 1.38,-0.49 2.83,-0.82 4.29,-0.97z"/>
    <path class="fil2" d="M41.69 31.37c1.19,-0.92 3.36,-1.35 4.14,0.28 -0.29,0.81 -0.29,1.68 -0.44,2.53 -0.03,0.25 -0.21,0.5 -0.5,0.48 -1.12,0.06 -2.24,0 -3.35,-0.01 -0.08,-1.1 0.11,-2.19 0.15,-3.28z"/>
   </g>
   <g>
    <g>
     <path class="fil3" d="M36.76 3.89c1.72,-0.58 3.61,-0.73 5.36,-0.17 3.92,0.72 7.42,3.31 9.42,6.74 0.01,0.65 0.17,1.3 0.12,1.96 -0.48,0.58 -1.43,0.7 -1.66,1.51 -0.3,0.96 -1.02,1.7 -1.75,2.34 -0.62,0.14 -1.26,-0.14 -1.88,-0.19 -0.6,-0.09 -1.22,-0.19 -1.81,0.01 -1.49,0.4 -2.77,1.32 -3.67,2.56 -0.43,0.48 -0.75,1.04 -1.05,1.6 -0.23,-0.21 -0.47,-0.41 -0.69,-0.62 -0.19,-0.36 -0.36,-0.72 -0.54,-1.08 -0.28,-0.75 -0.82,-1.49 -1.67,-1.61 -0.2,-0.08 -0.41,-0.16 -0.62,-0.24 -0.74,-0.41 -1.69,-0.62 -2.47,-0.23 -0.61,0.6 -0.49,1.81 0.25,2.26 0.58,0.37 1.19,0.68 1.75,1.08 0.28,0.33 0.53,0.69 0.77,1.05 0.18,0.96 0.91,1.65 1.29,2.51 0.28,1.05 0.1,2.15 0.08,3.22 -0.14,0.79 -0.19,1.6 -0.42,2.37 -0.18,0.46 -0.77,0.4 -1.17,0.44 -0.92,0 -1.88,0.35 -2.78,0.04 -0.68,-0.38 -1.06,-1.11 -1.59,-1.65 -1.22,-1.62 -3,-2.79 -3.98,-4.6 -1.69,-3.52 -1.96,-7.74 -0.46,-11.37 0.27,-0.64 0.59,-1.26 0.78,-1.93 1.67,-2.37 3.89,-4.43 6.55,-5.64 0.62,-0.06 1.25,-0.14 1.84,-0.36zm-2.1 3.79l0 0c-0.96,0.47 -1.78,1.19 -2.57,1.89 -0.68,0.46 -1.3,1.11 -1.51,1.93 -0.02,0.03 -0.06,0.09 -0.08,0.12 -0.47,0.28 -0.59,0.84 -0.79,1.31 -0.25,0.64 -0.63,1.28 -0.54,2 -0.19,0.8 -0.23,1.86 0.48,2.43 0.47,0.27 1.07,0.22 1.6,0.13 0.76,-0.61 0.81,-1.69 1.07,-2.56 0.04,-0.06 0.1,-0.18 0.14,-0.24 0.64,-0.66 0.88,-1.62 1.59,-2.25 0.84,-1.22 2.32,-1.75 3.18,-2.94 0.39,-0.78 -0.54,-1.4 -0.89,-2.03 -0.4,-0.72 -1.22,-0.13 -1.68,0.21z"/>
    </g>
   </g>
   <g>
    <path class="fil4" d="M44.53 4.04c0.78,0.09 1.47,0.47 1.97,1.07 -0.68,-0.31 -1.33,-0.69 -1.97,-1.07z"/>
   </g>
   <g>
    <path class="fil5" d="M46.71 5.22c1.05,0.31 2.01,0.98 2.56,1.94 -0.83,-0.68 -1.67,-1.33 -2.56,-1.94z"/>
   </g>
   <path class="fil6" d="M59.86 6.93c2.27,0.21 4.55,-0.18 6.82,-0.03 2.34,0.32 4.77,-0.26 7.05,0.53 0.45,0.16 0.98,0.3 1.22,0.77 -1.6,-0.85 -3.43,-1.02 -5.21,-0.97 -2.19,-0.22 -4.41,-0.1 -6.61,-0.11 -1.81,0.06 -3.63,-0.08 -5.44,0.09 -0.25,0.01 -0.5,0.04 -0.75,0.07 -0.88,-0.03 -1.76,-0.04 -2.63,-0.1 1.82,-0.36 3.7,-0.06 5.55,-0.25z"/>
   <path class="fil6" d="M7.32 11.54c0.41,-0.06 0.82,-0.14 1.24,-0.15 4.02,0.06 8.05,0.08 12.07,0.03 -0.03,0.05 -0.1,0.15 -0.13,0.19 -3.54,0.11 -7.09,0.04 -10.63,0.03 -0.77,0.06 -1.75,-0.3 -2.32,0.38l-0.01 0.1c-0.08,-0.19 -0.15,-0.39 -0.22,-0.58z"/>
   <path class="fil6" d="M79.4 15.47c0.04,-0.07 0.12,-0.2 0.16,-0.27 0.22,2.34 0.05,4.71 0.11,7.06 -0.04,0.61 0.13,1.26 -0.13,1.84l-0.08 0.2c0.01,-2.94 0.01,-5.89 -0.06,-8.83z"/>
   <path class="fil6" d="M4.64 15.46c0.79,0.33 1.28,1.06 1.83,1.68 -0.59,-0.37 -1.05,-0.9 -1.65,-1.25 -0.07,2.67 0.02,5.34 -0.02,8.01l-0.17 0.01c-0.11,-2.81 -0.06,-5.63 0.01,-8.45z"/>
   <path class="fil6" d="M63.01 20.53c0.66,-0.63 1.22,-1.4 2.08,-1.8 -2.38,2.44 -4.85,4.8 -7.27,7.21 -0.6,0.57 -1.16,1.18 -1.74,1.77 -0.22,0.22 -0.45,0.42 -0.67,0.63 0.16,-0.33 0.32,-0.69 0.59,-0.95 1.24,-1.19 2.39,-2.47 3.67,-3.62 1.18,-1.01 2.24,-2.15 3.34,-3.24z"/>
   <path class="fil6" d="M22.01 47.2c2.39,-2.35 4.77,-4.7 7.13,-7.07 -0.18,0.33 -0.34,0.67 -0.6,0.94 -1.87,1.83 -3.72,3.68 -5.55,5.55 -0.27,0.28 -0.63,0.42 -0.98,0.58z"/>
   <path class="fil6" d="M60.95 50.85c-0.22,-0.23 -0.38,-0.5 -0.55,-0.77 0.16,0.14 0.34,0.27 0.51,0.41 0.18,0.19 0.37,0.38 0.58,0.54 0.03,0.03 0.1,0.08 0.13,0.11 0.72,0.78 1.48,1.53 2.25,2.25 0.02,0.03 0.06,0.09 0.08,0.12 0.11,0.21 0.29,0.36 0.5,0.46 0.02,0.02 0.08,0.05 0.1,0.07 0.02,0.2 0.13,0.33 0.33,0.38 1.03,1.07 2.06,2.13 3.15,3.14 0.71,0.75 1.47,1.46 2.17,2.23 -0.86,-0.4 -1.42,-1.17 -2.08,-1.81 -2.39,-2.37 -4.77,-4.76 -7.17,-7.13z"/>
   <path class="fil6" d="M8.43 60.52c1.4,-0.97 2.37,-2.41 3.63,-3.54 0.08,-0.01 0.24,-0.01 0.33,-0.01 -1.58,1.35 -2.67,3.25 -4.56,4.21l-0.11 -0.05c0.23,-0.21 0.46,-0.42 0.71,-0.61z"/>
   <g>
    <path class="fil7" d="M34.66 7.68c0.46,-0.34 1.28,-0.93 1.68,-0.21 0.35,0.63 1.28,1.25 0.89,2.03 -0.86,1.19 -2.34,1.72 -3.18,2.94 -0.71,0.63 -0.95,1.59 -1.59,2.25 0.65,-1.8 2.04,-3.25 3.61,-4.3 0.41,-0.33 0.91,-0.69 1.02,-1.23 -0.14,-0.69 -0.59,-1.31 -1.15,-1.72 -0.44,-0.03 -0.87,0.12 -1.28,0.24z"/>
   </g>
   <g>
    <path class="fil8" d="M53.46 7.17c0.28,0 0.56,0.01 0.85,0.01 0.87,0.06 1.75,0.07 2.63,0.1l-0.2 0.09c-0.87,0.14 -1.76,0 -2.62,0.22 0.38,0.92 0.86,1.78 1.31,2.66 0.23,0.39 0.48,0.9 1,0.89 1.32,0.08 2.65,0.02 3.94,0.3 -1.59,0.02 -3.19,-0.03 -4.79,-0.03 -0.39,-1.54 -1.31,-2.88 -2.12,-4.24z"/>
   </g>
   <g>
    <path class="fil9" d="M57.69 7.21c1.81,-0.17 3.63,-0.03 5.44,-0.09 2.2,0.01 4.42,-0.11 6.61,0.11 -4.01,-0.03 -8.03,0.05 -12.05,-0.02z"/>
   </g>
   <g>
    <path class="fil10" d="M7.51 7.34c4.96,-0.22 9.94,-0.04 14.9,-0.16l-0.02 0.12c-0.07,0.46 -0.25,0.9 -0.52,1.29 0.09,-0.39 0.16,-0.78 0.22,-1.17 -0.56,-0.04 -1.12,-0.05 -1.68,-0.01 -4.3,-0.01 -8.61,0.11 -12.9,-0.07z"/>
   </g>
   <path class="fil11" d="M56.94 7.28c0.25,-0.03 0.5,-0.06 0.75,-0.07 4.02,0.07 8.04,-0.01 12.05,0.02 1.78,-0.05 3.61,0.12 5.21,0.97 2.61,1.44 4.24,4.33 4.45,7.27 0.07,2.94 0.07,5.89 0.06,8.83l-0.04 -0.18c-0.36,-2.3 -0.1,-4.65 -0.18,-6.96 0.07,-2.72 -0.75,-5.63 -2.82,-7.49 -0.39,-0.4 -0.85,-0.72 -1.31,-1.02 -1.38,-0.93 -3.05,-1.27 -4.69,-1.29 -3.83,-0.05 -7.67,-0.04 -11.5,0 -0.6,0.03 -1.2,0.09 -1.8,0.05 -0.09,-0.01 -0.29,-0.03 -0.38,-0.04l0.2 -0.09z"/>
   <path class="fil11" d="M75.02 15.82c0.28,1.26 0.02,2.54 0.07,3.82 0.03,1.46 0.11,2.92 0.02,4.38l-0.18 -0.01c0,-0.09 0,-0.27 0,-0.36 0.11,-2.48 0.01,-4.96 0.05,-7.44 0.01,-0.1 0.03,-0.29 0.04,-0.39z"/>
   <path class="fil11" d="M57.74 47.39c0.99,0.63 1.82,1.51 2.5,2.47 -0.37,-0.35 -0.74,-0.7 -1.11,-1.04 -0.46,-0.48 -0.92,-0.96 -1.39,-1.43z"/>
   <path class="fil11" d="M62.9 62.03c0.47,-0.01 0.95,-0.01 1.43,-0.01 -0.51,0.25 -1.24,0.61 -1.07,1.31 0.23,0.94 0.2,1.92 0.36,2.87 -1.09,0.02 -2.18,0.03 -3.26,-0.03 0.76,-0.64 1.95,-0.15 2.63,-0.88 0.08,-1.54 -1.72,-1.61 -2.52,-2.51 0.84,-0.17 1.65,-0.4 2.43,-0.75z"/>
   <g>
    <path class="fil12" d="M1.12 11.96c1.18,-2.44 3.6,-4.23 6.28,-4.61 -1.94,0.71 -3.94,1.58 -5.2,3.3 -0.84,1.35 -1.66,2.83 -1.69,4.46 -0.11,1.53 -0.11,3.07 0.03,4.6 -0.09,1.06 -0.02,2.14 -0.3,3.17 0.08,-2.51 0.08,-5.02 0.01,-7.53 0.08,-1.17 0.33,-2.33 0.87,-3.39z"/>
   </g>
   <g>
    <path class="fil13" d="M7.4 7.35l0.11 -0.01c4.29,0.18 8.6,0.06 12.9,0.07 -3.7,0.36 -7.42,0.22 -11.13,0.26 -0.82,-0.1 -1.39,0.47 -1.89,1.02 -1.07,0.61 -2.04,1.39 -3.09,2.04 -0.97,0.57 -1.17,1.8 -1.94,2.56 -0.44,0.39 -0.54,0.98 -0.7,1.52 -0.12,0.37 -0.58,0.54 -0.69,0.89 0.18,1.34 0.08,2.75 -0.43,4.01 -0.14,-1.53 -0.14,-3.07 -0.03,-4.6 0.03,-1.63 0.85,-3.11 1.69,-4.46 1.26,-1.72 3.26,-2.59 5.2,-3.3z"/>
   </g>
   <g>
    <path class="fil14" d="M20.41 7.41c0.56,-0.04 1.12,-0.03 1.68,0.01 -0.06,0.39 -0.13,0.78 -0.22,1.17 -0.46,0.63 -0.89,1.31 -1.03,2.1 -0.03,-0.08 -0.1,-0.25 -0.13,-0.33 0.09,-0.65 0.24,-1.3 0.39,-1.94 -1.3,-0.19 -2.55,0.23 -3.77,0.59 -1.21,0.07 -2.29,0.72 -3.52,0.68 -1.13,0.31 -2.37,0.07 -3.41,0.65 -0.71,0.18 -1.45,0.09 -2.16,0.28 0.83,0.47 1.81,0.43 2.71,0.66 -1.2,0.12 -2.46,-0.18 -3.63,0.26 0.07,0.19 0.14,0.39 0.22,0.58 0.04,0.11 0.1,0.21 0.16,0.32 -0.33,-0.02 -0.67,-0.06 -1,-0.02 -0.53,0.71 -0.64,1.62 -0.75,2.48 -0.16,0.13 -0.34,0.23 -0.51,0.34 0.89,0.79 1.59,1.78 2.24,2.77 -1.27,-0.6 -1.66,-2.38 -3.12,-2.59 -0.06,0.79 -0.12,1.58 -0.15,2.38 -0.27,-0.94 -0.28,-1.91 -0.28,-2.87 -1.08,0.88 -0.53,2.42 -1.37,3.41 -0.67,0.85 -0.66,2.17 -1.73,2.69 -0.15,1.01 -0.32,2.16 0.53,2.93 -0.57,-0.02 -1.53,0.02 -1.37,-0.82 0.01,-0.06 0.04,-0.19 0.05,-0.26 0.28,-1.03 0.21,-2.11 0.3,-3.17 0.51,-1.26 0.61,-2.67 0.43,-4.01 0.11,-0.35 0.57,-0.52 0.69,-0.89 0.16,-0.54 0.26,-1.13 0.7,-1.52 0.77,-0.76 0.97,-1.99 1.94,-2.56 1.05,-0.65 2.02,-1.43 3.09,-2.04 0.5,-0.55 1.07,-1.12 1.89,-1.02 3.71,-0.04 7.43,0.1 11.13,-0.26z"/>
   </g>
   <g>
    <path class="fil15" d="M34.66 7.68c0.41,-0.12 0.84,-0.27 1.28,-0.24 0.56,0.41 1.01,1.03 1.15,1.72 -0.11,0.54 -0.61,0.9 -1.02,1.23 -1.57,1.05 -2.96,2.5 -3.61,4.3 -0.04,0.06 -0.1,0.18 -0.14,0.24 -0.42,0.58 -0.5,1.32 -0.83,1.95 -0.49,0.67 -1.59,0.4 -2.05,-0.18 -0.32,-0.58 -0.21,-1.29 -0.22,-1.93 0.43,-1.05 0.8,-2.12 1.28,-3.15 0.02,-0.03 0.06,-0.09 0.08,-0.12 0.53,-0.63 1.01,-1.29 1.51,-1.93 0.79,-0.7 1.61,-1.42 2.57,-1.89z"/>
   </g>
   <g>
    <path class="fil16" d="M54.12 7.59c0.86,-0.22 1.75,-0.08 2.62,-0.22 0.09,0.01 0.29,0.03 0.38,0.04 -0.01,0.7 0.04,1.51 0.63,1.99 1.43,1.08 3.1,2.09 4.97,1.9 3.01,0.07 6.03,0.11 9.03,-0.19 0.03,0.06 0.09,0.19 0.12,0.25 -3.8,0.2 -7.59,0.01 -11.39,0.09l-0.11 -0.01c-1.29,-0.28 -2.62,-0.22 -3.94,-0.3 -0.52,0.01 -0.77,-0.5 -1,-0.89 -0.45,-0.88 -0.93,-1.74 -1.31,-2.66z"/>
   </g>
   <g>
    <path class="fil17" d="M57.12 7.41c0.6,0.04 1.2,-0.02 1.8,-0.05 -0.25,0.15 -0.5,0.31 -0.74,0.48 0.78,1.11 1.91,1.88 2.98,2.68 0.47,0.35 0.98,0.66 1.56,0.78 -1.87,0.19 -3.54,-0.82 -4.97,-1.9 -0.59,-0.48 -0.64,-1.29 -0.63,-1.99z"/>
    <path class="fil17" d="M20.71 10.36c0.03,0.08 0.1,0.25 0.13,0.33 -0.02,0.16 -0.06,0.31 -0.09,0.46 -0.03,0.07 -0.09,0.2 -0.12,0.27 -4.02,0.05 -8.05,0.03 -12.07,-0.03 -0.42,0.01 -0.83,0.09 -1.24,0.15 1.17,-0.44 2.43,-0.14 3.63,-0.26 3.18,0.06 6.36,0.04 9.53,-0.02 0.08,-0.3 0.16,-0.6 0.23,-0.9z"/>
   </g>
   <g>
    <path class="fil18" d="M58.92 7.36c3.83,-0.04 7.67,-0.05 11.5,0 1.64,0.02 3.31,0.36 4.69,1.29 -0.07,0.23 -0.14,0.46 -0.21,0.7 0.16,0.27 0.41,0.51 0.44,0.84 -0.24,0.16 -0.51,0.28 -0.77,0.4 0.66,0.49 0.31,1.33 0.29,2.01 -0.06,0.58 0.25,1.12 0.28,1.7 -0.26,0.38 -0.57,0.74 -0.72,1.18 -0.28,0.21 -0.53,0.43 -0.75,0.69 -0.77,-0.87 0.08,-1.92 -0.21,-2.89 -0.18,-0.48 -0.55,-0.85 -0.87,-1.24 -0.34,0.08 -0.69,0.16 -1.03,0.24l0.04 -0.11c0.11,-0.22 0.22,-0.44 0.32,-0.67l-0.05 -0.14c-0.03,-0.06 -0.09,-0.19 -0.12,-0.25 -3,0.3 -6.02,0.26 -9.03,0.19 -0.58,-0.12 -1.09,-0.43 -1.56,-0.78 -1.07,-0.8 -2.2,-1.57 -2.98,-2.68 0.24,-0.17 0.49,-0.33 0.74,-0.48z"/>
   </g>
   <g>
    <path class="fil19" d="M17.33 9.01c1.22,-0.36 2.47,-0.78 3.77,-0.59 -0.15,0.64 -0.3,1.29 -0.39,1.94 -0.07,0.3 -0.15,0.6 -0.23,0.9 -3.17,0.06 -6.35,0.08 -9.53,0.02 -0.9,-0.23 -1.88,-0.19 -2.71,-0.66 0.71,-0.19 1.45,-0.1 2.16,-0.28 1.04,-0.58 2.28,-0.34 3.41,-0.65 1.23,0.04 2.31,-0.61 3.52,-0.68z"/>
    <path class="fil19" d="M30.23 34.7l0 -0.01c-0.01,1.41 0.01,2.83 -0.07,4.24 0.02,-1.41 0.01,-2.82 0.07,-4.23z"/>
   </g>
   <g>
    <path class="fil20" d="M75.11 8.65c0.46,0.3 0.92,0.62 1.31,1.02 0.27,0.8 0.86,1.44 1.17,2.22 0.04,0.86 -0.3,1.68 -0.64,2.45 -0.42,0.99 -1.67,0.86 -2.53,1.14 0.15,-0.44 0.46,-0.8 0.72,-1.18 -0.03,-0.58 -0.34,-1.12 -0.28,-1.7 0.02,-0.68 0.37,-1.52 -0.29,-2.01 0.26,-0.12 0.53,-0.24 0.77,-0.4 -0.03,-0.33 -0.28,-0.57 -0.44,-0.84 0.07,-0.24 0.14,-0.47 0.21,-0.7z"/>
   </g>
   <g>
    <path class="fil21" d="M30.58 11.5c0.21,-0.82 0.83,-1.47 1.51,-1.93 -0.5,0.64 -0.98,1.3 -1.51,1.93z"/>
   </g>
   <path class="fil20" d="M76.42 9.67c2.07,1.86 2.89,4.77 2.82,7.49 0.08,2.31 -0.18,4.66 0.18,6.96 -0.56,-0.01 -1.11,-0.01 -1.67,-0.02 -0.74,-0.02 -1.48,-0.03 -2.22,-0.06 -0.1,-0.01 -0.31,-0.02 -0.42,-0.02 0.09,-1.46 0.01,-2.92 -0.02,-4.38 -0.05,-1.28 0.21,-2.56 -0.07,-3.82 -0.09,-0.03 -0.28,-0.1 -0.37,-0.14 -0.16,0.13 -0.31,0.26 -0.45,0.39 -0.17,0.11 -0.34,0.23 -0.51,0.34l-0.23 0.09c0.05,-0.08 0.15,-0.25 0.21,-0.33 0.22,-0.26 0.47,-0.48 0.75,-0.69 0.86,-0.28 2.11,-0.15 2.53,-1.14 0.34,-0.77 0.68,-1.59 0.64,-2.45 -0.31,-0.78 -0.9,-1.42 -1.17,-2.22z"/>
   <g>
    <path class="fil22" d="M28.24 10.05l0.13 -0.16c-0.19,0.67 -0.51,1.29 -0.78,1.93 -1.5,3.63 -1.23,7.85 0.46,11.37 0.98,1.81 2.76,2.98 3.98,4.6 0.42,0.94 1.06,1.78 1.32,2.79 0.38,1.32 0.51,2.69 0.64,4.06 1.33,0.14 2.67,0.09 4,-0.01 0.18,-2.67 0.04,-5.36 0,-8.04 0.02,-1.07 0.2,-2.17 -0.08,-3.22 -0.38,-0.86 -1.11,-1.55 -1.29,-2.51 0.57,0.78 1.02,1.63 1.57,2.42 0,3.87 -0.06,7.74 0.08,11.61 -1.49,-0.03 -2.98,0.03 -4.46,0.02 -0.08,-1.03 -0.18,-2.06 -0.47,-3.05 -0.18,-1.12 -0.51,-2.22 -1.12,-3.18 -1.07,-2.11 -3.34,-3.25 -4.41,-5.35 -0.93,-2.32 -1.54,-4.83 -1.35,-7.34 0.09,-1.77 0.65,-3.47 1.23,-5.13 0.18,-0.28 0.36,-0.54 0.55,-0.81z"/>
   </g>
   <g>
    <path class="fil23" d="M51.53 10.12c0.5,0.61 0.84,1.33 0.95,2.12 -0.26,-0.55 -0.52,-1.1 -0.83,-1.62 -0.03,-0.12 -0.09,-0.38 -0.12,-0.5z"/>
   </g>
   <g>
    <path class="fil24" d="M51.54 10.46l0.11 0.16c0.31,0.52 0.57,1.07 0.83,1.62 0.24,0.76 0.46,1.52 0.58,2.31 -0.08,-0.1 -0.17,-0.21 -0.25,-0.31 0.1,0.64 0.04,1.3 -0.47,1.76 -0.5,0.53 0.77,0.78 0.34,1.35 -0.33,0.38 -0.92,0.23 -1.34,0.09 -0.04,0.16 -0.07,0.31 -0.1,0.47 -0.78,-0.18 -1.48,0.34 -2.14,0.68 -0.52,0.26 -0.16,0.91 -0.12,1.35 -0.85,0.48 -1.48,1.24 -2.12,1.95 -0.63,0.78 -1.73,0.78 -2.6,1.11 -0.53,-0.33 -1.15,-0.46 -1.76,-0.53 0.06,-0.39 0.11,-0.78 0.13,-1.17 0.42,-0.7 1,-1.29 1.61,-1.84 0.75,-0.37 1.64,-0.54 2.26,-1.14 0.51,-0.66 0.28,-1.58 -0.13,-2.24 0.62,0.05 1.26,0.33 1.88,0.19 0.73,-0.64 1.45,-1.38 1.75,-2.34 0.23,-0.81 1.18,-0.93 1.66,-1.51 0.05,-0.66 -0.11,-1.31 -0.12,-1.96z"/>
   </g>
   <g>
    <path class="fil25" d="M26.91 21.27c-1.09,-3.37 -0.92,-7.28 0.78,-10.41 -0.58,1.66 -1.14,3.36 -1.23,5.13 -0.19,2.51 0.42,5.02 1.35,7.34 -0.46,-0.61 -0.73,-1.32 -0.9,-2.06z"/>
   </g>
   <g>
    <path class="fil26" d="M60.48 11.45c3.8,-0.08 7.59,0.11 11.39,-0.09l0.05 0.14c-2.93,0.2 -5.86,0.18 -8.79,0.13 -0.89,0.01 -1.78,-0.01 -2.65,-0.18z"/>
   </g>
   <g>
    <path class="fil27" d="M29.71 12.93c0.2,-0.47 0.32,-1.03 0.79,-1.31 -0.48,1.03 -0.85,2.1 -1.28,3.15l-0.05 0.16c-0.09,-0.72 0.29,-1.36 0.54,-2z"/>
   </g>
   <g>
    <path class="fil28" d="M7.54 12.12l0.01 -0.1c6.58,6.71 13.3,13.27 19.94,19.92 0.75,0.76 1.43,1.62 2.33,2.22 0.14,0.17 0.28,0.35 0.41,0.54 -0.06,1.41 -0.05,2.82 -0.07,4.23 -0.02,0.18 -0.06,0.37 -0.08,0.55 -0.34,0.18 -0.68,0.37 -0.94,0.65 -2.36,2.37 -4.74,4.72 -7.13,7.07 -2.7,2.68 -5.38,5.39 -8.17,7.99 0.22,-0.34 0.42,-0.69 0.67,-1 5.19,-4.87 10.2,-9.95 15.25,-14.96 0.37,-0.72 0.13,-1.59 0.2,-2.38 -0.06,-0.79 0.2,-1.72 -0.32,-2.4 -2.19,-2.09 -4.16,-4.41 -6.44,-6.42 -1.41,-1.66 -3.04,-3.11 -4.59,-4.64 -2.28,-2.25 -4.59,-4.47 -6.81,-6.79 -1.35,-1.4 -2.75,-2.76 -4.1,-4.16 -0.06,-0.11 -0.12,-0.21 -0.16,-0.32z"/>
    <path class="fil28" d="M4.56 15.42c1.46,0.21 1.85,1.99 3.12,2.59 0.87,1.09 2.25,1.71 2.91,2.98 -0.59,-0.63 -1.2,-1.23 -1.87,-1.76 -0.73,-0.72 -1.53,-1.37 -2.25,-2.09 -0.55,-0.62 -1.04,-1.35 -1.83,-1.68 -0.07,2.82 -0.12,5.64 -0.01,8.45 -0.6,0.03 -1.2,0 -1.8,0.01 0.58,-0.15 1.77,0.13 1.67,-0.77 -0.14,-1.78 -0.09,-3.57 -0.09,-5.35 0.03,-0.8 0.09,-1.59 0.15,-2.38z"/>
    <path class="fil28" d="M71.17 18.85c0.54,-0.98 1.44,-1.66 2.29,-2.35l0.23 -0.09c-0.81,0.84 -1.65,1.65 -2.52,2.44z"/>
    <path class="fil28" d="M66.66 23.2c0.89,-1.12 1.88,-2.21 3.09,-2.99 -0.91,0.94 -1.87,1.83 -2.79,2.76 -0.1,0.07 -0.2,0.15 -0.3,0.23z"/>
    <path class="fil28" d="M78.19 60.9c0.22,-0.59 0.49,-1.18 0.95,-1.63 -0.06,0.22 -0.11,0.45 -0.17,0.67 -0.77,2.04 -2.13,3.85 -4,5.01 -1.77,1.14 -3.9,1.36 -5.96,1.26 -1.8,-0.04 -3.59,-0.03 -5.39,-0.01 -0.16,-0.95 -0.13,-1.93 -0.36,-2.87 -0.17,-0.7 0.56,-1.06 1.07,-1.31 0.59,-0.01 1.19,0 1.78,0 -0.45,0.28 -0.98,0.4 -1.51,0.48 0.36,1 0.8,2.06 0.36,3.12 1.05,0.38 2.17,0.45 3.28,0.39 1.55,-0.09 3.18,0.19 4.67,-0.41 2.21,-0.91 4.37,-2.39 5.28,-4.7z"/>
   </g>
   <g>
    <path class="fil20" d="M71.56 12.28c0.34,-0.08 0.69,-0.16 1.03,-0.24 0.32,0.39 0.69,0.76 0.87,1.24 0.29,0.97 -0.56,2.02 0.21,2.89 -0.06,0.08 -0.16,0.25 -0.21,0.33 -0.85,0.69 -1.75,1.37 -2.29,2.35 -0.46,0.46 -0.93,0.92 -1.42,1.36 -1.21,0.78 -2.2,1.87 -3.09,2.99 -1.27,1.36 -2.69,2.56 -4.01,3.87 -0.93,0.3 -1.56,1.19 -2.55,1.34 -1.18,0.05 -2.32,-0.38 -3.51,-0.36 0.32,-0.6 0.71,-1.16 1.21,-1.62 1.11,-0.67 2.61,-0.74 3.34,-1.95 0.81,-1.25 2.42,-1.37 3.41,-2.38 1.26,-0.87 2,-2.32 3.36,-3.07 1.21,-1.26 2.18,-2.72 3.12,-4.19 0.51,-0.76 0.22,-1.73 0.53,-2.56z"/>
   </g>
   <g>
    <path class="fil29" d="M70.86 12.98c0.24,-0.27 0.5,-0.53 0.74,-0.81l-0.04 0.11c-0.31,0.83 -0.02,1.8 -0.53,2.56 -0.94,1.47 -1.91,2.93 -3.12,4.19 -1.36,0.75 -2.1,2.2 -3.36,3.07 -0.99,1.01 -2.6,1.13 -3.41,2.38 -0.73,1.21 -2.23,1.28 -3.34,1.95 0.13,-0.19 0.26,-0.39 0.39,-0.59 4.15,-3.84 8.01,-7.98 12.08,-11.91 0.26,-0.27 0.41,-0.62 0.59,-0.95z"/>
   </g>
   <g>
    <path class="fil30" d="M6.7 12.42c0.33,-0.04 0.67,0 1,0.02 1.35,1.4 2.75,2.76 4.1,4.16 -0.25,0.14 -0.5,0.29 -0.74,0.43 0.66,0.55 1.21,1.21 1.62,1.96 0.39,0.83 1.51,1.02 1.67,2.01 -0.28,0.04 -0.56,0.1 -0.84,0.15 0.37,0.46 0.8,0.86 1.16,1.32 -0.26,0.38 -0.56,0.75 -0.65,1.21 0.63,0.65 1.16,1.39 1.7,2.11 -0.08,0 -0.25,0.01 -0.33,0.01 0.04,-0.22 -0.07,-0.34 -0.31,-0.35 -0.57,-0.47 -1.09,-1 -1.57,-1.55 -0.48,-0.7 -1.06,-1.32 -1.78,-1.77 -0.42,-0.34 -0.81,-0.71 -1.14,-1.14 -0.66,-1.27 -2.04,-1.89 -2.91,-2.98 -0.65,-0.99 -1.35,-1.98 -2.24,-2.77 0.17,-0.11 0.35,-0.21 0.51,-0.34 0.11,-0.86 0.22,-1.77 0.75,-2.48z"/>
   </g>
   <g>
    <path class="fil31" d="M65.09 18.73c1.94,-1.9 3.8,-3.87 5.77,-5.75 -0.18,0.33 -0.33,0.68 -0.59,0.95 -4.07,3.93 -7.93,8.07 -12.08,11.91 -0.09,0.03 -0.28,0.07 -0.37,0.1 2.42,-2.41 4.89,-4.77 7.27,-7.21z"/>
   </g>
   <g>
    <path class="fil32" d="M52.81 14.24c0.08,0.1 0.17,0.21 0.25,0.31 0.01,0.06 0.03,0.18 0.04,0.24 -0.01,1.1 -0.09,2.21 0.03,3.31 -0.02,0.2 -0.04,0.4 -0.07,0.61 -0.36,1.54 -0.73,3.07 -1.43,4.51 -0.14,0.2 -0.28,0.41 -0.42,0.61 -0.61,0.4 -1.25,1.04 -2.04,0.7 0.05,0.25 0.11,0.5 0.14,0.76 -1.25,0.52 -2.51,1.06 -3.85,1.32 -0.48,0.14 -0.83,-0.27 -1.19,-0.51 -0.6,-0.47 -1.35,-0.66 -2.07,-0.86 -0.33,-0.78 -0.51,-1.63 -0.52,-2.48 0.37,-0.45 0.67,-0.96 0.95,-1.46 -0.02,0.39 -0.07,0.78 -0.13,1.17 0.61,0.07 1.23,0.2 1.76,0.53 0.87,-0.33 1.97,-0.33 2.6,-1.11 0.64,-0.71 1.27,-1.47 2.12,-1.95 -0.04,-0.44 -0.4,-1.09 0.12,-1.35 0.66,-0.34 1.36,-0.86 2.14,-0.68 0.03,-0.16 0.06,-0.31 0.1,-0.47 0.42,0.14 1.01,0.29 1.34,-0.09 0.43,-0.57 -0.84,-0.82 -0.34,-1.35 0.51,-0.46 0.57,-1.12 0.47,-1.76z"/>
   </g>
   <g>
    <path class="fil33" d="M29.17 14.93l0.05 -0.16c0.01,0.64 -0.1,1.35 0.22,1.93 0.46,0.58 1.56,0.85 2.05,0.18 0.33,-0.63 0.41,-1.37 0.83,-1.95 -0.26,0.87 -0.31,1.95 -1.07,2.56 -0.53,0.09 -1.13,0.14 -1.6,-0.13 -0.71,-0.57 -0.67,-1.63 -0.48,-2.43z"/>
   </g>
   <g>
    <path class="fil34" d="M53.1 14.79c0.21,1.09 0.23,2.21 0.03,3.31 -0.12,-1.1 -0.04,-2.21 -0.03,-3.31z"/>
   </g>
   <g>
    <path class="fil35" d="M2.76 18.34c0.84,-0.99 0.29,-2.53 1.37,-3.41 0,0.96 0.01,1.93 0.28,2.87 0,1.78 -0.05,3.57 0.09,5.35 0.1,0.9 -1.09,0.62 -1.67,0.77 -0.42,0.02 -0.85,0.04 -1.27,0.04 -0.85,-0.77 -0.68,-1.92 -0.53,-2.93 1.07,-0.52 1.06,-1.84 1.73,-2.69z"/>
   </g>
   <g>
    <path class="fil36" d="M0.08 20.22c0.07,-1.62 -0.17,-3.27 0.17,-4.87 0.07,2.51 0.07,5.02 -0.01,7.53 -0.01,0.07 -0.04,0.2 -0.05,0.26 -0.05,0.21 -0.11,0.42 -0.16,0.62 -0.09,-1.18 0.08,-2.36 0.05,-3.54z"/>
   </g>
   <g>
    <path class="fil37" d="M44.56 16.09c0.59,-0.2 1.21,-0.1 1.81,-0.01 0.41,0.66 0.64,1.58 0.13,2.24 -0.62,0.6 -1.51,0.77 -2.26,1.14 0.5,-0.48 1.18,-0.69 1.76,-1.07 0.56,-0.35 0.54,-1.14 0.37,-1.71 -0.32,-0.66 -1.21,-0.52 -1.81,-0.59z"/>
   </g>
   <g>
    <path class="fil38" d="M73.69 16.41c0.17,-0.11 0.34,-0.23 0.51,-0.34 -1.57,2.02 -3.68,3.54 -5.41,5.43 -0.55,0.56 -1.06,1.2 -1.83,1.47 0.92,-0.93 1.88,-1.82 2.79,-2.76 0.49,-0.44 0.96,-0.9 1.42,-1.36 0.87,-0.79 1.71,-1.6 2.52,-2.44z"/>
   </g>
   <g>
    <path class="fil39" d="M33.85 16.47c0.78,-0.39 1.73,-0.18 2.47,0.23 -0.64,-0.11 -1.31,-0.3 -1.96,-0.14 -0.79,0.22 -0.82,1.4 -0.21,1.84 0.59,0.44 1.28,0.78 1.7,1.41 -0.56,-0.4 -1.17,-0.71 -1.75,-1.08 -0.74,-0.45 -0.86,-1.66 -0.25,-2.26z"/>
   </g>
   <g>
    <path class="fil40" d="M74.78 20.07c0.03,-1.29 -0.16,-2.6 0.2,-3.86 -0.04,2.48 0.06,4.96 -0.05,7.44 -0.31,-1.18 -0.13,-2.39 -0.15,-3.58z"/>
   </g>
   <g>
    <path class="fil41" d="M11.06 17.03c0.24,-0.14 0.49,-0.29 0.74,-0.43 2.22,2.32 4.53,4.54 6.81,6.79 -0.31,0.06 -0.62,0.12 -0.93,0.18 0.09,0.52 0.45,0.9 0.86,1.2 -0.08,0.16 -0.16,0.32 -0.24,0.48 0.47,0.51 0.93,1.02 1.39,1.52 -0.42,-0.1 -0.84,-0.2 -1.23,-0.39 -0.03,0.64 -0.13,1.27 -0.31,1.89 -0.79,-0.85 -1.68,-1.6 -2.43,-2.48 -0.54,-0.72 -1.07,-1.46 -1.7,-2.11 0.09,-0.46 0.39,-0.83 0.65,-1.21 -0.36,-0.46 -0.79,-0.86 -1.16,-1.32 0.28,-0.05 0.56,-0.11 0.84,-0.15 -0.16,-0.99 -1.28,-1.18 -1.67,-2.01 -0.41,-0.75 -0.96,-1.41 -1.62,-1.96z"/>
   </g>
   <g>
    <path class="fil42" d="M36.94 16.94c0.85,0.12 1.39,0.86 1.67,1.61 -0.53,-0.57 -1.08,-1.11 -1.67,-1.61z"/>
   </g>
   <g>
    <path class="fil43" d="M39.84 20.25c0.3,-0.56 0.62,-1.12 1.05,-1.6 -0.37,0.77 -0.68,1.57 -1.04,2.33 -0.27,-0.43 -0.5,-0.89 -0.7,-1.35 0.22,0.21 0.46,0.41 0.69,0.62z"/>
   </g>
   <g>
    <path class="fil44" d="M51.63 23.22c0.7,-1.44 1.07,-2.97 1.43,-4.51 -0.1,1.57 -0.45,3.23 -1.43,4.51z"/>
   </g>
   <g>
    <path class="fil45" d="M8.72 19.23c0.67,0.53 1.28,1.13 1.87,1.76 0.33,0.43 0.72,0.8 1.14,1.14 0.61,0.57 1.19,1.17 1.78,1.77 0.48,0.55 1,1.08 1.57,1.55 0.03,0.18 0.14,0.3 0.31,0.35 1.17,1.23 2.43,2.38 3.59,3.62 -0.52,-0.26 -0.97,-0.62 -1.35,-1.06 -2.53,-2.52 -5.06,-5.05 -7.58,-7.59 -0.51,-0.45 -1.04,-0.91 -1.33,-1.54z"/>
   </g>
   <g>
    <path class="fil46" d="M11.73 22.13c0.72,0.45 1.3,1.07 1.78,1.77 -0.59,-0.6 -1.17,-1.2 -1.78,-1.77z"/>
    <path class="fil46" d="M60.85 62.01c0.68,-0.01 1.37,0.02 2.05,0.02 -0.78,0.35 -1.59,0.58 -2.43,0.75 0.8,0.9 2.6,0.97 2.52,2.51 -0.68,0.73 -1.87,0.24 -2.63,0.88l-0.14 0.01 -0.15 0c0.49,-0.54 1.2,-0.74 1.89,-0.92 -0.95,-0.72 -1.99,-1.31 -2.78,-2.21 0.46,-0.49 1.05,-0.81 1.67,-1.04z"/>
   </g>
   <g>
    <path class="fil47" d="M41.55 22.95c0.03,-0.05 0.1,-0.14 0.13,-0.19 0.01,0.85 0.19,1.7 0.52,2.48 0.72,0.2 1.47,0.39 2.07,0.86 0.36,0.24 0.71,0.65 1.19,0.51 1.34,-0.26 2.6,-0.8 3.85,-1.32 -0.03,-0.26 -0.09,-0.51 -0.14,-0.76 0.79,0.34 1.43,-0.3 2.04,-0.7 -1.09,1.7 -2.71,2.96 -3.77,4.69 -0.48,0.38 -0.85,0.9 -1.03,1.49 -0.2,-0.37 -0.4,-0.73 -0.61,-1.09 -1.32,0.5 -2.48,-0.85 -3.81,-0.29 -0.14,-0.33 -0.29,-0.66 -0.41,-1.01 -0.05,-1.55 -0.01,-3.11 -0.03,-4.67z"/>
   </g>
   <g>
    <path class="fil48" d="M41.3 24.16c0.01,-0.41 -0.01,-0.86 0.25,-1.21 0.02,1.56 -0.02,3.12 0.03,4.67 -0.06,1.25 0.02,2.5 0.11,3.75 -0.04,1.09 -0.23,2.18 -0.15,3.28 1.11,0.01 2.23,0.07 3.35,0.01 0.29,0.02 0.47,-0.23 0.5,-0.48 0.15,-0.85 0.15,-1.72 0.44,-2.53 0.19,-0.55 0.38,-1.1 0.58,-1.64 0.18,-0.59 0.55,-1.11 1.03,-1.49 -0.53,0.91 -1.05,1.86 -1.28,2.91 -0.13,0.46 -0.25,0.92 -0.3,1.4 -0.09,0.69 -0.18,1.38 -0.24,2.07 -1.44,-0.04 -2.89,-0.04 -4.34,-0.03 0.13,-3.57 -0.02,-7.14 0.02,-10.71z"/>
   </g>
   <g>
    <path class="fil49" d="M0.03 23.76c0.05,-0.2 0.11,-0.41 0.16,-0.62 -0.16,0.84 0.8,0.8 1.37,0.82 0.42,0 0.85,-0.02 1.27,-0.04 0.6,-0.01 1.2,0.02 1.8,-0.01l0.17 -0.01 0 0.06c-0.04,0.1 -0.13,0.3 -0.17,0.39l-0.15 -0.11c-1.47,-0.2 -2.97,0.1 -4.46,-0.01 0,-0.07 -0.02,-0.22 -0.02,-0.3 0.01,-0.04 0.02,-0.12 0.03,-0.17z"/>
   </g>
   <g>
    <path class="fil50" d="M38.19 23.28c0.39,1.43 0.02,2.92 0.1,4.38 -0.13,2.41 0.3,4.83 -0.02,7.23 -0.14,-3.87 -0.08,-7.74 -0.08,-11.61z"/>
   </g>
   <g>
    <path class="fil51" d="M17.68 23.57c0.31,-0.06 0.62,-0.12 0.93,-0.18 1.55,1.53 3.18,2.98 4.59,4.64 0.52,0.92 1.36,1.58 1.97,2.42 -0.17,0.38 -0.75,0.15 -1.1,0.19 0.43,0.39 0.82,1.08 1.5,0.9 -0.06,-0.29 -0.11,-0.59 -0.17,-0.88 0.27,0.24 0.64,0.5 0.58,0.91 -0.08,0.64 -0.71,0.97 -1.14,1.36 0.02,0.5 -0.1,1 -0.63,1.15 0.14,-0.24 0.28,-0.47 0.42,-0.69 -0.27,-0.15 -0.55,-0.28 -0.83,-0.42 0.01,0.2 0.03,0.39 0.04,0.59 -0.2,-0.08 -0.41,-0.16 -0.61,-0.25 -0.51,-0.49 -1.02,-0.99 -1.61,-1.39 -0.58,-0.54 -1.18,-1.09 -1.68,-1.71 -0.35,-0.85 -1.21,-1.28 -1.79,-1.94 0.18,-0.62 0.28,-1.25 0.31,-1.89 0.39,0.19 0.81,0.29 1.23,0.39 -0.46,-0.5 -0.92,-1.01 -1.39,-1.52 0.08,-0.16 0.16,-0.32 0.24,-0.48 -0.41,-0.3 -0.77,-0.68 -0.86,-1.2z"/>
   </g>
   <g>
    <path class="fil52" d="M4.8 23.96c0.07,0.5 0.14,1 0.14,1.51 -0.04,8.51 -0.04,17.03 -0.05,25.54 -0.05,1.76 -0.03,3.53 0.13,5.28 0.04,0.49 0.02,0.99 -0.14,1.46l-0.12 0.1c-0.2,-1.18 -0.07,-2.38 -0.19,-3.56 0.07,-9.98 -0.13,-19.96 0.06,-29.94 0.04,-0.09 0.13,-0.29 0.17,-0.39z"/>
   </g>
   <g>
    <path class="fil53" d="M74.93 24.01l0.18 0.01c0.11,0 0.32,0.01 0.42,0.02 -0.11,0.09 -0.22,0.18 -0.33,0.27 0.05,5.09 -0.1,10.18 0.07,15.27 -0.08,0.78 -0.1,1.56 -0.09,2.35 0.01,0.07 0.01,0.2 0.01,0.27 -0.11,2.51 -0.19,5.02 -0.05,7.53 0,0.06 0,0.16 0,0.22 -0.08,1.25 -0.11,2.51 -0.06,3.76 -0.01,0.5 -0.04,0.99 -0.01,1.49 0.03,0.83 0.09,1.66 -0.05,2.49l-0.06 0.12c0.05,-11.26 0.01,-22.53 -0.03,-33.8z"/>
   </g>
   <g>
    <path class="fil54" d="M75.53 24.04c0.74,0.03 1.48,0.04 2.22,0.06 0.36,0.54 0.73,1.23 0.29,1.84 -0.72,2.26 -1.35,4.6 -1.5,6.98 -0.05,0.44 -0.19,0.87 -0.28,1.3 -0.18,0.71 0.2,1.45 -0.05,2.15 -0.33,1.07 -0.17,2.3 -0.94,3.21 -0.17,-5.09 -0.02,-10.18 -0.07,-15.27 0.11,-0.09 0.22,-0.18 0.33,-0.27z"/>
   </g>
   <g>
    <path class="fil55" d="M0.02 24.23c1.49,0.11 2.99,-0.19 4.46,0.01 -0.08,3.27 0.01,6.54 -0.03,9.8 -0.13,0 -0.25,0.01 -0.38,0.01 -0.38,0.61 -0.61,1.42 -1.22,1.81 -1.01,-0.08 -2.3,0.24 -2.34,1.47 -0.08,-0.05 -0.23,-0.15 -0.31,-0.2 -0.09,-4.3 0.15,-8.61 -0.18,-12.9z"/>
   </g>
   <g>
    <path class="fil56" d="M77.75 24.1c0.56,0.01 1.11,0.01 1.67,0.02 -0.03,6.31 0.04,12.61 -0.03,18.92 -0.18,-0.87 -0.17,-1.75 -0.27,-2.63 -0.12,-1.87 0.12,-3.76 -0.12,-5.63 -0.41,0.23 -0.89,0.48 -1.02,0.97 -0.69,2.25 -0.89,4.78 -2.42,6.67 -0.12,-0.17 -0.25,-0.33 -0.38,-0.49 -0.01,-0.79 0.01,-1.57 0.09,-2.35 0.77,-0.91 0.61,-2.14 0.94,-3.21 0.25,-0.7 -0.13,-1.44 0.05,-2.15 0.09,-0.43 0.23,-0.86 0.28,-1.3 0.15,-2.38 0.78,-4.72 1.5,-6.98 0.44,-0.61 0.07,-1.3 -0.29,-1.84z"/>
   </g>
   <g>
    <path class="fil57" d="M79.42 24.12l0.04 0.18c-0.03,5.84 0,11.68 -0.01,17.52 -0.08,5.3 0.11,10.61 -0.07,15.92 0.06,-1.11 0.03,-2.22 0.05,-3.33 0,-0.75 -0.01,-1.5 -0.01,-2.26 -0.01,-2.15 0.03,-4.31 -0.02,-6.47 0.02,-0.76 0.02,-1.52 0,-2.28 0,-0.09 -0.01,-0.27 -0.01,-0.36 0.07,-6.31 0,-12.61 0.03,-18.92z"/>
    <path class="fil57" d="M4.48 24.24l0.15 0.11c-0.19,9.98 0.01,19.96 -0.06,29.94 -0.33,-3.38 0.03,-6.8 -0.17,-10.19 0.13,-3.35 -0.02,-6.7 0.05,-10.06 0.04,-3.26 -0.05,-6.53 0.03,-9.8z"/>
    <path class="fil57" d="M2.8 63.43c2.09,1.1 4.16,2.79 6.66,2.51 5.25,-0.11 10.51,0.12 15.76,-0.14 3,-0.01 6.01,0.23 9.02,0.01 3.87,0.32 7.77,-0.09 11.64,0.31 1.2,0.06 2.41,0.03 3.61,0.04 2.93,0.09 5.86,-0.03 8.79,0.02 0.26,0.01 0.53,0.03 0.8,0.05 -0.69,0.04 -1.39,0.08 -2.08,0.08 -15.61,0.02 -31.22,-0.1 -46.84,-0.04 -2.71,0.17 -5.39,-1.03 -7.36,-2.84z"/>
   </g>
   <g>
    <path class="fil58" d="M79.46 24.3l0.08 -0.2c0.32,0.91 0.17,1.89 0.22,2.83 -0.02,9.25 0.02,18.5 -0.04,27.74 -0.36,1.73 0.39,3.78 -0.75,5.27 0.06,-0.22 0.11,-0.45 0.17,-0.67 0.12,-0.5 0.2,-1.02 0.24,-1.53 0.18,-5.31 -0.01,-10.62 0.07,-15.92 0.01,-5.84 -0.02,-11.68 0.01,-17.52z"/>
   </g>
   <g>
    <path class="fil59" d="M15.08 25.45c0.24,0.01 0.35,0.13 0.31,0.35 -0.17,-0.05 -0.28,-0.17 -0.31,-0.35z"/>
   </g>
   <g>
    <path class="fil60" d="M15.39 25.8c0.08,0 0.25,-0.01 0.33,-0.01 0.75,0.88 1.64,1.63 2.43,2.48 0.58,0.66 1.44,1.09 1.79,1.94 -0.31,-0.27 -0.63,-0.53 -0.96,-0.79 -1.16,-1.24 -2.42,-2.39 -3.59,-3.62z"/>
   </g>
   <g>
    <path class="fil61" d="M56.08 27.71c0.58,-0.59 1.14,-1.2 1.74,-1.77 0.09,-0.03 0.28,-0.07 0.37,-0.1 -0.13,0.2 -0.26,0.4 -0.39,0.59 -0.5,0.46 -0.89,1.02 -1.21,1.62 1.19,-0.02 2.33,0.41 3.51,0.36 0.99,-0.15 1.62,-1.04 2.55,-1.34 -0.66,0.71 -1.34,1.4 -2.06,2.05 -1.23,0.63 -2.06,1.79 -3.22,2.53 0,-0.26 0,-0.51 0,-0.77 -0.82,-0.11 -1.74,-0.4 -2.13,-1.19 0.16,-0.71 0.73,-1.25 0.84,-1.98z"/>
   </g>
   <g>
    <path class="fil62" d="M37.57 28.96c0.23,-0.77 0.28,-1.58 0.42,-2.37 0.04,2.68 0.18,5.37 0,8.04 -1.33,0.1 -2.67,0.15 -4,0.01 -0.13,-1.37 -0.26,-2.74 -0.64,-4.06 -0.26,-1.01 -0.9,-1.85 -1.32,-2.79 0.53,0.54 0.91,1.27 1.59,1.65 0.9,0.31 1.86,-0.04 2.78,-0.04 0.4,-0.04 0.99,0.02 1.17,-0.44z"/>
   </g>
   <g>
    <path class="fil63" d="M41.58 27.62c0.12,0.35 0.27,0.68 0.41,1.01 1.33,-0.56 2.49,0.79 3.81,0.29 0.21,0.36 0.41,0.72 0.61,1.09 -0.2,0.54 -0.39,1.09 -0.58,1.64 -0.78,-1.63 -2.95,-1.2 -4.14,-0.28 -0.09,-1.25 -0.17,-2.5 -0.11,-3.75z"/>
   </g>
   <g>
    <path class="fil64" d="M55.41 28.34c0.22,-0.21 0.45,-0.41 0.67,-0.63 -0.11,0.73 -0.68,1.27 -0.84,1.98 0.39,0.79 1.31,1.08 2.13,1.19 0,0.26 0,0.51 0,0.77 1.16,-0.74 1.99,-1.9 3.22,-2.53 -0.14,0.13 -0.27,0.27 -0.41,0.41 -0.21,0.17 -0.41,0.35 -0.6,0.54 -1.44,1.42 -2.9,2.82 -4.37,4.2 -0.46,0.11 -0.84,0.4 -1.19,0.7 0.03,-0.51 0.13,-1.07 -0.19,-1.52 -0.51,-0.76 -0.52,-1.71 -0.56,-2.6 0.42,-0.4 0.87,-0.82 1.06,-1.39 0.37,-0.37 0.73,-0.73 1.08,-1.12z"/>
   </g>
   <g>
    <path class="fil65" d="M23.2 28.03c2.28,2.01 4.25,4.33 6.44,6.42 0.52,0.68 0.26,1.61 0.32,2.4 -0.07,0.79 0.17,1.66 -0.2,2.38 -5.05,5.01 -10.06,10.09 -15.25,14.96 -1.06,0.72 -1.9,1.7 -2.88,2.52 -0.17,-0.85 -1.14,-1.29 -1.17,-2.2 -0.09,-0.61 0.35,-1.09 0.68,-1.55 -0.14,-0.06 -0.28,-0.13 -0.41,-0.19 1.42,-1.2 2.52,-2.75 3.94,-3.96 1.36,-1.11 2.39,-2.58 3.83,-3.6 2.02,-2.06 4.24,-3.95 6.13,-6.14 0.65,-0.73 1.43,-1.35 1.92,-2.2 -0.03,-0.06 -0.09,-0.16 -0.13,-0.21 -0.18,-0.44 -0.57,-0.7 -1,-0.86 -0.33,-0.29 -0.63,-0.62 -0.93,-0.94 -0.35,-0.57 -0.77,-1.1 -1.26,-1.55 0.2,0.09 0.41,0.17 0.61,0.25 -0.01,-0.2 -0.03,-0.39 -0.04,-0.59 0.28,0.14 0.56,0.27 0.83,0.42 -0.14,0.22 -0.28,0.45 -0.42,0.69 0.53,-0.15 0.65,-0.65 0.63,-1.15 0.43,-0.39 1.06,-0.72 1.14,-1.36 0.06,-0.41 -0.31,-0.67 -0.58,-0.91 0.06,0.29 0.11,0.59 0.17,0.88 -0.68,0.18 -1.07,-0.51 -1.5,-0.9 0.35,-0.04 0.93,0.19 1.1,-0.19 -0.61,-0.84 -1.45,-1.5 -1.97,-2.42z"/>
   </g>
   <g>
    <path class="fil66" d="M49.23 33.7c1.97,-1.04 3.45,-2.77 5.1,-4.24 -0.19,0.57 -0.64,0.99 -1.06,1.39 -0.21,0.2 -0.41,0.4 -0.62,0.61 -0.87,0.68 -1.52,1.64 -2.52,2.15 -0.28,0.19 -0.75,0.31 -0.75,0.72 -0.13,1.4 -0.01,2.81 -0.22,4.21 -0.03,-1.4 -0.1,-2.81 -0.04,-4.21 0.03,-0.21 0.07,-0.42 0.11,-0.63z"/>
   </g>
   <g>
    <path class="fil67" d="M59.58 30.07c0.19,-0.19 0.39,-0.37 0.6,-0.54 0.1,0.37 -0.24,0.67 -0.6,0.54z"/>
   </g>
   <g>
    <path class="fil68" d="M52.65 31.46c0.21,-0.21 0.41,-0.41 0.62,-0.61 0.04,0.89 0.05,1.84 0.56,2.6 0.32,0.45 0.22,1.01 0.19,1.52 0.35,-0.3 0.73,-0.59 1.19,-0.7 -0.74,0.76 -1.52,1.48 -2.19,2.3 1.11,1.26 2.29,2.46 3.49,3.63 -1.12,-0.31 -1.65,-1.54 -2.81,-1.79 -0.51,1.13 -1.67,2.06 -1.47,3.42 -0.63,-0.56 -0.7,-1.56 -1.47,-1.97 0.34,-0.73 0.65,-1.52 0.48,-2.34 -0.12,-0.67 -0.03,-1.38 0.42,-1.92 0.61,-0.73 -0.03,-1.64 0.06,-2.46 0.18,-0.62 0.58,-1.14 0.93,-1.68z"/>
   </g>
   <g>
    <path class="fil69" d="M50.13 33.61c1,-0.51 1.65,-1.47 2.52,-2.15 -0.35,0.54 -0.75,1.06 -0.93,1.68 -0.09,0.82 0.55,1.73 -0.06,2.46 -0.45,0.54 -0.54,1.25 -0.42,1.92 0.17,0.82 -0.14,1.61 -0.48,2.34 0.77,0.41 0.84,1.41 1.47,1.97 0,0.06 0.01,0.17 0.02,0.23 -1.05,-0.9 -1.89,-2.02 -3.04,-2.8 -0.01,-0.15 -0.03,-0.3 -0.04,-0.44 0,-0.07 -0.01,-0.21 -0.01,-0.28 0.21,-1.4 0.09,-2.81 0.22,-4.21 0,-0.41 0.47,-0.53 0.75,-0.72z"/>
    <path class="fil69" d="M62.21 45.85c3.46,3.33 6.81,6.78 10.28,10.09 0.78,0.71 1.4,1.63 2.4,2.03 -0.02,0.05 -0.06,0.15 -0.08,0.2 -2.45,-1.34 -3.95,-3.81 -6.14,-5.47 -2.08,-2.21 -4.25,-4.32 -6.38,-6.48 -0.02,-0.09 -0.06,-0.27 -0.08,-0.37z"/>
    <path class="fil69" d="M60.91 50.49c0.35,-0.14 0.68,0.17 0.58,0.54 -0.21,-0.16 -0.4,-0.35 -0.58,-0.54z"/>
    <path class="fil69" d="M61.62 51.14c0.9,0.58 1.69,1.34 2.25,2.25 -0.77,-0.72 -1.53,-1.47 -2.25,-2.25z"/>
    <path class="fil69" d="M64.55 54.04c0.22,0.04 0.32,0.16 0.33,0.38 -0.2,-0.05 -0.31,-0.18 -0.33,-0.38z"/>
    <path class="fil69" d="M68.03 57.56c0.73,0.32 1.21,0.98 1.77,1.51 0.65,0.84 1.66,1.35 2.13,2.31 -0.62,-0.48 -1.16,-1.05 -1.73,-1.59 -0.7,-0.77 -1.46,-1.48 -2.17,-2.23z"/>
   </g>
   <g>
    <path class="fil70" d="M21.62 31.92c0.59,0.4 1.1,0.9 1.61,1.39 0.49,0.45 0.91,0.98 1.26,1.55 -1,-0.93 -1.96,-1.91 -2.87,-2.94z"/>
   </g>
   <g>
    <path class="fil71" d="M33.34 31.86c0.29,0.99 0.39,2.02 0.47,3.05l-0.12 -0.01c-0.19,-1 -0.24,-2.03 -0.35,-3.04z"/>
   </g>
   <g>
    <path class="fil72" d="M4.07 34.05c0.13,0 0.25,-0.01 0.38,-0.01 -0.07,3.36 0.08,6.71 -0.05,10.06 -0.09,0.72 -0.06,1.45 -0.17,2.17 -0.27,0.49 -0.92,0.22 -1.19,-0.13 -0.33,-0.49 -0.49,-1.08 -0.72,-1.62 -0.18,0.45 -0.32,0.92 -0.44,1.39 -0.61,0.09 -1.17,0.42 -1.37,1.04 -0.03,-3.21 -0.04,-6.41 0,-9.62 0.04,-1.23 1.33,-1.55 2.34,-1.47 0.61,-0.39 0.84,-1.2 1.22,-1.81z"/>
   </g>
   <g>
    <path class="fil73" d="M49.17 38.82c-0.3,-1.47 -0.24,-3.01 -0.05,-4.49 -0.06,1.4 0.01,2.81 0.04,4.21 0,0.07 0.01,0.21 0.01,0.28z"/>
   </g>
   <g>
    <path class="fil74" d="M77.98 35.75c0.13,-0.49 0.61,-0.74 1.02,-0.97 0.24,1.87 0,3.76 0.12,5.63 -0.33,0.88 -1.09,1.45 -1.7,2.12 -0.69,0.72 -1.1,1.71 -2.06,2.13 -0.03,-0.82 -0.12,-1.64 -0.17,-2.46 0,-0.07 0,-0.2 -0.01,-0.27 0.13,0.16 0.26,0.32 0.38,0.49 1.53,-1.89 1.73,-4.42 2.42,-6.67z"/>
   </g>
   <g>
    <path class="fil75" d="M25.42 35.8c0.43,0.16 0.82,0.42 1,0.86 -0.36,-0.26 -0.69,-0.55 -1,-0.86z"/>
   </g>
   <g>
    <path class="fil76" d="M26.42 36.66c0.04,0.05 0.1,0.15 0.13,0.21 -0.49,0.85 -1.27,1.47 -1.92,2.2 -1.89,2.19 -4.11,4.08 -6.13,6.14 -1.44,1.02 -2.47,2.49 -3.83,3.6 -1.42,1.21 -2.52,2.76 -3.94,3.96 -0.85,0.44 -1.18,1.61 -2.18,1.74 3.52,-3.77 7.35,-7.24 10.99,-10.91 1.59,-1.46 3.02,-3.11 4.63,-4.56 0.79,-0.76 1.59,-1.51 2.25,-2.38z"/>
   </g>
   <g>
    <path class="fil77" d="M0.2 37.13c0.08,0.05 0.23,0.15 0.31,0.2 -0.04,3.21 -0.03,6.41 0,9.62 -0.02,3.2 -0.01,6.4 -0.01,9.6 -0.1,2.32 0.73,4.65 2.17,6.46 0,0.08 0.01,0.23 0.01,0.31 -1.59,-1.62 -2.55,-3.91 -2.49,-6.18 -0.02,-6.67 0.02,-13.34 0.01,-20.01z"/>
   </g>
   <g>
    <path class="fil78" d="M33.84 37.95c0.26,-0.44 0.84,-0.32 1.27,-0.36 2.28,0.04 4.57,-0.03 6.86,0.07 1.15,0.05 2.32,-0.07 3.46,0.19 -3.26,0.11 -6.52,-0.3 -9.77,-0.03 -0.61,0 -1.22,0.07 -1.82,0.13z"/>
   </g>
   <g>
    <path class="fil79" d="M35.66 37.82c3.25,-0.27 6.51,0.14 9.77,0.03 0.1,0.54 0.07,1.09 0.02,1.64 -0.06,0.01 -0.17,0.02 -0.23,0.03 -0.47,-0.01 -0.94,-0.05 -1.4,-0.07 0.51,-0.04 1.02,-0.12 1.53,-0.18 -0.06,-0.37 -0.11,-0.73 -0.15,-1.1 -1.13,-0.07 -2.26,-0.04 -3.38,-0.18 -2.05,-0.22 -4.12,0.07 -6.16,-0.17z"/>
   </g>
   <g>
    <path class="fil80" d="M33.84 37.95c0.6,-0.06 1.21,-0.13 1.82,-0.13 2.04,0.24 4.11,-0.05 6.16,0.17 1.12,0.14 2.25,0.11 3.38,0.18 0.04,0.37 0.09,0.73 0.15,1.1 -0.51,0.06 -1.02,0.14 -1.53,0.18 -3.31,0.17 -6.61,-0.1 -9.91,0.03 -0.02,-0.51 -0.05,-1.02 -0.07,-1.53z"/>
   </g>
   <g>
    <path class="fil81" d="M52.23 41.83c-0.2,-1.36 0.96,-2.29 1.47,-3.42 1.16,0.25 1.69,1.48 2.81,1.79 1.89,1.9 3.82,3.75 5.7,5.65 0.02,0.1 0.06,0.28 0.08,0.37 -1.49,-1.26 -2.73,-2.77 -4.24,-4 -0.89,-0.74 -1.56,-1.8 -2.71,-2.15 -0.37,0.75 -0.96,1.37 -1.68,1.8 0.02,0.46 -0.05,1 0.35,1.32 0.75,0.72 1.33,1.59 2.09,2.3 0.59,0.59 1.28,1.12 1.64,1.9 -0.71,-0.64 -1.38,-1.32 -2.06,-1.99 -1.09,-1.17 -2.29,-2.23 -3.43,-3.34 -0.01,-0.06 -0.02,-0.17 -0.02,-0.23z"/>
   </g>
   <g>
    <path class="fil82" d="M33.91 39.48c3.3,-0.13 6.6,0.14 9.91,-0.03 0.46,0.02 0.93,0.06 1.4,0.07 -0.07,0.02 -0.22,0.05 -0.29,0.06 -2.76,0.06 -5.51,0.09 -8.27,0.05 -0.92,-0.04 -1.85,0.04 -2.75,-0.15z"/>
   </g>
   <g>
    <path class="fil83" d="M36.66 39.63c2.76,0.04 5.51,0.01 8.27,-0.05 -0.26,0.07 -0.51,0.14 -0.77,0.2 -2.5,-0.03 -5.02,0.21 -7.5,-0.15z"/>
   </g>
   <g>
    <path class="fil84" d="M55.34 40.07c1.15,0.35 1.82,1.41 2.71,2.15 1.51,1.23 2.75,2.74 4.24,4 2.13,2.16 4.3,4.27 6.38,6.48 0.46,0.75 1.09,1.37 1.63,2.06 -0.14,0.16 -0.28,0.32 -0.42,0.47 0.82,0.08 0.92,0.89 0.98,1.55 0.36,0.95 0.84,1.87 1.46,2.68 -0.83,0.19 -1.2,-0.5 -1.33,-1.21 -0.16,0.34 -0.32,0.67 -0.47,1 -0.24,-0.06 -0.48,-0.11 -0.72,-0.18 -0.56,-0.53 -1.04,-1.19 -1.77,-1.51 -1.09,-1.01 -2.12,-2.07 -3.15,-3.14 -0.01,-0.22 -0.11,-0.34 -0.33,-0.38 -0.02,-0.02 -0.08,-0.05 -0.1,-0.07 0,-0.27 -0.2,-0.56 -0.5,-0.46 -0.02,-0.03 -0.06,-0.09 -0.08,-0.12 -0.56,-0.91 -1.35,-1.67 -2.25,-2.25 -0.03,-0.03 -0.1,-0.08 -0.13,-0.11 0.1,-0.37 -0.23,-0.68 -0.58,-0.54 -0.17,-0.14 -0.35,-0.27 -0.51,-0.41 -0.06,-0.07 -0.11,-0.15 -0.16,-0.22 -0.68,-0.96 -1.51,-1.84 -2.5,-2.47 -0.36,-0.78 -1.05,-1.31 -1.64,-1.9 -0.76,-0.71 -1.34,-1.58 -2.09,-2.3 -0.4,-0.32 -0.33,-0.86 -0.35,-1.32 0.72,-0.43 1.31,-1.05 1.68,-1.8z"/>
   </g>
   <g>
    <path class="fil85" d="M79.12 40.41c0.1,0.88 0.09,1.76 0.27,2.63 0,0.09 0.01,0.27 0.01,0.36 -0.3,1.03 -1.49,1.08 -2.18,1.7 -0.78,0.58 -1.13,1.51 -1.57,2.34 -0.12,-0.06 -0.24,-0.13 -0.35,-0.19 0.05,-0.86 0.1,-1.73 0.06,-2.59 0.96,-0.42 1.37,-1.41 2.06,-2.13 0.61,-0.67 1.37,-1.24 1.7,-2.12z"/>
   </g>
   <g>
    <path class="fil86" d="M75.14 49.73c-0.14,-2.51 -0.06,-5.02 0.05,-7.53 0.05,0.82 0.14,1.64 0.17,2.46 0.04,0.86 -0.01,1.73 -0.06,2.59 -0.03,0.83 -0.08,1.66 -0.16,2.48z"/>
   </g>
   <g>
    <path class="fil87" d="M32.33 43.04c0.89,-0.05 1.74,-0.39 2.64,-0.4 2.7,-0.01 5.4,0.06 8.1,0.02 0.91,0.02 1.87,-0.17 2.74,0.2 0.02,0.54 0.03,1.07 0,1.61l-0.13 0.02c0.01,-0.48 0.02,-0.97 0,-1.45 -0.03,-0.04 -0.07,-0.11 -0.09,-0.15 -3.87,-0.01 -7.75,0 -11.61,0.03l-0.08 0.01c-0.51,0.37 -0.72,1 -0.73,1.61 -0.32,-0.47 -0.58,-0.98 -0.84,-1.5z"/>
   </g>
   <g>
    <path class="fil88" d="M33.98 42.92c3.86,-0.03 7.74,-0.04 11.61,-0.03 0.02,0.04 0.06,0.11 0.09,0.15 -1.52,-0.27 -3.06,-0.07 -4.58,-0.12 -2.38,0.01 -4.75,-0.04 -7.12,0z"/>
    <path class="fil88" d="M58.88 62.14c0.26,-0.05 0.52,-0.1 0.79,-0.15 0.39,0 0.79,0.01 1.18,0.02 -0.62,0.23 -1.21,0.55 -1.67,1.04 0.79,0.9 1.83,1.49 2.78,2.21 -0.69,0.18 -1.4,0.38 -1.89,0.92 -0.05,0.02 -0.16,0.05 -0.21,0.07 0.17,-0.5 0.53,-1.05 0.25,-1.57 -0.44,-0.84 -1.41,-1.47 -1.23,-2.54z"/>
   </g>
   <g>
    <path class="fil89" d="M33.17 44.54c0.01,-0.61 0.22,-1.24 0.73,-1.61 -0.05,0.47 -0.09,0.95 -0.13,1.42 0,0.11 -0.02,0.32 -0.02,0.42l-0.16 0.01c-0.07,-0.01 -0.2,-0.02 -0.27,-0.03 -0.04,-0.05 -0.11,-0.15 -0.15,-0.21z"/>
   </g>
   <g>
    <path class="fil90" d="M33.9 42.93l0.08 -0.01c2.37,-0.04 4.74,0.01 7.12,0 0.13,0.4 0.26,0.79 0.39,1.19 -0.18,0.16 -0.36,0.31 -0.55,0.47 -2.38,-0.11 -4.81,0.23 -7.17,-0.23 0.04,-0.47 0.08,-0.95 0.13,-1.42z"/>
   </g>
   <g>
    <path class="fil91" d="M41.1 42.92c1.52,0.05 3.06,-0.15 4.58,0.12 0.02,0.48 0.01,0.97 0,1.45 -1.57,0.17 -3.16,0.05 -4.74,0.09 0.19,-0.16 0.37,-0.31 0.55,-0.47 -0.13,-0.4 -0.26,-0.79 -0.39,-1.19z"/>
   </g>
   <g>
    <path class="fil92" d="M77.22 45.1c0.69,-0.62 1.88,-0.67 2.18,-1.7 0.02,0.76 0.02,1.52 0,2.28 -0.22,0.74 -0.71,1.31 -1.38,1.68 -0.94,1.55 -1.38,3.41 -2.48,4.87 -0.17,-0.75 -0.3,-1.52 -0.4,-2.28 0,-0.06 0,-0.16 0,-0.22 0.08,-0.82 0.13,-1.65 0.16,-2.48 0.11,0.06 0.23,0.13 0.35,0.19 0.44,-0.83 0.79,-1.76 1.57,-2.34z"/>
   </g>
   <g>
    <path class="fil93" d="M4.23 46.27c0.11,-0.72 0.08,-1.45 0.17,-2.17 0.2,3.39 -0.16,6.81 0.17,10.19 0.12,1.18 -0.01,2.38 0.19,3.56 0.13,0.6 0.37,1.17 0.59,1.75 -0.26,-0.09 -0.52,-0.17 -0.78,-0.25 -0.01,0.41 -0.01,0.82 -0.01,1.23 -0.64,0.51 -1.1,1.25 -1.87,1.59 -0.01,0.28 -0.02,0.56 -0.02,0.84 -1.44,-1.81 -2.27,-4.14 -2.17,-6.46 0,-3.2 -0.01,-6.4 0.01,-9.6 0.2,-0.62 0.76,-0.95 1.37,-1.04 0.12,-0.47 0.26,-0.94 0.44,-1.39 0.23,0.54 0.39,1.13 0.72,1.62 0.27,0.35 0.92,0.62 1.19,0.13z"/>
   </g>
   <g>
    <path class="fil94" d="M33.77 44.35c2.36,0.46 4.79,0.12 7.17,0.23 1.58,-0.04 3.17,0.08 4.74,-0.09l0.13 -0.02c0,0.07 0,0.22 -0.01,0.29l-0.13 0.02c-3.97,-0.06 -7.95,-0.08 -11.92,-0.01 0,-0.1 0.02,-0.31 0.02,-0.42z"/>
   </g>
   <g>
    <path class="fil95" d="M30.45 45.31c0.76,-0.49 1.66,-0.64 2.54,-0.58 0.09,0 0.25,0.01 0.33,0.02 0.07,0.01 0.2,0.02 0.27,0.03 2.1,0.25 4.23,0.06 6.34,0.12 -0.07,0.07 -0.21,0.19 -0.28,0.26 0.5,0.48 1.22,0.51 1.88,0.62 -0.23,0.35 -0.51,0.67 -0.87,0.89 0.32,0.01 0.65,0.09 0.89,0.31 -0.59,0.36 -1.25,0.58 -1.94,0.62 -1.94,0.09 -3.88,-0.14 -5.81,0.09 0.07,1.38 1.15,2.53 2.42,2.96 1.07,0.41 2.24,0.27 3.35,0.42 0.52,0.12 1.04,0.23 1.57,0.31 -0.24,1.06 0.51,2.09 1.54,2.3 0.73,-0.01 1.43,-0.33 2.17,-0.23 -1.99,1.1 -4.34,0.96 -6.54,0.88 -1.94,-0.2 -3.9,-0.74 -5.5,-1.89 -2.26,-1.5 -3.09,-4.61 -2.36,-7.13z"/>
   </g>
   <g>
    <path class="fil96" d="M33.59 44.78l0.16 -0.01c3.97,-0.07 7.95,-0.05 11.92,0.01 -1.9,0.26 -3.83,0.08 -5.74,0.12 -2.11,-0.06 -4.24,0.13 -6.34,-0.12z"/>
   </g>
   <g>
    <path class="fil97" d="M55.68 45.4c0.68,0.67 1.35,1.35 2.06,1.99 0.47,0.47 0.93,0.95 1.39,1.43 -0.9,-0.39 -1.48,-1.21 -2.2,-1.83 -0.51,-0.44 -0.95,-0.97 -1.25,-1.59z"/>
   </g>
   <g>
    <path class="fil98" d="M78.02 47.36c0.67,-0.37 1.16,-0.94 1.38,-1.68 0.05,2.16 0.01,4.32 0.02,6.47 -0.55,-0.03 -1.18,-0.36 -1.66,0.06 -0.96,0.7 -1.56,1.75 -2.41,2.57 -0.09,-0.36 -0.19,-0.71 -0.27,-1.07 -0.05,-1.25 -0.02,-2.51 0.06,-3.76 0.1,0.76 0.23,1.53 0.4,2.28 1.1,-1.46 1.54,-3.32 2.48,-4.87z"/>
   </g>
   <g>
    <path class="fil99" d="M33.8 47.69c1.93,-0.23 3.87,0 5.81,-0.09 1.32,0.01 2.64,0.07 3.97,0.02 0.58,-0.01 1.2,-0.08 1.75,0.18 -3.76,0.04 -7.53,-0.04 -11.29,-0.02 0.02,0.19 0.05,0.39 0.08,0.58 0.58,1.68 2.4,2.33 4.02,2.42 1.43,0.12 2.88,0.13 4.31,0 0.23,-0.02 0.46,-0.05 0.7,-0.08 -1.13,0.5 -2.39,0.22 -3.58,0.37 -1.11,-0.15 -2.28,-0.01 -3.35,-0.42 -1.27,-0.43 -2.35,-1.58 -2.42,-2.96z"/>
   </g>
   <g>
    <path class="fil100" d="M34.04 47.78c3.76,-0.02 7.53,0.06 11.29,0.02 0.05,0.03 0.17,0.08 0.22,0.11 -0.04,0.15 -0.08,0.29 -0.13,0.44 -0.24,-0.19 -0.48,-0.43 -0.81,-0.4 -1.33,-0.02 -2.66,0.01 -3.99,0.01 -1.69,-0.05 -3.38,-0.02 -5.07,-0.06 -0.51,0.01 -1.19,-0.14 -1.43,0.46 -0.03,-0.19 -0.06,-0.39 -0.08,-0.58z"/>
   </g>
   <g>
    <path class="fil101" d="M34.12 48.36c0.24,-0.6 0.92,-0.45 1.43,-0.46 1.69,0.04 3.38,0.01 5.07,0.06 0.21,0.11 0.41,0.23 0.61,0.34 -1.13,0.48 -1.01,2.02 -2.2,2.43 -0.29,0.02 -0.59,0.04 -0.89,0.05 -1.62,-0.09 -3.44,-0.74 -4.02,-2.42z"/>
   </g>
   <g>
    <path class="fil102" d="M40.62 47.96c1.33,0 2.66,-0.03 3.99,-0.01 0.33,-0.03 0.57,0.21 0.81,0.4 -0.44,1.01 -1.2,1.97 -2.27,2.35 -0.24,0.03 -0.47,0.06 -0.7,0.08 -1.14,-0.02 -2.28,-0.07 -3.42,-0.05 1.19,-0.41 1.07,-1.95 2.2,-2.43 -0.2,-0.11 -0.4,-0.23 -0.61,-0.34z"/>
   </g>
   <g>
    <path class="fil103" d="M38.14 50.78c0.3,-0.01 0.6,-0.03 0.89,-0.05 1.14,-0.02 2.28,0.03 3.42,0.05 -1.43,0.13 -2.88,0.12 -4.31,0z"/>
   </g>
   <g>
    <path class="fil104" d="M77.76 52.21c0.48,-0.42 1.11,-0.09 1.66,-0.06 0,0.76 0.01,1.51 0.01,2.26 -0.66,0.46 -1.54,0.43 -2.18,0.93 -0.53,0.4 -1.17,0.56 -1.81,0.65 -0.13,-0.26 -0.25,-0.52 -0.37,-0.79 -0.03,-0.5 0,-0.99 0.01,-1.49 0.08,0.36 0.18,0.71 0.27,1.07 0.85,-0.82 1.45,-1.87 2.41,-2.57z"/>
   </g>
   <g>
    <path class="fil105" d="M8.55 54.51c1,-0.13 1.33,-1.3 2.18,-1.74 0.13,0.06 0.27,0.13 0.41,0.19 -0.33,0.46 -0.77,0.94 -0.68,1.55 0.03,0.91 1,1.35 1.17,2.2 0.98,-0.82 1.82,-1.8 2.88,-2.52 -0.25,0.31 -0.45,0.66 -0.67,1 -0.59,0.59 -1.19,1.19 -1.78,1.79 -1.26,1.13 -2.23,2.57 -3.63,3.54 -1.6,0.44 -3.18,-1.09 -3.12,-2.66 0.29,-0.5 0.8,-0.85 1.06,-1.39 0.41,-0.42 0.86,-0.8 1.31,-1.19 0.47,0 0.72,-0.38 0.87,-0.77z"/>
   </g>
   <g>
    <path class="fil106" d="M68.67 52.7c2.19,1.66 3.69,4.13 6.14,5.47 0.75,0.4 1.29,1.13 2.14,1.36 0.7,0.14 1.18,0.66 1.24,1.37 -0.91,2.31 -3.07,3.79 -5.28,4.7 -1.49,0.6 -3.12,0.32 -4.67,0.41 -1.11,0.06 -2.23,-0.01 -3.28,-0.39 0.44,-1.06 0,-2.12 -0.36,-3.12 0.53,-0.08 1.06,-0.2 1.51,-0.48 0.05,0 0.14,0 0.19,-0.01 1.35,0.11 2.73,0.22 4.06,-0.09 0.55,-0.07 1.19,-0.06 1.57,-0.54 -0.47,-0.96 -1.48,-1.47 -2.13,-2.31 0.24,0.07 0.48,0.12 0.72,0.18 0.15,-0.33 0.31,-0.66 0.47,-1 0.13,0.71 0.5,1.4 1.33,1.21 -0.62,-0.81 -1.1,-1.73 -1.46,-2.68 -0.06,-0.66 -0.16,-1.47 -0.98,-1.55 0.14,-0.15 0.28,-0.31 0.42,-0.47 -0.54,-0.69 -1.17,-1.31 -1.63,-2.06z"/>
   </g>
   <g>
    <path class="fil107" d="M63.95 53.51c0.3,-0.1 0.5,0.19 0.5,0.46 -0.21,-0.1 -0.39,-0.25 -0.5,-0.46z"/>
   </g>
   <g>
    <path class="fil108" d="M77.25 55.34c0.64,-0.5 1.52,-0.47 2.18,-0.93 -0.02,1.11 0.01,2.22 -0.05,3.33 -0.04,0.51 -0.12,1.03 -0.24,1.53 -0.31,-0.64 -0.62,-1.32 -1.18,-1.77 -0.57,-0.33 -1.22,-0.43 -1.84,-0.63 -0.37,0.27 -0.74,0.53 -1.1,0.82 0.14,-0.83 0.08,-1.66 0.05,-2.49 0.12,0.27 0.24,0.53 0.37,0.79 0.64,-0.09 1.28,-0.25 1.81,-0.65z"/>
   </g>
   <g>
    <path class="fil109" d="M7.68 55.28c0.28,-0.26 0.57,-0.52 0.87,-0.77 -0.15,0.39 -0.4,0.77 -0.87,0.77z"/>
   </g>
   <g>
    <path class="fil110" d="M4.96 57.7c0.5,-0.36 0.93,-0.82 1.41,-1.23 -0.26,0.54 -0.77,0.89 -1.06,1.39 -0.06,1.57 1.52,3.1 3.12,2.66 -0.25,0.19 -0.48,0.4 -0.71,0.61 -0.62,-0.35 -1.23,-0.73 -1.84,-1.1 -0.07,-0.09 -0.14,-0.18 -0.21,-0.27 -0.3,-0.66 -0.51,-1.37 -0.71,-2.06z"/>
   </g>
   <g>
    <path class="fil111" d="M75.02 57.69c0.36,-0.29 0.73,-0.55 1.1,-0.82 0.62,0.2 1.27,0.3 1.84,0.63 0.56,0.45 0.87,1.13 1.18,1.77 -0.46,0.45 -0.73,1.04 -0.95,1.63 -0.06,-0.71 -0.54,-1.23 -1.24,-1.37 -0.85,-0.23 -1.39,-0.96 -2.14,-1.36 0.02,-0.05 0.06,-0.15 0.08,-0.2l0.07 -0.16 0.06 -0.12z"/>
   </g>
   <g>
    <path class="fil112" d="M4.76 57.85l0.12 -0.1 0.08 -0.05c0.2,0.69 0.41,1.4 0.71,2.06 -0.08,-0.04 -0.24,-0.12 -0.32,-0.16 -0.22,-0.58 -0.46,-1.15 -0.59,-1.75z"/>
   </g>
   <g>
    <path class="fil113" d="M4.57 59.35c0.26,0.08 0.52,0.16 0.78,0.25 0.08,0.04 0.24,0.12 0.32,0.16 0.07,0.09 0.14,0.18 0.21,0.27 0.37,0.52 0.92,0.86 1.38,1.29 0.1,0.24 0.18,0.49 0.27,0.73 1.14,0.55 1.3,2.15 1.1,3.27 0.3,0.07 0.59,0.14 0.89,0.22 -0.02,0.13 -0.04,0.27 -0.06,0.4 -2.5,0.28 -4.57,-1.41 -6.66,-2.51 -0.03,-0.03 -0.09,-0.09 -0.12,-0.11 0,-0.08 -0.01,-0.23 -0.01,-0.31 0,-0.28 0.01,-0.56 0.02,-0.84 0.77,-0.34 1.23,-1.08 1.87,-1.59 0,-0.41 0,-0.82 0.01,-1.23z"/>
   </g>
   <g>
    <path class="fil114" d="M5.88 60.03c0.61,0.37 1.22,0.75 1.84,1.1l0.11 0.05c-0.03,0.1 -0.1,0.28 -0.14,0.38l-0.04 0.12c-0.13,-0.12 -0.26,-0.24 -0.39,-0.36 -0.46,-0.43 -1.01,-0.77 -1.38,-1.29z"/>
   </g>
   <g>
    <path class="fil115" d="M7.26 61.32c0.13,0.12 0.26,0.24 0.39,0.36 0.19,0.19 0.46,0.26 0.71,0.32 0.2,0.04 0.39,0.08 0.58,0.11 3.26,0.43 6.56,0.2 9.83,0.45 1.92,-0.12 3.84,-0.15 5.76,-0.08 -0.69,1.09 -0.44,2.63 0.69,3.32 -5.25,0.26 -10.51,0.03 -15.76,0.14 0.02,-0.13 0.04,-0.27 0.06,-0.4 -0.3,-0.08 -0.59,-0.15 -0.89,-0.22 0.2,-1.12 0.04,-2.72 -1.1,-3.27 -0.09,-0.24 -0.17,-0.49 -0.27,-0.73z"/>
   </g>
   <g>
    <path class="fil116" d="M7.69 61.56c3.11,0.25 6.22,0.18 9.33,0.19 5.65,-0.02 11.3,0.06 16.95,-0.06 7.38,0.08 14.77,0.07 22.16,0.06 0.72,-0.02 1.45,0.07 2.17,0.18 -16.65,0.08 -33.29,-0.03 -49.94,0.07 -0.25,-0.06 -0.52,-0.13 -0.71,-0.32l0.04 -0.12z"/>
   </g>
   <g>
    <path class="fil117" d="M8.36 62c16.65,-0.1 33.29,0.01 49.94,-0.07 0.04,1.5 2.09,2.53 1.23,4.1 0.5,-1.54 -1.1,-2.56 -1.62,-3.85 -4.75,-0.13 -9.51,-0.2 -14.26,0 -11.11,-0.19 -22.23,0.07 -33.34,-0.14 -0.46,0.01 -0.91,0.05 -1.37,0.07 -0.19,-0.03 -0.38,-0.07 -0.58,-0.11z"/>
   </g>
   <g>
    <path class="fil118" d="M58.3 61.93c0.45,0.04 0.91,0.06 1.37,0.06 -0.27,0.05 -0.53,0.1 -0.79,0.15 -0.18,1.07 0.79,1.7 1.23,2.54 0.28,0.52 -0.08,1.07 -0.25,1.57 -0.11,-0.01 -0.32,-0.01 -0.43,-0.01 0.02,-0.06 0.07,-0.16 0.1,-0.21 0.86,-1.57 -1.19,-2.6 -1.23,-4.1z"/>
   </g>
   <g>
    <path class="fil119" d="M66.3 62.01c1.35,-0.11 2.7,-0.09 4.06,-0.09 -1.33,0.31 -2.71,0.2 -4.06,0.09z"/>
   </g>
   <g>
    <path class="fil120" d="M8.94 62.11c0.46,-0.02 0.91,-0.06 1.37,-0.07 11.11,0.21 22.23,-0.05 33.34,0.14 1.06,0.14 2.13,0.06 3.19,0.13l0.18 0.06c-7.49,0.09 -15,-0.08 -22.49,0.11 -1.92,-0.07 -3.84,-0.04 -5.76,0.08 -3.27,-0.25 -6.57,-0.02 -9.83,-0.45z"/>
   </g>
   <g>
    <path class="fil121" d="M43.65 62.18c4.75,-0.2 9.51,-0.13 14.26,0 0.52,1.29 2.12,2.31 1.62,3.85 -0.03,0.05 -0.08,0.15 -0.1,0.21 -0.09,-0.01 -0.26,-0.01 -0.35,-0.01 -0.27,-0.02 -0.54,-0.04 -0.8,-0.05 0.43,-0.14 1.13,-0.26 1.13,-0.84 -0.03,-0.9 -0.8,-1.49 -1.3,-2.15 -0.27,-0.3 -0.49,-0.77 -0.95,-0.77 -2.05,-0.17 -4.1,0 -6.14,0.07 -1.39,-0.16 -2.78,-0.4 -4.18,-0.18 -1.06,-0.07 -2.13,0.01 -3.19,-0.13z"/>
   </g>
   <g>
    <path class="fil122" d="M46.84 62.31c1.4,-0.22 2.79,0.02 4.18,0.18 2.04,-0.07 4.09,-0.24 6.14,-0.07 0.46,0 0.68,0.47 0.95,0.77 0.5,0.66 1.27,1.25 1.3,2.15 0,0.58 -0.7,0.7 -1.13,0.84 -2.93,-0.05 -5.86,0.07 -8.79,-0.02l-0.15 -0.12c1.78,0.04 3.55,-0.21 5.33,-0.14 1.33,0.03 2.68,0.18 3.99,-0.12 0.63,-0.15 0.39,-0.97 0.06,-1.31 -0.56,-0.84 -1.63,-0.88 -2.49,-1.19 -1.03,-0.13 -2.07,0.25 -2.93,0.81 -1.11,0.78 -2.63,0.06 -3.31,-0.97 -0.47,-0.78 -1.48,-0.57 -2.25,-0.61 -0.24,-0.04 -0.48,-0.09 -0.72,-0.14l-0.18 -0.06z"/>
   </g>
   <g>
    <path class="fil123" d="M24.53 62.48c7.49,-0.19 15,-0.02 22.49,-0.11 0.24,0.05 0.48,0.1 0.72,0.14 -0.28,0.11 -0.56,0.23 -0.83,0.34 0.48,0.91 0.79,1.89 1.16,2.84 0.43,0.12 0.85,0.23 1.27,0.35l0.15 0.12c-1.2,-0.01 -2.41,0.02 -3.61,-0.04 -3.87,-0.4 -7.77,0.01 -11.64,-0.31 -3.01,0.22 -6.02,-0.02 -9.02,-0.01 -1.13,-0.69 -1.38,-2.23 -0.69,-3.32z"/>
   </g>
   <g>
    <path class="fil124" d="M46.91 62.85c0.27,-0.11 0.55,-0.23 0.83,-0.34 0.77,0.04 1.78,-0.17 2.25,0.61 0.68,1.03 2.2,1.75 3.31,0.97 0.86,-0.56 1.9,-0.94 2.93,-0.81 0.86,0.31 1.93,0.35 2.49,1.19 0.33,0.34 0.57,1.16 -0.06,1.31 -1.31,0.3 -2.66,0.15 -3.99,0.12 -1.78,-0.07 -3.55,0.18 -5.33,0.14 -0.42,-0.12 -0.84,-0.23 -1.27,-0.35 -0.37,-0.95 -0.68,-1.93 -1.16,-2.84z"/>
   </g>
   <g>
    <path class="fil125" d="M60.22 66.18l0.14 -0.01c1.08,0.06 2.17,0.05 3.26,0.03 1.8,-0.02 3.59,-0.03 5.39,0.01 -2.36,0.23 -4.73,-0.06 -7.09,0.15 -0.57,-0.02 -1.14,-0.1 -1.7,-0.18z"/>
   </g>
  </g>
  <g id="_2366770795856">
   <polygon class="fil126 str0" points="254.03,46.64 259.57,29.47 263.48,29.47 255.45,51.82 252.54,51.82 244.44,29.47 248.34,29.47 "/>
   <path class="fil20 str0" d="M225.64 40.88c0,2.48 0.58,4.48 1.73,5.98 1.15,1.5 2.69,2.25 4.62,2.25 1.94,0 3.48,-0.76 4.63,-2.28 1.14,-1.53 1.71,-3.66 1.71,-6.4 0,-2.46 -0.58,-4.44 -1.74,-5.97 -1.16,-1.52 -2.71,-2.28 -4.64,-2.28 -1.89,0 -3.41,0.74 -4.57,2.25 -1.16,1.5 -1.74,3.65 -1.74,6.45zm-3.84 -0.44c0,-2.19 0.43,-4.16 1.29,-5.91 0.86,-1.76 2.06,-3.11 3.6,-4.06 1.53,-0.95 3.29,-1.43 5.26,-1.43 3.04,0 5.51,1.05 7.39,3.16 1.88,2.11 2.82,4.92 2.82,8.42l0 0.27c0,2.18 -0.42,4.14 -1.25,5.87 -0.83,1.72 -2.03,3.07 -3.58,4.04 -1.54,0.97 -3.33,1.45 -5.34,1.45 -3.04,0 -5.49,-1.06 -7.37,-3.17 -1.88,-2.11 -2.82,-4.9 -2.82,-8.37l0 -0.27zm-14.2 1.03l-2.4 2.5 0 7.85 -3.82 0 0 -31.75 3.82 0 0 19.21 2.05 -2.46 6.96 -7.35 4.66 0 -8.71 9.33 9.72 13.02 -4.49 0 -7.79 -10.35z"/>
   <path class="fil127 str0" d="M181.62 29.47l0.12 2.8c1.71,-2.15 3.94,-3.23 6.69,-3.23 4.73,0 7.12,2.67 7.16,8.01l0 14.77 -3.82 0 0 -14.79c-0.02,-1.61 -0.39,-2.8 -1.11,-3.57 -0.72,-0.77 -1.85,-1.16 -3.38,-1.16 -1.24,0 -2.33,0.34 -3.27,0.99 -0.93,0.66 -1.67,1.53 -2.19,2.61l0 15.92 -3.82 0 0 -22.35 3.62 0zm-13.88 -5.95c0,-0.62 0.19,-1.15 0.57,-1.58 0.38,-0.43 0.94,-0.64 1.69,-0.64 0.74,0 1.31,0.21 1.69,0.64 0.39,0.43 0.58,0.96 0.58,1.58 0,0.62 -0.19,1.14 -0.58,1.56 -0.38,0.41 -0.95,0.62 -1.69,0.62 -0.75,0 -1.31,-0.21 -1.69,-0.62 -0.38,-0.42 -0.57,-0.94 -0.57,-1.56zm4.14 28.3l-3.83 0 0 -22.35 3.83 0 0 22.35z"/>
   <polygon class="fil41 str0" points="161.6,51.82 157.77,51.82 157.77,20.07 161.6,20.07 "/>
   <path class="fil41 str0" d="M153.92 32.88c-0.58,-0.1 -1.21,-0.15 -1.88,-0.15 -2.51,0 -4.21,1.06 -5.11,3.2l0 15.89 -3.82 0 0 -22.35 3.72 0 0.06 2.57c1.26,-1.99 3.04,-3 5.34,-3 0.74,0 1.31,0.1 1.69,0.29l0 3.55z"/>
   <path class="fil20 str0" d="M129.5 32.18c-1.55,0 -2.84,0.56 -3.89,1.69 -1.05,1.13 -1.7,2.71 -1.94,4.74l11.2 0 0 -0.29c-0.11,-1.95 -0.63,-3.46 -1.57,-4.53 -0.94,-1.08 -2.21,-1.61 -3.8,-1.61zm0.47 20.07c-3.03,0 -5.5,-1 -7.4,-2.99 -1.9,-2 -2.85,-4.66 -2.85,-7.99l0 -0.71c0,-2.22 0.42,-4.2 1.27,-5.94 0.84,-1.74 2.03,-3.11 3.55,-4.09 1.53,-0.99 3.18,-1.49 4.96,-1.49 2.9,0 5.16,0.96 6.78,2.88 1.61,1.91 2.42,4.66 2.42,8.23l0 1.6 -15.16 0c0.06,2.2 0.7,3.98 1.93,5.33 1.24,1.36 2.81,2.03 4.71,2.03 1.35,0 2.49,-0.27 3.43,-0.82 0.94,-0.55 1.76,-1.28 2.46,-2.18l2.34 1.82c-1.88,2.88 -4.69,4.32 -8.44,4.32z"/>
   <path class="fil126 str0" d="M98.9 34.55l5.99 0c1.74,0 3.13,-0.44 4.17,-1.31 1.04,-0.87 1.56,-2.04 1.56,-3.53 0,-1.65 -0.49,-2.85 -1.45,-3.6 -0.96,-0.76 -2.43,-1.13 -4.4,-1.13l-5.87 0 0 9.57zm0 3.26l0 10.75 6.55 0c1.85,0 3.31,-0.47 4.37,-1.42 1.07,-0.96 1.6,-2.27 1.6,-3.93 0,-3.6 -1.96,-5.4 -5.91,-5.4l-6.61 0zm-3.97 14.01l0 -30.1 9.84 0c3.27,0 5.72,0.68 7.37,2.03 1.64,1.35 2.47,3.35 2.47,6.01 0,1.4 -0.4,2.65 -1.2,3.73 -0.8,1.09 -1.89,1.93 -3.27,2.52 1.63,0.45 2.91,1.32 3.86,2.59 0.95,1.28 1.41,2.79 1.41,4.55 0,2.7 -0.87,4.82 -2.62,6.36 -1.75,1.54 -4.22,2.31 -7.42,2.31l-10.44 0z"/>
  </g>
 </g>
</svg>
