<?xml version="1.0" encoding="UTF-8"?>
<!DOCTYPE svg PUBLIC "-//W3C//DTD SVG 1.1//EN" "http://www.w3.org/Graphics/SVG/1.1/DTD/svg11.dtd">
<!-- Creator: CorelDRAW 2018 (64-Bit) -->
<svg xmlns="http://www.w3.org/2000/svg" xml:space="preserve" width="90px" height="50px" version="1.1" style="shape-rendering:geometricPrecision; text-rendering:geometricPrecision; image-rendering:optimizeQuality; fill-rule:evenodd; clip-rule:evenodd"
viewBox="0 0 139.92 116.42"
 xmlns:xlink="http://www.w3.org/1999/xlink">
 <defs>
  <style type="text/css">
   <![CDATA[
    .str0 {stroke:#393185;stroke-width:0.06;stroke-miterlimit:22.9256}
    .fil41 {fill:#FFED00;fill-rule:nonzero}
    .fil19 {fill:#EF7F1A;fill-rule:nonzero}
    .fil127 {fill:#E31E24;fill-rule:nonzero}
    .fil65 {fill:#00A0E3;fill-rule:nonzero}
    .fil20 {fill:#009846;fill-rule:nonzero}
    .fil126 {fill:#393185;fill-rule:nonzero}
    .fil124 {fill:#0960FB;fill-rule:nonzero}
    .fil122 {fill:#0F58EA;fill-rule:nonzero}
    .fil121 {fill:#1752CE;fill-rule:nonzero}
    .fil113 {fill:#1877FD;fill-rule:nonzero}
    .fil123 {fill:#1A6CF9;fill-rule:nonzero}
    .fil115 {fill:#2176FD;fill-rule:nonzero}
    .fil93 {fill:#297CFD;fill-rule:nonzero}
    .fil57 {fill:#2D70DF;fill-rule:nonzero}
    .fil120 {fill:#2E6DEA;fill-rule:nonzero}
    .fil72 {fill:#2E85FD;fill-rule:nonzero}
    .fil77 {fill:#3774DF;fill-rule:nonzero}
    .fil55 {fill:#3A89FD;fill-rule:nonzero}
    .fil117 {fill:#416BC4;fill-rule:nonzero}
    .fil118 {fill:#483979;fill-rule:nonzero}
    .fil66 {fill:#551112;fill-rule:nonzero}
    .fil8 {fill:#5A0810;fill-rule:nonzero}
    .fil114 {fill:#5A49A4;fill-rule:nonzero}
    .fil88 {fill:#5F2F4A;fill-rule:nonzero}
    .fil69 {fill:#6F0301;fill-rule:nonzero}
    .fil46 {fill:#6F2431;fill-rule:nonzero}
    .fil11 {fill:#781B1F;fill-rule:nonzero}
    .fil112 {fill:#806FB5;fill-rule:nonzero}
    .fil68 {fill:#820201;fill-rule:nonzero}
    .fil107 {fill:#8B0710;fill-rule:nonzero}
    .fil16 {fill:#8D0805;fill-rule:nonzero}
    .fil119 {fill:#8D1C1E;fill-rule:nonzero}
    .fil28 {fill:#900F0F;fill-rule:nonzero}
    .fil81 {fill:#9B0101;fill-rule:nonzero}
    .fil64 {fill:#A00602;fill-rule:nonzero}
    .fil110 {fill:#A13446;fill-rule:nonzero}
    .fil106 {fill:#A70301;fill-rule:nonzero}
    .fil111 {fill:#A71D01;fill-rule:nonzero}
    .fil108 {fill:#A73602;fill-rule:nonzero}
    .fil104 {fill:#AD4D01;fill-rule:nonzero}
    .fil17 {fill:#AE0A03;fill-rule:nonzero}
    .fil49 {fill:#AE6AA8;fill-rule:nonzero}
    .fil48 {fill:#B3811F;fill-rule:nonzero}
    .fil109 {fill:#B4462D;fill-rule:nonzero}
    .fil98 {fill:#B46002;fill-rule:nonzero}
    .fil31 {fill:#B83B29;fill-rule:nonzero}
    .fil75 {fill:#B93637;fill-rule:nonzero}
    .fil61 {fill:#BA0D05;fill-rule:nonzero}
    .fil92 {fill:#BB6F02;fill-rule:nonzero}
    .fil86 {fill:#BB851F;fill-rule:nonzero}
    .fil84 {fill:#BC0202;fill-rule:nonzero}
    .fil70 {fill:#BC413D;fill-rule:nonzero}
    .fil2 {fill:#C07B01;fill-rule:nonzero}
    .fil116 {fill:#C2DBF4;fill-rule:nonzero}
    .fil10 {fill:#C45D4E;fill-rule:nonzero}
    .fil59 {fill:#C52C2E;fill-rule:nonzero}
    .fil60 {fill:#C53633;fill-rule:nonzero}
    .fil79 {fill:#C7A63B;fill-rule:nonzero}
    .fil85 {fill:#C88102;fill-rule:nonzero}
    .fil94 {fill:#CAA331;fill-rule:nonzero}
    .fil63 {fill:#CD8701;fill-rule:nonzero}
    .fil103 {fill:#CE9D38;fill-rule:nonzero}
    .fil52 {fill:#CFDCF5;fill-rule:nonzero}
    .fil42 {fill:#D1A342;fill-rule:nonzero}
    .fil102 {fill:#D28D03;fill-rule:nonzero}
    .fil100 {fill:#D2A93D;fill-rule:nonzero}
    .fil18 {fill:#D40A06;fill-rule:nonzero}
    .fil105 {fill:#D51F0E;fill-rule:nonzero}
    .fil74 {fill:#D58F01;fill-rule:nonzero}
    .fil34 {fill:#D5BC5F;fill-rule:nonzero}
    .fil76 {fill:#D63D24;fill-rule:nonzero}
    .fil53 {fill:#D9B568;fill-rule:nonzero}
    .fil22 {fill:#DAB03B;fill-rule:nonzero}
    .fil58 {fill:#DACAB8;fill-rule:nonzero}
    .fil47 {fill:#DB9101;fill-rule:nonzero}
    .fil12 {fill:#DD6B58;fill-rule:nonzero}
    .fil43 {fill:#DDC858;fill-rule:nonzero}
    .fil91 {fill:#DE9203;fill-rule:nonzero}
    .fil82 {fill:#DEC575;fill-rule:nonzero}
    .fil29 {fill:#DF1D0D;fill-rule:nonzero}
    .fil56 {fill:#E29702;fill-rule:nonzero}
    .fil101 {fill:#E39C03;fill-rule:nonzero}
    .fil32 {fill:#E79C01;fill-rule:nonzero}
    .fil125 {fill:#E89C94;fill-rule:nonzero}
    .fil27 {fill:#E8C557;fill-rule:nonzero}
    .fil80 {fill:#E99E04;fill-rule:nonzero}
    .fil73 {fill:#E9BDC0;fill-rule:nonzero}
    .fil21 {fill:#E9C664;fill-rule:nonzero}
    .fil89 {fill:#EADF6C;fill-rule:nonzero}
    .fil54 {fill:#EBA902;fill-rule:nonzero}
    .fil9 {fill:#ED9F9E;fill-rule:nonzero}
    .fil38 {fill:#EDB8B9;fill-rule:nonzero}
    .fil24 {fill:#EEA401;fill-rule:nonzero}
    .fil90 {fill:#EEA603;fill-rule:nonzero}
    .fil36 {fill:#EEBDB8;fill-rule:nonzero}
    .fil51 {fill:#EF150F;fill-rule:nonzero}
    .fil62 {fill:#EFA601;fill-rule:nonzero}
    .fil97 {fill:#EFC3C5;fill-rule:nonzero}
    .fil87 {fill:#EFEDB8;fill-rule:nonzero}
    .fil26 {fill:#F0B7B6;fill-rule:nonzero}
    .fil67 {fill:#F0BABB;fill-rule:nonzero}
    .fil40 {fill:#F0C9CD;fill-rule:nonzero}
    .fil6 {fill:#F4C6CA;fill-rule:nonzero}
    .fil7 {fill:#F5D57E;fill-rule:nonzero}
    .fil71 {fill:#F5E1A4;fill-rule:nonzero}
    .fil45 {fill:#F6BAB8;fill-rule:nonzero}
    .fil44 {fill:#F7EBA6;fill-rule:nonzero}
    .fil33 {fill:#F8E386;fill-rule:nonzero}
    .fil23 {fill:#F9E79F;fill-rule:nonzero}
    .fil37 {fill:#F9EA89;fill-rule:nonzero}
    .fil25 {fill:#F9EAAA;fill-rule:nonzero}
    .fil3 {fill:#FAAF01;fill-rule:nonzero}
    .fil1 {fill:#FAE69F;fill-rule:nonzero}
    .fil50 {fill:#FAF0A9;fill-rule:nonzero}
    .fil13 {fill:#FB492D;fill-rule:nonzero}
    .fil39 {fill:#FBE987;fill-rule:nonzero}
    .fil5 {fill:#FBF1AE;fill-rule:nonzero}
    .fil15 {fill:#FBFCFB;fill-rule:nonzero}
    .fil0 {fill:#FBFDFC;fill-rule:nonzero}
    .fil95 {fill:#FBFDFD;fill-rule:nonzero}
    .fil30 {fill:#FC271E;fill-rule:nonzero}
    .fil4 {fill:#FCF3B1;fill-rule:nonzero}
    .fil78 {fill:#FCF7BC;fill-rule:nonzero}
    .fil35 {fill:#FD2C18;fill-rule:nonzero}
    .fil14 {fill:#FD3527;fill-rule:nonzero}
    .fil99 {fill:#FDF1AC;fill-rule:nonzero}
    .fil83 {fill:#FDF9CE;fill-rule:nonzero}
    .fil96 {fill:#FFF7C0;fill-rule:nonzero}
   ]]>
  </style>
 </defs>
 <g id="Layer_x0020_1">
  <metadata id="CorelCorpID_0Corel-Layer"/>
  <g id="_2366624448736">
   <g>
    <path class="fil0" d="M61.01 1.29c1.78,-0.49 3.58,-0.91 5.42,-1.11 10.49,-1.22 21.22,3.93 27.36,12.4 1.42,2.38 3.03,4.73 3.72,7.45 1.93,5.28 1.75,11.06 0.65,16.5 -0.81,4.17 -3,7.92 -5.65,11.18 -1.81,2.29 -4.05,4.3 -5.23,7.02 -0.25,-0.31 -0.51,-0.62 -0.76,-0.93 -0.01,0.4 -0.03,0.81 -0.04,1.21 -1.46,0.01 -2.91,-0.1 -4.34,-0.36 -0.37,0.36 -0.74,0.71 -1.11,1.06 -0.01,-0.14 -0.04,-0.43 -0.05,-0.57 0.41,-1.84 1.32,-3.5 2.26,-5.11 1.84,-3.02 4.7,-5.24 6.6,-8.22 0.25,-0.35 0.5,-0.72 0.74,-1.08 1.72,-2.24 2.34,-5.15 2.51,-7.91 0.04,-0.36 0.08,-0.71 0.12,-1.07 0.35,-1.92 0.31,-3.89 -0.06,-5.81 -0.02,-0.1 -0.05,-0.31 -0.07,-0.41 -0.21,-1.38 -0.59,-2.73 -1.02,-4.06 -0.19,-1.38 -0.77,-2.65 -1.65,-3.72 -0.97,-1.98 -2.5,-3.58 -3.97,-5.19 -0.97,-1.68 -2.65,-2.85 -4.48,-3.4 -0.1,-0.06 -0.28,-0.15 -0.37,-0.2 -0.89,-1.05 -2.11,-1.71 -3.47,-1.88 -0.21,-0.06 -0.41,-0.13 -0.62,-0.19 -4.16,-1.92 -9.04,-2.07 -13.39,-0.65 -4.37,0.74 -7.91,3.66 -11.06,6.6 -1.35,1.44 -2.94,2.83 -3.51,4.8 -0.33,0.46 -0.65,0.93 -0.95,1.41 -2.99,5.5 -3.3,12.35 -1.38,18.27 0.3,1.29 0.78,2.54 1.57,3.6 1.88,3.7 5.87,5.69 7.74,9.39 1.07,1.69 1.66,3.62 1.97,5.58 0.19,1.78 0.28,3.58 0.61,5.34l0.21 0.02c2.61,0.01 5.22,-0.1 7.84,-0.04 0.56,-4.21 -0.2,-8.45 0.02,-12.68 -0.14,-2.56 0.52,-5.17 -0.18,-7.68 -0.96,-1.39 -1.75,-2.89 -2.74,-4.26 -0.42,-0.63 -0.86,-1.25 -1.35,-1.83 -0.75,-1.1 -1.95,-1.7 -2.98,-2.47 -1.07,-0.78 -1.02,-2.84 0.36,-3.24 1.14,-0.28 2.32,0.05 3.45,0.24 0.35,0.15 0.72,0.29 1.08,0.43 1.04,0.88 2.01,1.83 2.93,2.82 0.31,0.63 0.62,1.27 0.94,1.9 0.36,0.81 0.76,1.61 1.23,2.37 0.64,-1.34 1.18,-2.74 1.83,-4.08 1.58,-2.18 3.82,-3.79 6.43,-4.5 1.06,0.13 2.62,-0.13 3.18,1.04 0.29,0.99 0.34,2.38 -0.66,3 -1,0.66 -2.2,1.02 -3.08,1.87 -1.06,0.96 -2.08,1.99 -2.81,3.22 -0.51,0.89 -1.03,1.77 -1.68,2.57 -0.06,0.08 -0.17,0.25 -0.23,0.34 -0.45,0.61 -0.41,1.39 -0.44,2.12 -0.06,6.26 0.19,12.53 -0.02,18.79 2.54,-0.02 5.07,-0.03 7.61,0.05 0.1,-1.21 0.25,-2.43 0.42,-3.63 0.45,1.23 0.28,2.54 -0.09,3.77 -1.9,0.88 -3.65,2.19 -5.83,2.31 -0.1,0.09 -0.2,0.19 -0.3,0.28 0.33,0.26 0.66,0.53 1,0.79 -0.36,0.64 -0.87,1.18 -1.61,1.33 -4.01,-0.18 -8.03,-0.06 -12.04,-0.13 -0.75,0.06 -1.77,-0.15 -2.22,0.64 0.04,0.89 0.09,1.78 0.11,2.68 1.6,0.33 3.23,0.18 4.84,0.25 4.35,0.64 8.78,0.22 13.15,0.26 -0.14,0.25 -0.28,0.49 -0.42,0.73 0.18,0.34 0.37,0.68 0.55,1.02 -0.72,1.08 -1.13,2.36 -2.04,3.31 -4.74,0.06 -9.47,-0.05 -14.21,-0.04 -1.58,0.03 -3.07,0.63 -4.64,0.72 -2.63,-0.79 -4.1,-3.63 -3.94,-6.25 0.04,-0.33 0.1,-0.65 0.13,-0.97 0.16,-2.47 0.12,-4.96 0.13,-7.44 0.86,-4.08 -1.33,-7.93 -3.97,-10.86 -1.66,-1.75 -3.32,-3.53 -4.6,-5.59 -3.89,-6.43 -4.85,-14.39 -3.32,-21.69 0.17,-0.64 0.37,-1.27 0.59,-1.9 0.6,-1.93 1.4,-3.78 2.44,-5.51 0.4,-0.73 0.81,-1.45 1.24,-2.16 3.48,-5.73 9.4,-9.59 15.6,-11.86z"/>
   </g>
   <g>
    <path class="fil1" d="M64.11 6.24c4.35,-1.42 9.23,-1.27 13.39,0.65 -2.88,-0.5 -5.76,-1.5 -8.72,-1.14 -2.56,0.27 -5.1,0.84 -7.51,1.71 -4.67,2.11 -8.57,5.73 -11.5,9.89l-0.23 0.29c0.57,-1.97 2.16,-3.36 3.51,-4.8 3.15,-2.94 6.69,-5.86 11.06,-6.6z"/>
   </g>
   <g>
    <path class="fil2" d="M68.78 5.75c2.96,-0.36 5.84,0.64 8.72,1.14 0.21,0.06 0.41,0.13 0.62,0.19 1.13,0.68 2.27,1.34 3.47,1.88 0.09,0.05 0.27,0.14 0.37,0.2 1.54,1.06 3.03,2.21 4.48,3.4 1.47,1.61 3,3.21 3.97,5.19 0.05,0.22 0.15,0.66 0.21,0.89l-0.2 -0.3c-3.51,-6.01 -9.64,-10.56 -16.53,-11.81 -3.06,-0.99 -6.39,-0.71 -9.4,0.3 -1.04,0.37 -2.13,0.52 -3.22,0.63 2.41,-0.87 4.95,-1.44 7.51,-1.71z"/>
    <path class="fil2" d="M73.13 55.04c2.09,-1.62 5.91,-2.38 7.28,0.49 -0.52,1.42 -0.51,2.95 -0.77,4.43 -0.06,0.45 -0.39,0.88 -0.89,0.84 -1.96,0.11 -3.92,0 -5.88,-0.02 -0.13,-1.92 0.2,-3.83 0.26,-5.74z"/>
   </g>
   <g>
    <g>
     <path class="fil3" d="M64.49 6.83c3.01,-1.01 6.34,-1.29 9.4,-0.3 6.89,1.25 13.02,5.8 16.53,11.81 0.02,1.16 0.3,2.3 0.21,3.45 -0.84,1.01 -2.51,1.23 -2.91,2.65 -0.53,1.68 -1.78,2.98 -3.08,4.11 -1.08,0.24 -2.2,-0.25 -3.29,-0.33 -1.05,-0.17 -2.15,-0.34 -3.18,0.01 -2.61,0.71 -4.85,2.32 -6.43,4.5 -0.76,0.83 -1.32,1.81 -1.84,2.79 -0.41,-0.36 -0.83,-0.71 -1.22,-1.08 -0.32,-0.63 -0.63,-1.27 -0.94,-1.9 -0.49,-1.31 -1.44,-2.62 -2.93,-2.82 -0.36,-0.14 -0.73,-0.28 -1.08,-0.43 -1.3,-0.71 -2.97,-1.08 -4.34,-0.39 -1.08,1.06 -0.86,3.16 0.44,3.95 1.01,0.66 2.09,1.2 3.07,1.91 0.49,0.58 0.93,1.2 1.35,1.83 0.31,1.69 1.59,2.89 2.26,4.4 0.48,1.85 0.18,3.78 0.13,5.66 -0.24,1.38 -0.32,2.8 -0.73,4.15 -0.31,0.81 -1.34,0.7 -2.05,0.78 -1.62,0 -3.3,0.61 -4.89,0.07 -1.19,-0.66 -1.84,-1.94 -2.78,-2.89 -2.14,-2.86 -5.26,-4.9 -6.97,-8.08 -2.98,-6.17 -3.45,-13.57 -0.81,-19.95 0.47,-1.12 1.03,-2.2 1.36,-3.38 2.93,-4.16 6.83,-7.78 11.5,-9.89 1.09,-0.11 2.18,-0.26 3.22,-0.63zm-3.69 6.64l0 0c-1.67,0.83 -3.12,2.08 -4.5,3.32 -1.19,0.8 -2.29,1.95 -2.65,3.38 -0.03,0.05 -0.11,0.16 -0.14,0.21 -0.83,0.49 -1.03,1.48 -1.39,2.3 -0.43,1.13 -1.1,2.25 -0.95,3.51 -0.34,1.4 -0.4,3.26 0.84,4.26 0.84,0.47 1.89,0.4 2.81,0.23 1.34,-1.07 1.42,-2.95 1.89,-4.49 0.06,-0.1 0.18,-0.31 0.23,-0.41 1.12,-1.17 1.56,-2.85 2.8,-3.96 1.46,-2.14 4.07,-3.06 5.58,-5.15 0.68,-1.38 -0.96,-2.46 -1.57,-3.56 -0.69,-1.27 -2.14,-0.24 -2.95,0.36z"/>
    </g>
   </g>
   <g>
    <path class="fil4" d="M78.12 7.08c1.36,0.17 2.58,0.83 3.47,1.88 -1.2,-0.54 -2.34,-1.2 -3.47,-1.88z"/>
   </g>
   <g>
    <path class="fil5" d="M81.96 9.16c1.83,0.55 3.51,1.72 4.48,3.4 -1.45,-1.19 -2.94,-2.34 -4.48,-3.4z"/>
   </g>
   <path class="fil6" d="M105.01 12.16c3.99,0.37 7.99,-0.32 11.98,-0.05 4.1,0.55 8.37,-0.45 12.35,0.93 0.8,0.28 1.73,0.52 2.14,1.34 -2.8,-1.49 -6.01,-1.78 -9.13,-1.69 -3.85,-0.39 -7.73,-0.19 -11.59,-0.19 -3.18,0.09 -6.37,-0.14 -9.54,0.15 -0.45,0.02 -0.89,0.06 -1.33,0.12 -1.54,-0.06 -3.08,-0.06 -4.62,-0.17 3.2,-0.64 6.5,-0.11 9.74,-0.44z"/>
   <path class="fil6" d="M12.85 20.24c0.72,-0.1 1.43,-0.23 2.16,-0.25 7.06,0.09 14.13,0.14 21.19,0.04 -0.06,0.09 -0.18,0.26 -0.23,0.35 -6.21,0.18 -12.44,0.05 -18.65,0.05 -1.35,0.09 -3.07,-0.54 -4.08,0.66l-0.02 0.17c-0.13,-0.34 -0.25,-0.68 -0.37,-1.02z"/>
   <path class="fil6" d="M139.3 27.14c0.07,-0.12 0.2,-0.36 0.27,-0.47 0.39,4.11 0.11,8.26 0.2,12.39 -0.06,1.06 0.22,2.21 -0.23,3.21l-0.14 0.36c0.02,-5.16 0.02,-10.33 -0.1,-15.49z"/>
   <path class="fil6" d="M8.13 27.13c1.4,0.57 2.26,1.85 3.21,2.93 -1.02,-0.64 -1.83,-1.56 -2.88,-2.18 -0.13,4.68 0.03,9.37 -0.04,14.06l-0.3 0.01c-0.19,-4.93 -0.11,-9.89 0.01,-14.82z"/>
   <path class="fil6" d="M110.54 36.03c1.16,-1.12 2.15,-2.48 3.65,-3.17 -4.18,4.29 -8.51,8.43 -12.75,12.65 -1.06,1 -2.04,2.07 -3.06,3.11 -0.39,0.37 -0.79,0.73 -1.17,1.1 0.28,-0.59 0.55,-1.2 1.03,-1.66 2.18,-2.1 4.2,-4.34 6.44,-6.36 2.07,-1.77 3.93,-3.76 5.86,-5.67z"/>
   <path class="fil6" d="M38.62 82.81c4.18,-4.12 8.36,-8.25 12.51,-12.4 -0.32,0.57 -0.6,1.17 -1.07,1.64 -3.26,3.22 -6.52,6.45 -9.73,9.73 -0.47,0.49 -1.1,0.75 -1.71,1.03z"/>
   <path class="fil6" d="M106.94 89.21c-0.39,-0.41 -0.69,-0.88 -0.98,-1.35 0.29,0.24 0.6,0.47 0.89,0.72 0.33,0.33 0.65,0.67 1.03,0.95 0.05,0.04 0.17,0.14 0.23,0.18 1.26,1.37 2.59,2.69 3.95,3.96 0.03,0.06 0.1,0.16 0.14,0.21 0.18,0.37 0.5,0.62 0.87,0.8 0.04,0.03 0.14,0.09 0.18,0.13 0.04,0.34 0.23,0.57 0.57,0.67 1.81,1.86 3.62,3.73 5.53,5.5 1.24,1.33 2.58,2.57 3.8,3.91 -1.5,-0.69 -2.47,-2.06 -3.64,-3.16 -4.2,-4.17 -8.37,-8.37 -12.57,-12.52z"/>
   <path class="fil6" d="M14.78 106.18c2.47,-1.7 4.17,-4.23 6.38,-6.22 0.14,-0.01 0.43,-0.01 0.57,-0.02 -2.76,2.37 -4.69,5.71 -8,7.4l-0.19 -0.1c0.41,-0.36 0.81,-0.72 1.24,-1.06z"/>
   <g>
    <path class="fil7" d="M60.8 13.47c0.81,-0.6 2.26,-1.63 2.95,-0.36 0.61,1.1 2.25,2.18 1.57,3.56 -1.51,2.09 -4.12,3.01 -5.58,5.15 -1.24,1.11 -1.68,2.79 -2.8,3.96 1.15,-3.16 3.59,-5.71 6.35,-7.56 0.71,-0.58 1.59,-1.2 1.78,-2.15 -0.25,-1.2 -1.04,-2.3 -2.02,-3.02 -0.77,-0.05 -1.52,0.2 -2.25,0.42z"/>
   </g>
   <g>
    <path class="fil8" d="M93.79 12.58c0.49,0.01 0.99,0.02 1.48,0.02 1.54,0.11 3.08,0.11 4.62,0.17l-0.35 0.16c-1.52,0.25 -3.09,-0.01 -4.6,0.38 0.67,1.61 1.52,3.13 2.31,4.68 0.39,0.68 0.85,1.57 1.75,1.56 2.31,0.14 4.64,0.03 6.92,0.52 -2.8,0.03 -5.6,-0.05 -8.41,-0.04 -0.69,-2.72 -2.3,-5.07 -3.72,-7.45z"/>
   </g>
   <g>
    <path class="fil9" d="M101.22 12.65c3.17,-0.29 6.36,-0.06 9.54,-0.15 3.86,0 7.74,-0.2 11.59,0.19 -7.04,-0.05 -14.09,0.08 -21.13,-0.04z"/>
   </g>
   <g>
    <path class="fil10" d="M13.18 12.87c8.7,-0.37 17.43,-0.06 26.14,-0.27l-0.04 0.2c-0.11,0.82 -0.44,1.59 -0.91,2.27 0.16,-0.68 0.27,-1.36 0.38,-2.05 -0.98,-0.08 -1.97,-0.1 -2.95,-0.02 -7.54,-0.02 -15.09,0.19 -22.62,-0.13z"/>
   </g>
   <path class="fil11" d="M99.89 12.77c0.44,-0.06 0.88,-0.1 1.33,-0.12 7.04,0.12 14.09,-0.01 21.13,0.04 3.12,-0.09 6.33,0.2 9.13,1.69 4.59,2.54 7.46,7.6 7.82,12.76 0.12,5.16 0.12,10.33 0.1,15.49l-0.06 -0.31c-0.63,-4.03 -0.18,-8.16 -0.32,-12.22 0.12,-4.77 -1.31,-9.87 -4.95,-13.14 -0.69,-0.69 -1.48,-1.27 -2.3,-1.78 -2.42,-1.63 -5.35,-2.23 -8.22,-2.27 -6.73,-0.09 -13.46,-0.06 -20.18,0.01 -1.05,0.04 -2.1,0.16 -3.16,0.08 -0.17,-0.02 -0.5,-0.06 -0.67,-0.07l0.35 -0.16z"/>
   <path class="fil11" d="M131.61 27.75c0.5,2.21 0.05,4.47 0.12,6.7 0.06,2.56 0.2,5.12 0.05,7.69l-0.33 -0.02c0,-0.16 0,-0.48 0,-0.64 0.2,-4.34 0.02,-8.7 0.09,-13.04 0.02,-0.17 0.05,-0.52 0.07,-0.69z"/>
   <path class="fil11" d="M101.3 83.13c1.74,1.11 3.19,2.66 4.38,4.35 -0.64,-0.63 -1.29,-1.24 -1.94,-1.84 -0.81,-0.84 -1.62,-1.68 -2.44,-2.51z"/>
   <path class="fil11" d="M110.35 108.83c0.83,-0.03 1.67,-0.02 2.51,-0.02 -0.9,0.43 -2.18,1.07 -1.88,2.29 0.41,1.66 0.35,3.37 0.63,5.05 -1.91,0.02 -3.82,0.05 -5.72,-0.06 1.34,-1.12 3.43,-0.27 4.63,-1.55 0.13,-2.69 -3.03,-2.81 -4.43,-4.4 1.46,-0.29 2.9,-0.7 4.26,-1.31z"/>
   <g>
    <path class="fil12" d="M1.96 20.99c2.07,-4.28 6.31,-7.42 11.03,-8.09 -3.41,1.24 -6.92,2.77 -9.13,5.79 -1.47,2.37 -2.92,4.95 -2.97,7.82 -0.19,2.69 -0.19,5.38 0.05,8.06 -0.16,1.86 -0.02,3.76 -0.52,5.58 0.13,-4.41 0.13,-8.82 0.01,-13.22 0.15,-2.06 0.59,-4.09 1.53,-5.94z"/>
   </g>
   <g>
    <path class="fil13" d="M12.99 12.9l0.19 -0.03c7.53,0.32 15.08,0.11 22.62,0.13 -6.49,0.63 -13.01,0.39 -19.52,0.46 -1.44,-0.18 -2.43,0.82 -3.32,1.78 -1.88,1.07 -3.57,2.44 -5.41,3.59 -1.71,1 -2.06,3.14 -3.42,4.48 -0.77,0.69 -0.93,1.73 -1.22,2.67 -0.21,0.66 -1.01,0.95 -1.21,1.57 0.32,2.35 0.15,4.81 -0.76,7.02 -0.24,-2.68 -0.24,-5.37 -0.05,-8.06 0.05,-2.87 1.5,-5.45 2.97,-7.82 2.21,-3.02 5.72,-4.55 9.13,-5.79z"/>
   </g>
   <g>
    <path class="fil14" d="M35.8 13c0.98,-0.08 1.97,-0.06 2.95,0.02 -0.11,0.69 -0.22,1.37 -0.38,2.05 -0.81,1.11 -1.56,2.3 -1.8,3.69 -0.06,-0.15 -0.18,-0.44 -0.24,-0.58 0.15,-1.15 0.42,-2.28 0.69,-3.4 -2.28,-0.34 -4.47,0.39 -6.62,1.02 -2.12,0.14 -4.02,1.27 -6.17,1.19 -1.98,0.55 -4.16,0.13 -5.99,1.15 -1.23,0.32 -2.54,0.16 -3.78,0.48 1.45,0.84 3.17,0.77 4.76,1.16 -2.12,0.21 -4.33,-0.3 -6.37,0.46 0.12,0.34 0.24,0.68 0.37,1.02 0.08,0.19 0.18,0.38 0.29,0.56 -0.58,-0.03 -1.17,-0.1 -1.75,-0.04 -0.94,1.25 -1.13,2.85 -1.32,4.36 -0.28,0.23 -0.59,0.4 -0.89,0.6 1.56,1.39 2.79,3.11 3.92,4.85 -2.22,-1.05 -2.91,-4.17 -5.47,-4.53 -0.11,1.38 -0.22,2.77 -0.26,4.17 -0.47,-1.64 -0.5,-3.35 -0.5,-5.04 -1.89,1.55 -0.92,4.25 -2.4,5.99 -1.18,1.49 -1.15,3.8 -3.04,4.71 -0.25,1.77 -0.55,3.8 0.93,5.15 -0.99,-0.04 -2.68,0.04 -2.4,-1.44 0.02,-0.11 0.07,-0.34 0.09,-0.45 0.5,-1.82 0.36,-3.72 0.52,-5.58 0.91,-2.21 1.08,-4.67 0.76,-7.02 0.2,-0.62 1,-0.91 1.21,-1.57 0.29,-0.94 0.45,-1.98 1.22,-2.67 1.36,-1.34 1.71,-3.48 3.42,-4.48 1.84,-1.15 3.53,-2.52 5.41,-3.59 0.89,-0.96 1.88,-1.96 3.32,-1.78 6.51,-0.07 13.03,0.17 19.52,-0.46z"/>
   </g>
   <g>
    <path class="fil15" d="M60.8 13.47c0.73,-0.22 1.48,-0.47 2.25,-0.42 0.98,0.72 1.77,1.82 2.02,3.02 -0.19,0.95 -1.07,1.57 -1.78,2.15 -2.76,1.85 -5.2,4.4 -6.35,7.56 -0.05,0.1 -0.17,0.31 -0.23,0.41 -0.75,1.02 -0.89,2.32 -1.47,3.42 -0.85,1.18 -2.79,0.7 -3.59,-0.3 -0.57,-1.03 -0.37,-2.27 -0.38,-3.39 0.74,-1.85 1.4,-3.73 2.24,-5.54 0.03,-0.05 0.11,-0.16 0.14,-0.21 0.92,-1.1 1.78,-2.25 2.65,-3.38 1.38,-1.24 2.83,-2.49 4.5,-3.32z"/>
   </g>
   <g>
    <path class="fil16" d="M94.94 13.31c1.51,-0.39 3.08,-0.13 4.6,-0.38 0.17,0.01 0.5,0.05 0.67,0.07 -0.01,1.23 0.06,2.65 1.1,3.5 2.51,1.89 5.44,3.65 8.73,3.32 5.28,0.13 10.58,0.19 15.84,-0.33 0.05,0.11 0.15,0.33 0.2,0.44 -6.65,0.35 -13.31,0.02 -19.97,0.15l-0.19 -0.01c-2.28,-0.49 -4.61,-0.38 -6.92,-0.52 -0.9,0.01 -1.36,-0.88 -1.75,-1.56 -0.79,-1.55 -1.64,-3.07 -2.31,-4.68z"/>
   </g>
   <g>
    <path class="fil17" d="M100.21 13c1.06,0.08 2.11,-0.04 3.16,-0.08 -0.45,0.26 -0.88,0.54 -1.31,0.83 1.37,1.94 3.37,3.3 5.25,4.7 0.81,0.62 1.71,1.16 2.73,1.37 -3.29,0.33 -6.22,-1.43 -8.73,-3.32 -1.04,-0.85 -1.11,-2.27 -1.1,-3.5z"/>
    <path class="fil17" d="M36.33 18.18c0.06,0.14 0.18,0.43 0.24,0.58 -0.05,0.27 -0.11,0.54 -0.16,0.81 -0.06,0.11 -0.16,0.35 -0.21,0.46 -7.06,0.1 -14.13,0.05 -21.19,-0.04 -0.73,0.02 -1.44,0.15 -2.16,0.25 2.04,-0.76 4.25,-0.25 6.37,-0.46 5.57,0.11 11.14,0.07 16.72,-0.03 0.13,-0.52 0.26,-1.05 0.39,-1.57z"/>
   </g>
   <g>
    <path class="fil18" d="M103.37 12.92c6.72,-0.07 13.45,-0.1 20.18,-0.01 2.87,0.04 5.8,0.64 8.22,2.27 -0.13,0.4 -0.25,0.81 -0.36,1.22 0.27,0.47 0.72,0.9 0.76,1.48 -0.42,0.28 -0.88,0.48 -1.34,0.69 1.15,0.87 0.53,2.34 0.51,3.53 -0.12,1.03 0.43,1.97 0.48,2.98 -0.44,0.68 -1,1.3 -1.26,2.08 -0.48,0.36 -0.93,0.76 -1.32,1.21 -1.35,-1.53 0.15,-3.36 -0.36,-5.07 -0.31,-0.85 -0.97,-1.49 -1.53,-2.18 -0.6,0.14 -1.21,0.28 -1.81,0.42l0.08 -0.19c0.2,-0.38 0.39,-0.77 0.55,-1.17l-0.09 -0.25c-0.05,-0.11 -0.15,-0.33 -0.2,-0.44 -5.26,0.52 -10.56,0.46 -15.84,0.33 -1.02,-0.21 -1.92,-0.75 -2.73,-1.37 -1.88,-1.4 -3.88,-2.76 -5.25,-4.7 0.43,-0.29 0.86,-0.57 1.31,-0.83z"/>
   </g>
   <g>
    <path class="fil19" d="M30.4 15.8c2.15,-0.63 4.34,-1.36 6.62,-1.02 -0.27,1.12 -0.54,2.25 -0.69,3.4 -0.13,0.52 -0.26,1.05 -0.39,1.57 -5.58,0.1 -11.15,0.14 -16.72,0.03 -1.59,-0.39 -3.31,-0.32 -4.76,-1.16 1.24,-0.32 2.55,-0.16 3.78,-0.48 1.83,-1.02 4.01,-0.6 5.99,-1.15 2.15,0.08 4.05,-1.05 6.17,-1.19z"/>
    <path class="fil19" d="M53.03 60.88l0 -0.02c-0.01,2.48 0.03,4.97 -0.13,7.44 0.05,-2.47 0.03,-4.95 0.13,-7.42z"/>
   </g>
   <g>
    <path class="fil20" d="M131.77 15.18c0.82,0.51 1.61,1.09 2.3,1.78 0.47,1.41 1.51,2.54 2.05,3.91 0.08,1.49 -0.52,2.94 -1.13,4.28 -0.73,1.74 -2.92,1.51 -4.43,2.01 0.26,-0.78 0.82,-1.4 1.26,-2.08 -0.05,-1.01 -0.6,-1.95 -0.48,-2.98 0.02,-1.19 0.64,-2.66 -0.51,-3.53 0.46,-0.21 0.92,-0.41 1.34,-0.69 -0.04,-0.58 -0.49,-1.01 -0.76,-1.48 0.11,-0.41 0.23,-0.82 0.36,-1.22z"/>
   </g>
   <g>
    <path class="fil21" d="M53.65 20.17c0.36,-1.43 1.46,-2.58 2.65,-3.38 -0.87,1.13 -1.73,2.28 -2.65,3.38z"/>
   </g>
   <path class="fil20" d="M134.07 16.96c3.64,3.27 5.07,8.37 4.95,13.14 0.14,4.06 -0.31,8.19 0.32,12.22 -0.98,-0.02 -1.96,-0.03 -2.93,-0.05 -1.3,-0.02 -2.6,-0.04 -3.9,-0.1 -0.18,-0.01 -0.55,-0.02 -0.73,-0.03 0.15,-2.57 0.01,-5.13 -0.05,-7.69 -0.07,-2.23 0.38,-4.49 -0.12,-6.7 -0.16,-0.06 -0.49,-0.17 -0.65,-0.23 -0.27,0.22 -0.53,0.44 -0.79,0.67 -0.29,0.2 -0.59,0.4 -0.9,0.6l-0.39 0.15c0.09,-0.14 0.27,-0.43 0.36,-0.57 0.39,-0.45 0.84,-0.85 1.32,-1.21 1.51,-0.5 3.7,-0.27 4.43,-2.01 0.61,-1.34 1.21,-2.79 1.13,-4.28 -0.54,-1.37 -1.58,-2.5 -2.05,-3.91z"/>
   <g>
    <path class="fil22" d="M49.54 17.64l0.23 -0.29c-0.33,1.18 -0.89,2.26 -1.36,3.38 -2.64,6.38 -2.17,13.78 0.81,19.95 1.71,3.18 4.83,5.22 6.97,8.08 0.73,1.65 1.87,3.11 2.32,4.88 0.66,2.32 0.89,4.73 1.12,7.13 2.33,0.25 4.69,0.16 7.02,-0.02 0.32,-4.69 0.06,-9.41 -0.01,-14.1 0.05,-1.88 0.35,-3.81 -0.13,-5.66 -0.67,-1.51 -1.95,-2.71 -2.26,-4.4 0.99,1.37 1.78,2.87 2.74,4.26 0,6.79 -0.1,13.58 0.16,20.36 -2.62,-0.06 -5.23,0.05 -7.84,0.04 -0.13,-1.81 -0.32,-3.62 -0.82,-5.36 -0.31,-1.96 -0.9,-3.89 -1.97,-5.58 -1.87,-3.7 -5.86,-5.69 -7.74,-9.39 -1.62,-4.07 -2.69,-8.46 -2.35,-12.87 0.15,-3.11 1.14,-6.08 2.16,-9 0.3,-0.48 0.62,-0.95 0.95,-1.41z"/>
   </g>
   <g>
    <path class="fil23" d="M90.41 17.75c0.88,1.07 1.46,2.34 1.65,3.72 -0.45,-0.96 -0.91,-1.92 -1.44,-2.83 -0.06,-0.23 -0.16,-0.67 -0.21,-0.89z"/>
   </g>
   <g>
    <path class="fil24" d="M90.42 18.34l0.2 0.3c0.53,0.91 0.99,1.87 1.44,2.83 0.43,1.33 0.81,2.68 1.02,4.06 -0.14,-0.18 -0.28,-0.37 -0.43,-0.55 0.17,1.13 0.06,2.28 -0.82,3.1 -0.88,0.91 1.34,1.35 0.59,2.36 -0.59,0.67 -1.61,0.4 -2.35,0.16 -0.06,0.27 -0.12,0.55 -0.18,0.82 -1.37,-0.31 -2.59,0.6 -3.75,1.19 -0.91,0.46 -0.28,1.6 -0.21,2.37 -1.48,0.85 -2.59,2.17 -3.72,3.42 -1.11,1.38 -3.03,1.37 -4.57,1.95 -0.92,-0.58 -2,-0.81 -3.08,-0.93 0.11,-0.68 0.19,-1.37 0.24,-2.06 0.73,-1.23 1.75,-2.26 2.81,-3.22 1.32,-0.65 2.88,-0.95 3.97,-2 0.89,-1.16 0.49,-2.78 -0.23,-3.92 1.09,0.08 2.21,0.57 3.29,0.33 1.3,-1.13 2.55,-2.43 3.08,-4.11 0.4,-1.42 2.07,-1.64 2.91,-2.65 0.09,-1.15 -0.19,-2.29 -0.21,-3.45z"/>
   </g>
   <g>
    <path class="fil25" d="M47.21 37.32c-1.92,-5.92 -1.61,-12.77 1.38,-18.27 -1.02,2.92 -2.01,5.89 -2.16,9 -0.34,4.41 0.73,8.8 2.35,12.87 -0.79,-1.06 -1.27,-2.31 -1.57,-3.6z"/>
   </g>
   <g>
    <path class="fil26" d="M106.11 20.08c6.66,-0.13 13.32,0.2 19.97,-0.15l0.09 0.25c-5.13,0.34 -10.28,0.31 -15.42,0.22 -1.55,0.03 -3.11,-0.01 -4.64,-0.32z"/>
   </g>
   <g>
    <path class="fil27" d="M52.12 22.68c0.36,-0.82 0.56,-1.81 1.39,-2.3 -0.84,1.81 -1.5,3.69 -2.24,5.54l-0.1 0.27c-0.15,-1.26 0.52,-2.38 0.95,-3.51z"/>
   </g>
   <g>
    <path class="fil28" d="M13.22 21.26l0.02 -0.17c11.54,11.76 23.33,23.28 34.98,34.94 1.33,1.34 2.51,2.85 4.1,3.89 0.25,0.31 0.5,0.62 0.71,0.96 -0.1,2.47 -0.08,4.95 -0.13,7.42 -0.03,0.32 -0.09,0.64 -0.13,0.97 -0.59,0.3 -1.19,0.64 -1.64,1.14 -4.15,4.15 -8.33,8.28 -12.51,12.4 -4.75,4.7 -9.44,9.46 -14.33,14.01 0.37,-0.6 0.73,-1.21 1.17,-1.76 9.11,-8.54 17.89,-17.44 26.76,-26.23 0.65,-1.27 0.22,-2.8 0.34,-4.17 -0.1,-1.39 0.35,-3.02 -0.56,-4.22 -3.84,-3.67 -7.3,-7.75 -11.29,-11.27 -2.48,-2.9 -5.35,-5.45 -8.05,-8.13 -4,-3.96 -8.07,-7.85 -11.96,-11.91 -2.37,-2.47 -4.82,-4.85 -7.19,-7.31 -0.11,-0.18 -0.21,-0.37 -0.29,-0.56z"/>
    <path class="fil28" d="M8 27.06c2.56,0.36 3.25,3.48 5.47,4.53 1.53,1.93 3.94,3.01 5.11,5.24 -1.03,-1.1 -2.1,-2.16 -3.29,-3.09 -1.28,-1.26 -2.67,-2.41 -3.95,-3.68 -0.95,-1.08 -1.81,-2.36 -3.21,-2.93 -0.12,4.93 -0.2,9.89 -0.01,14.82 -1.05,0.06 -2.1,0 -3.15,0.01 1.01,-0.26 3.1,0.24 2.92,-1.35 -0.25,-3.12 -0.15,-6.26 -0.15,-9.38 0.04,-1.4 0.15,-2.79 0.26,-4.17z"/>
    <path class="fil28" d="M124.87 33.06c0.94,-1.71 2.52,-2.9 4.01,-4.12l0.39 -0.15c-1.41,1.48 -2.88,2.9 -4.4,4.27z"/>
    <path class="fil28" d="M116.95 40.7c1.55,-1.96 3.3,-3.88 5.42,-5.24 -1.6,1.65 -3.28,3.21 -4.89,4.84 -0.18,0.13 -0.36,0.26 -0.53,0.4z"/>
    <path class="fil28" d="M137.18 106.85c0.39,-1.04 0.86,-2.07 1.66,-2.87 -0.1,0.39 -0.2,0.79 -0.3,1.18 -1.35,3.58 -3.74,6.75 -7.01,8.78 -3.12,2 -6.84,2.38 -10.46,2.21 -3.15,-0.06 -6.31,-0.04 -9.46,0 -0.28,-1.68 -0.22,-3.39 -0.63,-5.05 -0.3,-1.22 0.98,-1.86 1.88,-2.29 1.04,-0.03 2.08,-0.01 3.13,-0.01 -0.8,0.5 -1.73,0.71 -2.65,0.84 0.62,1.76 1.4,3.63 0.63,5.48 1.84,0.67 3.8,0.8 5.75,0.7 2.72,-0.17 5.58,0.32 8.18,-0.73 3.89,-1.6 7.67,-4.2 9.28,-8.24z"/>
   </g>
   <g>
    <path class="fil20" d="M125.54 21.54c0.6,-0.14 1.21,-0.28 1.81,-0.42 0.56,0.69 1.22,1.33 1.53,2.18 0.51,1.71 -0.99,3.54 0.36,5.07 -0.09,0.14 -0.27,0.43 -0.36,0.57 -1.49,1.22 -3.07,2.41 -4.01,4.12 -0.82,0.82 -1.65,1.62 -2.5,2.4 -2.12,1.36 -3.87,3.28 -5.42,5.24 -2.23,2.38 -4.72,4.5 -7.03,6.8 -1.64,0.51 -2.75,2.08 -4.48,2.34 -2.08,0.08 -4.08,-0.66 -6.15,-0.63 0.54,-1.06 1.23,-2.04 2.12,-2.84 1.94,-1.17 4.58,-1.3 5.85,-3.42 1.42,-2.19 4.25,-2.4 5.98,-4.18 2.21,-1.53 3.51,-4.08 5.9,-5.39 2.12,-2.21 3.82,-4.77 5.48,-7.35 0.89,-1.33 0.38,-3.04 0.92,-4.49z"/>
   </g>
   <g>
    <path class="fil29" d="M124.31 22.78c0.43,-0.48 0.88,-0.94 1.31,-1.43l-0.08 0.19c-0.54,1.45 -0.03,3.16 -0.92,4.49 -1.66,2.58 -3.36,5.14 -5.48,7.35 -2.39,1.31 -3.69,3.86 -5.9,5.39 -1.73,1.78 -4.56,1.99 -5.98,4.18 -1.27,2.12 -3.91,2.25 -5.85,3.42 0.23,-0.34 0.45,-0.69 0.68,-1.04 7.28,-6.74 14.06,-14 21.19,-20.89 0.46,-0.47 0.73,-1.08 1.03,-1.66z"/>
   </g>
   <g>
    <path class="fil30" d="M11.76 21.78c0.58,-0.06 1.17,0.01 1.75,0.04 2.37,2.46 4.82,4.84 7.19,7.31 -0.44,0.24 -0.87,0.49 -1.3,0.75 1.16,0.96 2.13,2.12 2.85,3.43 0.69,1.46 2.65,1.79 2.92,3.52 -0.49,0.09 -0.98,0.18 -1.47,0.28 0.65,0.8 1.4,1.51 2.04,2.31 -0.46,0.66 -0.98,1.31 -1.15,2.13 1.11,1.13 2.04,2.43 3,3.69 -0.15,0.01 -0.44,0.02 -0.59,0.02 0.06,-0.39 -0.12,-0.59 -0.55,-0.6 -1,-0.83 -1.9,-1.76 -2.75,-2.74 -0.84,-1.21 -1.86,-2.3 -3.11,-3.09 -0.74,-0.6 -1.43,-1.26 -2.01,-2 -1.17,-2.23 -3.58,-3.31 -5.11,-5.24 -1.13,-1.74 -2.36,-3.46 -3.92,-4.85 0.3,-0.2 0.61,-0.37 0.89,-0.6 0.19,-1.51 0.38,-3.11 1.32,-4.36z"/>
   </g>
   <g>
    <path class="fil31" d="M114.19 32.86c3.4,-3.33 6.67,-6.8 10.12,-10.08 -0.3,0.58 -0.57,1.19 -1.03,1.66 -7.13,6.89 -13.91,14.15 -21.19,20.89 -0.16,0.05 -0.49,0.13 -0.65,0.18 4.24,-4.22 8.57,-8.36 12.75,-12.65z"/>
   </g>
   <g>
    <path class="fil32" d="M92.65 24.98c0.15,0.18 0.29,0.37 0.43,0.55 0.02,0.1 0.05,0.31 0.07,0.41 -0.01,1.94 -0.15,3.88 0.06,5.81 -0.04,0.36 -0.08,0.71 -0.12,1.07 -0.63,2.7 -1.29,5.4 -2.51,7.91 -0.24,0.36 -0.49,0.73 -0.74,1.08 -1.08,0.71 -2.2,1.82 -3.58,1.22 0.09,0.45 0.2,0.89 0.25,1.34 -2.19,0.91 -4.41,1.87 -6.76,2.31 -0.84,0.24 -1.46,-0.47 -2.09,-0.88 -1.04,-0.84 -2.36,-1.17 -3.63,-1.51 -0.58,-1.39 -0.89,-2.86 -0.91,-4.36 0.65,-0.8 1.17,-1.68 1.68,-2.57 -0.05,0.69 -0.13,1.38 -0.24,2.06 1.08,0.12 2.16,0.35 3.08,0.93 1.54,-0.58 3.46,-0.57 4.57,-1.95 1.13,-1.25 2.24,-2.57 3.72,-3.42 -0.07,-0.77 -0.7,-1.91 0.21,-2.37 1.16,-0.59 2.38,-1.5 3.75,-1.19 0.06,-0.27 0.12,-0.55 0.18,-0.82 0.74,0.24 1.76,0.51 2.35,-0.16 0.75,-1.01 -1.47,-1.45 -0.59,-2.36 0.88,-0.82 0.99,-1.97 0.82,-3.1z"/>
   </g>
   <g>
    <path class="fil33" d="M51.17 26.19l0.1 -0.27c0.01,1.12 -0.19,2.36 0.38,3.39 0.8,1 2.74,1.48 3.59,0.3 0.58,-1.1 0.72,-2.4 1.47,-3.42 -0.47,1.54 -0.55,3.42 -1.89,4.49 -0.92,0.17 -1.97,0.24 -2.81,-0.23 -1.24,-1 -1.18,-2.86 -0.84,-4.26z"/>
   </g>
   <g>
    <path class="fil34" d="M93.15 25.94c0.37,1.92 0.41,3.89 0.06,5.81 -0.21,-1.93 -0.07,-3.87 -0.06,-5.81z"/>
   </g>
   <g>
    <path class="fil35" d="M4.84 32.18c1.48,-1.74 0.51,-4.44 2.4,-5.99 0,1.69 0.03,3.4 0.5,5.04 0,3.12 -0.1,6.26 0.15,9.38 0.18,1.59 -1.91,1.09 -2.92,1.35 -0.75,0.03 -1.49,0.08 -2.24,0.08 -1.48,-1.35 -1.18,-3.38 -0.93,-5.15 1.89,-0.91 1.86,-3.22 3.04,-4.71z"/>
   </g>
   <g>
    <path class="fil36" d="M0.14 35.47c0.13,-2.85 -0.3,-5.73 0.29,-8.54 0.12,4.4 0.12,8.81 -0.01,13.22 -0.02,0.11 -0.07,0.34 -0.09,0.45 -0.09,0.36 -0.19,0.73 -0.28,1.09 -0.16,-2.07 0.14,-4.14 0.09,-6.22z"/>
   </g>
   <g>
    <path class="fil37" d="M78.17 28.23c1.03,-0.35 2.13,-0.18 3.18,-0.01 0.72,1.14 1.12,2.76 0.23,3.92 -1.09,1.05 -2.65,1.35 -3.97,2 0.88,-0.85 2.08,-1.21 3.08,-1.87 1,-0.62 0.95,-2.01 0.66,-3 -0.56,-1.17 -2.12,-0.91 -3.18,-1.04z"/>
   </g>
   <g>
    <path class="fil38" d="M129.27 28.79c0.31,-0.2 0.61,-0.4 0.9,-0.6 -2.76,3.55 -6.46,6.22 -9.49,9.53 -0.96,0.98 -1.86,2.1 -3.2,2.58 1.61,-1.63 3.29,-3.19 4.89,-4.84 0.85,-0.78 1.68,-1.58 2.5,-2.4 1.52,-1.37 2.99,-2.79 4.4,-4.27z"/>
   </g>
   <g>
    <path class="fil39" d="M59.39 28.9c1.37,-0.69 3.04,-0.32 4.34,0.39 -1.13,-0.19 -2.31,-0.52 -3.45,-0.24 -1.38,0.4 -1.43,2.46 -0.36,3.24 1.03,0.77 2.23,1.37 2.98,2.47 -0.98,-0.71 -2.06,-1.25 -3.07,-1.91 -1.3,-0.79 -1.52,-2.89 -0.44,-3.95z"/>
   </g>
   <g>
    <path class="fil40" d="M131.19 35.21c0.05,-2.26 -0.27,-4.56 0.35,-6.77 -0.07,4.34 0.11,8.7 -0.09,13.04 -0.54,-2.05 -0.21,-4.17 -0.26,-6.27z"/>
   </g>
   <g>
    <path class="fil41" d="M19.4 29.88c0.43,-0.26 0.86,-0.51 1.3,-0.75 3.89,4.06 7.96,7.95 11.96,11.91 -0.55,0.11 -1.1,0.21 -1.64,0.32 0.16,0.9 0.79,1.56 1.5,2.1 -0.14,0.28 -0.28,0.56 -0.41,0.84 0.81,0.89 1.62,1.78 2.44,2.66 -0.74,-0.17 -1.48,-0.35 -2.17,-0.68 -0.04,1.12 -0.22,2.23 -0.54,3.31 -1.39,-1.48 -2.95,-2.79 -4.25,-4.35 -0.96,-1.26 -1.89,-2.56 -3,-3.69 0.17,-0.82 0.69,-1.47 1.15,-2.13 -0.64,-0.8 -1.39,-1.51 -2.04,-2.31 0.49,-0.1 0.98,-0.19 1.47,-0.28 -0.27,-1.73 -2.23,-2.06 -2.92,-3.52 -0.72,-1.31 -1.69,-2.47 -2.85,-3.43z"/>
   </g>
   <g>
    <path class="fil42" d="M64.81 29.72c1.49,0.2 2.44,1.51 2.93,2.82 -0.92,-0.99 -1.89,-1.94 -2.93,-2.82z"/>
   </g>
   <g>
    <path class="fil43" d="M69.9 35.52c0.52,-0.98 1.08,-1.96 1.84,-2.79 -0.65,1.34 -1.19,2.74 -1.83,4.08 -0.47,-0.76 -0.87,-1.56 -1.23,-2.37 0.39,0.37 0.81,0.72 1.22,1.08z"/>
   </g>
   <g>
    <path class="fil44" d="M90.58 40.73c1.22,-2.51 1.88,-5.21 2.51,-7.91 -0.17,2.76 -0.79,5.67 -2.51,7.91z"/>
   </g>
   <g>
    <path class="fil45" d="M15.29 33.74c1.19,0.93 2.26,1.99 3.29,3.09 0.58,0.74 1.27,1.4 2.01,2 1.06,1 2.08,2.05 3.11,3.09 0.85,0.98 1.75,1.91 2.75,2.74 0.06,0.31 0.25,0.51 0.55,0.6 2.06,2.16 4.26,4.18 6.31,6.35 -0.92,-0.45 -1.71,-1.09 -2.37,-1.86 -4.45,-4.42 -8.89,-8.86 -13.31,-13.31 -0.9,-0.79 -1.82,-1.59 -2.34,-2.7z"/>
   </g>
   <g>
    <path class="fil46" d="M20.59 38.83c1.25,0.79 2.27,1.88 3.11,3.09 -1.03,-1.04 -2.05,-2.09 -3.11,-3.09z"/>
    <path class="fil46" d="M106.76 108.79c1.19,-0.01 2.39,0.03 3.59,0.04 -1.36,0.61 -2.8,1.02 -4.26,1.31 1.4,1.59 4.56,1.71 4.43,4.4 -1.2,1.28 -3.29,0.43 -4.63,1.55l-0.24 0.01 -0.27 0c0.87,-0.95 2.12,-1.3 3.32,-1.61 -1.66,-1.26 -3.5,-2.29 -4.88,-3.88 0.81,-0.85 1.85,-1.42 2.94,-1.82z"/>
   </g>
   <g>
    <path class="fil47" d="M72.89 40.27c0.06,-0.09 0.17,-0.26 0.23,-0.34 0.02,1.5 0.33,2.97 0.91,4.36 1.27,0.34 2.59,0.67 3.63,1.51 0.63,0.41 1.25,1.12 2.09,0.88 2.35,-0.44 4.57,-1.4 6.76,-2.31 -0.05,-0.45 -0.16,-0.89 -0.25,-1.34 1.38,0.6 2.5,-0.51 3.58,-1.22 -1.9,2.98 -4.76,5.2 -6.6,8.22 -0.86,0.67 -1.5,1.58 -1.82,2.62 -0.34,-0.64 -0.69,-1.28 -1.06,-1.91 -2.32,0.87 -4.35,-1.49 -6.69,-0.51 -0.26,-0.59 -0.52,-1.17 -0.73,-1.77 -0.07,-2.73 -0.01,-5.46 -0.05,-8.19z"/>
   </g>
   <g>
    <path class="fil48" d="M72.45 42.39c0.03,-0.73 -0.01,-1.51 0.44,-2.12 0.04,2.73 -0.02,5.46 0.05,8.19 -0.09,2.2 0.04,4.39 0.19,6.58 -0.06,1.91 -0.39,3.82 -0.26,5.74 1.96,0.02 3.92,0.13 5.88,0.02 0.5,0.04 0.83,-0.39 0.89,-0.84 0.26,-1.48 0.25,-3.01 0.77,-4.43 0.33,-0.96 0.66,-1.92 1.01,-2.88 0.32,-1.04 0.96,-1.95 1.82,-2.62 -0.94,1.61 -1.85,3.27 -2.26,5.11 -0.23,0.81 -0.43,1.62 -0.52,2.46 -0.17,1.2 -0.32,2.42 -0.42,3.63 -2.54,-0.08 -5.07,-0.07 -7.61,-0.05 0.21,-6.26 -0.04,-12.53 0.02,-18.79z"/>
   </g>
   <g>
    <path class="fil49" d="M0.05 41.69c0.09,-0.36 0.19,-0.73 0.28,-1.09 -0.28,1.48 1.41,1.4 2.4,1.44 0.75,0 1.49,-0.05 2.24,-0.08 1.05,-0.01 2.1,0.05 3.15,-0.01l0.3 -0.01 0 0.1c-0.07,0.17 -0.23,0.51 -0.3,0.69l-0.25 -0.2c-2.58,-0.36 -5.22,0.16 -7.83,-0.02 -0.01,-0.13 -0.03,-0.39 -0.04,-0.52 0.01,-0.08 0.04,-0.22 0.05,-0.3z"/>
   </g>
   <g>
    <path class="fil50" d="M66.99 40.85c0.7,2.51 0.04,5.12 0.18,7.68 -0.22,4.23 0.54,8.47 -0.02,12.68 -0.26,-6.78 -0.16,-13.57 -0.16,-20.36z"/>
   </g>
   <g>
    <path class="fil51" d="M31.02 41.36c0.54,-0.11 1.09,-0.21 1.64,-0.32 2.7,2.68 5.57,5.23 8.05,8.13 0.91,1.61 2.38,2.77 3.45,4.25 -0.31,0.67 -1.32,0.26 -1.94,0.34 0.77,0.68 1.44,1.89 2.64,1.58 -0.1,-0.52 -0.2,-1.04 -0.29,-1.56 0.46,0.43 1.12,0.89 1.02,1.61 -0.15,1.12 -1.26,1.7 -2.02,2.39 0.05,0.88 -0.16,1.74 -1.09,2.01 0.24,-0.41 0.49,-0.82 0.74,-1.22 -0.49,-0.25 -0.97,-0.49 -1.46,-0.72 0.02,0.34 0.04,0.68 0.07,1.02 -0.36,-0.14 -0.72,-0.28 -1.07,-0.43 -0.91,-0.86 -1.79,-1.74 -2.83,-2.44 -1.02,-0.96 -2.06,-1.91 -2.95,-2.99 -0.61,-1.5 -2.12,-2.25 -3.14,-3.42 0.32,-1.08 0.5,-2.19 0.54,-3.31 0.69,0.33 1.43,0.51 2.17,0.68 -0.82,-0.88 -1.63,-1.77 -2.44,-2.66 0.13,-0.28 0.27,-0.56 0.41,-0.84 -0.71,-0.54 -1.34,-1.2 -1.5,-2.1z"/>
   </g>
   <g>
    <path class="fil52" d="M8.42 42.04c0.12,0.88 0.24,1.76 0.24,2.65 -0.07,14.93 -0.07,29.87 -0.08,44.8 -0.08,3.09 -0.06,6.19 0.22,9.27 0.08,0.86 0.04,1.74 -0.24,2.56l-0.21 0.16c-0.36,-2.06 -0.11,-4.16 -0.33,-6.24 0.13,-17.5 -0.24,-35.02 0.1,-52.51 0.07,-0.18 0.23,-0.52 0.3,-0.69z"/>
   </g>
   <g>
    <path class="fil53" d="M131.45 42.12l0.33 0.02c0.18,0.01 0.55,0.02 0.73,0.03 -0.2,0.16 -0.39,0.32 -0.59,0.48 0.09,8.93 -0.17,17.86 0.13,26.78 -0.14,1.37 -0.16,2.75 -0.15,4.13 0.01,0.12 0.01,0.36 0.01,0.48 -0.18,4.39 -0.33,8.81 -0.09,13.21 0,0.09 0,0.28 0,0.38 -0.13,2.2 -0.18,4.4 -0.11,6.6 -0.01,0.87 -0.06,1.74 0,2.61 0.05,1.45 0.15,2.92 -0.09,4.37l-0.1 0.22c0.08,-19.77 0.01,-39.54 -0.07,-59.31z"/>
   </g>
   <g>
    <path class="fil54" d="M132.51 42.17c1.3,0.06 2.6,0.08 3.9,0.1 0.62,0.95 1.27,2.16 0.51,3.24 -1.27,3.97 -2.37,8.06 -2.64,12.24 -0.09,0.78 -0.33,1.53 -0.5,2.29 -0.31,1.25 0.36,2.53 -0.08,3.77 -0.58,1.87 -0.3,4.03 -1.65,5.62 -0.3,-8.92 -0.04,-17.85 -0.13,-26.78 0.2,-0.16 0.39,-0.32 0.59,-0.48z"/>
   </g>
   <g>
    <path class="fil55" d="M0.04 42.51c2.61,0.18 5.25,-0.34 7.83,0.02 -0.15,5.73 0,11.46 -0.06,17.2 -0.22,0 -0.44,0 -0.67,0 -0.67,1.07 -1.06,2.49 -2.15,3.19 -1.76,-0.14 -4.02,0.42 -4.1,2.58 -0.13,-0.09 -0.4,-0.27 -0.54,-0.36 -0.15,-7.54 0.26,-15.1 -0.31,-22.63z"/>
   </g>
   <g>
    <path class="fil56" d="M136.41 42.27c0.97,0.02 1.95,0.03 2.93,0.05 -0.05,11.06 0.06,22.12 -0.06,33.19 -0.31,-1.52 -0.3,-3.08 -0.47,-4.61 -0.21,-3.29 0.21,-6.6 -0.21,-9.88 -0.72,0.41 -1.56,0.84 -1.8,1.7 -1.2,3.95 -1.56,8.39 -4.23,11.7 -0.23,-0.29 -0.45,-0.58 -0.67,-0.86 -0.01,-1.38 0.01,-2.76 0.15,-4.13 1.35,-1.59 1.07,-3.75 1.65,-5.62 0.44,-1.24 -0.23,-2.52 0.08,-3.77 0.17,-0.76 0.41,-1.51 0.5,-2.29 0.27,-4.18 1.37,-8.27 2.64,-12.24 0.76,-1.08 0.11,-2.29 -0.51,-3.24z"/>
   </g>
   <g>
    <path class="fil57" d="M139.34 42.32l0.06 0.31c-0.05,10.24 0,20.49 -0.01,30.73 -0.14,9.31 0.18,18.63 -0.13,27.94 0.1,-1.95 0.06,-3.9 0.09,-5.85 0,-1.32 -0.01,-2.63 -0.02,-3.95 -0.02,-3.79 0.06,-7.57 -0.03,-11.35 0.04,-1.34 0.03,-2.68 0,-4.01 -0.01,-0.16 -0.01,-0.48 -0.02,-0.63 0.12,-11.07 0.01,-22.13 0.06,-33.19z"/>
    <path class="fil57" d="M7.87 42.53l0.25 0.2c-0.34,17.49 0.03,35.01 -0.1,52.51 -0.58,-5.92 0.06,-11.92 -0.29,-17.87 0.21,-5.88 -0.05,-11.76 0.08,-17.64 0.06,-5.74 -0.09,-11.47 0.06,-17.2z"/>
    <path class="fil57" d="M4.92 111.28c3.65,1.93 7.3,4.9 11.68,4.41 9.21,-0.19 18.44,0.2 27.64,-0.25 5.27,-0.01 10.56,0.41 15.83,0.01 6.79,0.57 13.63,-0.16 20.42,0.54 2.11,0.12 4.22,0.07 6.33,0.09 5.14,0.15 10.28,-0.05 15.42,0.03 0.47,0.02 0.94,0.06 1.41,0.08 -1.22,0.07 -2.43,0.15 -3.64,0.14 -27.4,0.03 -54.79,-0.16 -82.18,-0.07 -4.76,0.31 -9.46,-1.8 -12.91,-4.98z"/>
   </g>
   <g>
    <path class="fil58" d="M139.4 42.63l0.14 -0.36c0.56,1.6 0.31,3.32 0.38,4.98 -0.02,16.22 0.04,32.45 -0.06,48.67 -0.64,3.03 0.69,6.62 -1.32,9.24 0.1,-0.39 0.2,-0.79 0.3,-1.18 0.22,-0.88 0.36,-1.78 0.42,-2.68 0.31,-9.31 -0.01,-18.63 0.13,-27.94 0.01,-10.24 -0.04,-20.49 0.01,-30.73z"/>
   </g>
   <g>
    <path class="fil59" d="M26.45 44.66c0.43,0.01 0.61,0.21 0.55,0.6 -0.3,-0.09 -0.49,-0.29 -0.55,-0.6z"/>
   </g>
   <g>
    <path class="fil60" d="M27 45.26c0.15,0 0.44,-0.01 0.59,-0.02 1.3,1.56 2.86,2.87 4.25,4.35 1.02,1.17 2.53,1.92 3.14,3.42 -0.54,-0.49 -1.1,-0.95 -1.67,-1.4 -2.05,-2.17 -4.25,-4.19 -6.31,-6.35z"/>
   </g>
   <g>
    <path class="fil61" d="M98.38 48.62c1.02,-1.04 2,-2.11 3.06,-3.11 0.16,-0.05 0.49,-0.13 0.65,-0.18 -0.23,0.35 -0.45,0.7 -0.68,1.04 -0.89,0.8 -1.58,1.78 -2.12,2.84 2.07,-0.03 4.07,0.71 6.15,0.63 1.73,-0.26 2.84,-1.83 4.48,-2.34 -1.17,1.23 -2.36,2.44 -3.62,3.59 -2.15,1.1 -3.62,3.13 -5.65,4.43 0,-0.45 -0.01,-0.9 -0.01,-1.34 -1.43,-0.19 -3.04,-0.71 -3.72,-2.1 0.27,-1.23 1.28,-2.18 1.46,-3.46z"/>
   </g>
   <g>
    <path class="fil62" d="M65.91 50.8c0.41,-1.35 0.49,-2.77 0.73,-4.15 0.07,4.69 0.33,9.41 0.01,14.1 -2.33,0.18 -4.69,0.27 -7.02,0.02 -0.23,-2.4 -0.46,-4.81 -1.12,-7.13 -0.45,-1.77 -1.59,-3.23 -2.32,-4.88 0.94,0.95 1.59,2.23 2.78,2.89 1.59,0.54 3.27,-0.07 4.89,-0.07 0.71,-0.08 1.74,0.03 2.05,-0.78z"/>
   </g>
   <g>
    <path class="fil63" d="M72.94 48.46c0.21,0.6 0.47,1.18 0.73,1.77 2.34,-0.98 4.37,1.38 6.69,0.51 0.37,0.63 0.72,1.27 1.06,1.91 -0.35,0.96 -0.68,1.92 -1.01,2.88 -1.37,-2.87 -5.19,-2.11 -7.28,-0.49 -0.15,-2.19 -0.28,-4.38 -0.19,-6.58z"/>
   </g>
   <g>
    <path class="fil64" d="M97.21 49.72c0.38,-0.37 0.78,-0.73 1.17,-1.1 -0.18,1.28 -1.19,2.23 -1.46,3.46 0.68,1.39 2.29,1.91 3.72,2.1 0,0.44 0.01,0.89 0.01,1.34 2.03,-1.3 3.5,-3.33 5.65,-4.43 -0.25,0.23 -0.48,0.48 -0.72,0.72 -0.37,0.3 -0.73,0.61 -1.05,0.95 -2.53,2.48 -5.08,4.94 -7.68,7.37 -0.8,0.18 -1.46,0.69 -2.08,1.21 0.06,-0.89 0.23,-1.86 -0.32,-2.65 -0.91,-1.35 -0.92,-3.01 -0.99,-4.57 0.74,-0.71 1.52,-1.44 1.86,-2.43 0.64,-0.65 1.28,-1.29 1.89,-1.97z"/>
   </g>
   <g>
    <path class="fil65" d="M40.71 49.17c3.99,3.52 7.45,7.6 11.29,11.27 0.91,1.2 0.46,2.83 0.56,4.22 -0.12,1.37 0.31,2.9 -0.34,4.17 -8.87,8.79 -17.65,17.69 -26.76,26.23 -1.86,1.28 -3.33,3 -5.05,4.44 -0.31,-1.51 -2.01,-2.28 -2.06,-3.86 -0.15,-1.07 0.61,-1.92 1.19,-2.72 -0.25,-0.12 -0.49,-0.23 -0.72,-0.35 2.49,-2.1 4.42,-4.81 6.91,-6.94 2.4,-1.94 4.19,-4.53 6.72,-6.32 3.56,-3.61 7.44,-6.92 10.77,-10.77 1.13,-1.27 2.5,-2.36 3.36,-3.86 -0.05,-0.09 -0.17,-0.27 -0.22,-0.37 -0.32,-0.77 -1,-1.22 -1.76,-1.5 -0.58,-0.52 -1.11,-1.08 -1.64,-1.65 -0.61,-1 -1.34,-1.93 -2.2,-2.72 0.35,0.15 0.71,0.29 1.07,0.43 -0.03,-0.34 -0.05,-0.68 -0.07,-1.02 0.49,0.23 0.97,0.47 1.46,0.72 -0.25,0.4 -0.5,0.81 -0.74,1.22 0.93,-0.27 1.14,-1.13 1.09,-2.01 0.76,-0.69 1.87,-1.27 2.02,-2.39 0.1,-0.72 -0.56,-1.18 -1.02,-1.61 0.09,0.52 0.19,1.04 0.29,1.56 -1.2,0.31 -1.87,-0.9 -2.64,-1.58 0.62,-0.08 1.63,0.33 1.94,-0.34 -1.07,-1.48 -2.54,-2.64 -3.45,-4.25z"/>
   </g>
   <g>
    <path class="fil66" d="M86.36 59.13c3.46,-1.83 6.07,-4.87 8.96,-7.44 -0.34,0.99 -1.12,1.72 -1.86,2.43 -0.37,0.35 -0.73,0.71 -1.09,1.07 -1.53,1.2 -2.66,2.89 -4.42,3.78 -0.5,0.33 -1.32,0.53 -1.31,1.26 -0.24,2.46 -0.03,4.94 -0.39,7.38 -0.06,-2.46 -0.18,-4.92 -0.07,-7.38 0.05,-0.37 0.12,-0.73 0.18,-1.1z"/>
   </g>
   <g>
    <path class="fil67" d="M104.53 52.76c0.32,-0.34 0.68,-0.65 1.05,-0.95 0.18,0.65 -0.42,1.17 -1.05,0.95z"/>
   </g>
   <g>
    <path class="fil68" d="M92.37 55.19c0.36,-0.36 0.72,-0.72 1.09,-1.07 0.07,1.56 0.08,3.22 0.99,4.57 0.55,0.79 0.38,1.76 0.32,2.65 0.62,-0.52 1.28,-1.03 2.08,-1.21 -1.29,1.33 -2.66,2.59 -3.83,4.03 1.95,2.21 4.02,4.32 6.13,6.37 -1.97,-0.55 -2.91,-2.7 -4.93,-3.15 -0.91,1.99 -2.94,3.63 -2.59,6.01 -1.11,-0.98 -1.23,-2.74 -2.57,-3.46 0.59,-1.29 1.13,-2.66 0.83,-4.1 -0.2,-1.19 -0.05,-2.43 0.74,-3.37 1.07,-1.29 -0.05,-2.88 0.1,-4.32 0.32,-1.09 1.03,-2.01 1.64,-2.95z"/>
   </g>
   <g>
    <path class="fil69" d="M87.95 58.97c1.76,-0.89 2.89,-2.58 4.42,-3.78 -0.61,0.94 -1.32,1.86 -1.64,2.95 -0.15,1.44 0.97,3.03 -0.1,4.32 -0.79,0.94 -0.94,2.18 -0.74,3.37 0.3,1.44 -0.24,2.81 -0.83,4.1 1.34,0.72 1.46,2.48 2.57,3.46 0.01,0.1 0.03,0.3 0.03,0.4 -1.84,-1.57 -3.32,-3.55 -5.33,-4.92 -0.02,-0.26 -0.05,-0.51 -0.07,-0.77 0,-0.12 -0.01,-0.37 -0.01,-0.49 0.36,-2.44 0.15,-4.92 0.39,-7.38 -0.01,-0.73 0.81,-0.93 1.31,-1.26z"/>
    <path class="fil69" d="M109.14 80.44c6.07,5.85 11.94,11.9 18.04,17.7 1.36,1.24 2.45,2.87 4.21,3.57 -0.03,0.08 -0.11,0.26 -0.15,0.34 -4.29,-2.35 -6.93,-6.67 -10.77,-9.6 -3.65,-3.87 -7.46,-7.57 -11.19,-11.36 -0.04,-0.16 -0.11,-0.48 -0.14,-0.65z"/>
    <path class="fil69" d="M106.85 88.58c0.63,-0.24 1.21,0.3 1.03,0.95 -0.38,-0.28 -0.7,-0.62 -1.03,-0.95z"/>
    <path class="fil69" d="M108.11 89.71c1.57,1.03 2.96,2.36 3.95,3.96 -1.36,-1.27 -2.69,-2.59 -3.95,-3.96z"/>
    <path class="fil69" d="M113.25 94.81c0.37,0.06 0.56,0.28 0.57,0.67 -0.34,-0.1 -0.53,-0.33 -0.57,-0.67z"/>
    <path class="fil69" d="M119.35 100.98c1.29,0.56 2.12,1.72 3.11,2.66 1.13,1.46 2.92,2.37 3.74,4.05 -1.1,-0.84 -2.05,-1.85 -3.05,-2.8 -1.22,-1.34 -2.56,-2.58 -3.8,-3.91z"/>
   </g>
   <g>
    <path class="fil70" d="M37.93 56c1.04,0.7 1.92,1.58 2.83,2.44 0.86,0.79 1.59,1.72 2.2,2.72 -1.76,-1.64 -3.44,-3.36 -5.03,-5.16z"/>
   </g>
   <g>
    <path class="fil71" d="M58.49 55.89c0.5,1.74 0.69,3.55 0.82,5.36l-0.21 -0.02c-0.33,-1.76 -0.42,-3.56 -0.61,-5.34z"/>
   </g>
   <g>
    <path class="fil72" d="M7.14 59.73c0.23,0 0.45,0 0.67,0 -0.13,5.88 0.13,11.76 -0.08,17.64 -0.18,1.26 -0.12,2.54 -0.31,3.8 -0.48,0.86 -1.62,0.4 -2.08,-0.22 -0.59,-0.87 -0.87,-1.9 -1.28,-2.85 -0.3,0.79 -0.55,1.61 -0.76,2.44 -1.08,0.17 -2.05,0.74 -2.4,1.82 -0.05,-5.62 -0.07,-11.24 -0.01,-16.86 0.08,-2.16 2.34,-2.72 4.1,-2.58 1.09,-0.7 1.48,-2.12 2.15,-3.19z"/>
   </g>
   <g>
    <path class="fil73" d="M86.26 68.1c-0.53,-2.57 -0.41,-5.27 -0.08,-7.87 -0.11,2.46 0.01,4.92 0.07,7.38 0,0.12 0.01,0.37 0.01,0.49z"/>
   </g>
   <g>
    <path class="fil74" d="M136.8 62.72c0.24,-0.86 1.08,-1.29 1.8,-1.7 0.42,3.28 0,6.59 0.21,9.88 -0.58,1.54 -1.92,2.54 -2.98,3.72 -1.21,1.25 -1.94,2.99 -3.61,3.73 -0.06,-1.44 -0.22,-2.87 -0.31,-4.31 0,-0.12 0,-0.36 -0.01,-0.48 0.22,0.28 0.44,0.57 0.67,0.86 2.67,-3.31 3.03,-7.75 4.23,-11.7z"/>
   </g>
   <g>
    <path class="fil75" d="M44.6 62.81c0.76,0.28 1.44,0.73 1.76,1.5 -0.64,-0.44 -1.22,-0.95 -1.76,-1.5z"/>
   </g>
   <g>
    <path class="fil76" d="M46.36 64.31c0.05,0.1 0.17,0.28 0.22,0.37 -0.86,1.5 -2.23,2.59 -3.36,3.86 -3.33,3.85 -7.21,7.16 -10.77,10.77 -2.53,1.79 -4.32,4.38 -6.72,6.32 -2.49,2.13 -4.42,4.84 -6.91,6.94 -1.49,0.78 -2.06,2.83 -3.82,3.06 6.18,-6.62 12.9,-12.71 19.28,-19.13 2.8,-2.58 5.3,-5.46 8.12,-8.01 1.39,-1.33 2.79,-2.65 3.96,-4.18z"/>
   </g>
   <g>
    <path class="fil77" d="M0.35 65.14c0.14,0.09 0.41,0.27 0.54,0.36 -0.06,5.62 -0.04,11.24 0.01,16.86 -0.03,5.62 -0.02,11.24 -0.02,16.86 -0.18,4.07 1.28,8.14 3.8,11.32 0,0.14 0.01,0.41 0.02,0.54 -2.78,-2.84 -4.47,-6.84 -4.37,-10.84 -0.03,-11.7 0.04,-23.4 0.02,-35.1z"/>
   </g>
   <g>
    <path class="fil78" d="M59.37 66.59c0.45,-0.79 1.47,-0.58 2.22,-0.64 4.01,0.07 8.03,-0.05 12.04,0.13 2.02,0.07 4.08,-0.13 6.07,0.31 -5.71,0.21 -11.43,-0.51 -17.15,-0.04 -1.06,0.01 -2.12,0.13 -3.18,0.24z"/>
   </g>
   <g>
    <path class="fil79" d="M62.55 66.35c5.72,-0.47 11.44,0.25 17.15,0.04 0.18,0.95 0.13,1.92 0.04,2.88 -0.1,0.02 -0.31,0.05 -0.41,0.07 -0.82,-0.02 -1.64,-0.1 -2.46,-0.12 0.9,-0.08 1.8,-0.21 2.69,-0.33 -0.1,-0.64 -0.19,-1.28 -0.27,-1.92 -1.97,-0.13 -3.95,-0.08 -5.92,-0.32 -3.6,-0.39 -7.23,0.13 -10.82,-0.3z"/>
   </g>
   <g>
    <path class="fil80" d="M59.37 66.59c1.06,-0.11 2.12,-0.23 3.18,-0.24 3.59,0.43 7.22,-0.09 10.82,0.3 1.97,0.24 3.95,0.19 5.92,0.32 0.08,0.64 0.17,1.28 0.27,1.92 -0.89,0.12 -1.79,0.25 -2.69,0.33 -5.79,0.3 -11.6,-0.19 -17.39,0.05 -0.02,-0.9 -0.07,-1.79 -0.11,-2.68z"/>
   </g>
   <g>
    <path class="fil81" d="M91.63 73.39c-0.35,-2.38 1.68,-4.02 2.59,-6.01 2.02,0.45 2.96,2.6 4.93,3.15 3.31,3.32 6.69,6.58 9.99,9.91 0.03,0.17 0.1,0.49 0.14,0.65 -2.61,-2.2 -4.79,-4.86 -7.43,-7.03 -1.56,-1.28 -2.74,-3.15 -4.76,-3.77 -0.66,1.32 -1.68,2.42 -2.95,3.17 0.03,0.8 -0.09,1.75 0.61,2.32 1.32,1.26 2.34,2.78 3.67,4.03 1.04,1.03 2.24,1.97 2.88,3.32 -1.25,-1.11 -2.42,-2.31 -3.62,-3.48 -1.91,-2.04 -4.01,-3.91 -6.02,-5.86 0,-0.1 -0.02,-0.3 -0.03,-0.4z"/>
   </g>
   <g>
    <path class="fil82" d="M59.48 69.27c5.79,-0.24 11.6,0.25 17.39,-0.05 0.82,0.02 1.64,0.1 2.46,0.12 -0.13,0.03 -0.38,0.08 -0.51,0.11 -4.83,0.1 -9.67,0.14 -14.5,0.07 -1.61,-0.07 -3.24,0.08 -4.84,-0.25z"/>
   </g>
   <g>
    <path class="fil83" d="M64.32 69.52c4.83,0.07 9.67,0.03 14.5,-0.07 -0.45,0.11 -0.9,0.23 -1.35,0.33 -4.37,-0.04 -8.8,0.38 -13.15,-0.26z"/>
   </g>
   <g>
    <path class="fil84" d="M97.09 70.29c2.02,0.62 3.2,2.49 4.76,3.77 2.64,2.17 4.82,4.83 7.43,7.03 3.73,3.79 7.54,7.49 11.19,11.36 0.81,1.32 1.92,2.4 2.87,3.62 -0.25,0.28 -0.5,0.55 -0.74,0.83 1.44,0.14 1.62,1.55 1.71,2.72 0.65,1.65 1.48,3.28 2.57,4.7 -1.45,0.32 -2.11,-0.89 -2.34,-2.12 -0.27,0.59 -0.55,1.17 -0.83,1.75 -0.42,-0.1 -0.84,-0.2 -1.25,-0.31 -0.99,-0.94 -1.82,-2.1 -3.11,-2.66 -1.91,-1.77 -3.72,-3.64 -5.53,-5.5 -0.01,-0.39 -0.2,-0.61 -0.57,-0.67 -0.04,-0.04 -0.14,-0.1 -0.18,-0.13 0,-0.47 -0.35,-0.98 -0.87,-0.8 -0.04,-0.05 -0.11,-0.15 -0.14,-0.21 -0.99,-1.6 -2.38,-2.93 -3.95,-3.96 -0.06,-0.04 -0.18,-0.14 -0.23,-0.18 0.18,-0.65 -0.4,-1.19 -1.03,-0.95 -0.29,-0.25 -0.6,-0.48 -0.89,-0.72 -0.1,-0.13 -0.19,-0.26 -0.28,-0.38 -1.19,-1.69 -2.64,-3.24 -4.38,-4.35 -0.64,-1.35 -1.84,-2.29 -2.88,-3.32 -1.33,-1.25 -2.35,-2.77 -3.67,-4.03 -0.7,-0.57 -0.58,-1.52 -0.61,-2.32 1.27,-0.75 2.29,-1.85 2.95,-3.17z"/>
   </g>
   <g>
    <path class="fil85" d="M138.81 70.9c0.17,1.53 0.16,3.09 0.47,4.61 0.01,0.15 0.01,0.47 0.02,0.63 -0.53,1.8 -2.61,1.9 -3.83,2.99 -1.37,1.01 -1.98,2.65 -2.76,4.09 -0.21,-0.11 -0.41,-0.21 -0.61,-0.32 0.09,-1.51 0.18,-3.03 0.12,-4.55 1.67,-0.74 2.4,-2.48 3.61,-3.73 1.06,-1.18 2.4,-2.18 2.98,-3.72z"/>
   </g>
   <g>
    <path class="fil86" d="M131.82 87.25c-0.24,-4.4 -0.09,-8.82 0.09,-13.21 0.09,1.44 0.25,2.87 0.31,4.31 0.06,1.52 -0.03,3.04 -0.12,4.55 -0.05,1.45 -0.13,2.9 -0.28,4.35z"/>
   </g>
   <g>
    <path class="fil87" d="M56.71 75.52c1.57,-0.09 3.06,-0.69 4.64,-0.72 4.74,-0.01 9.47,0.1 14.21,0.04 1.61,0.03 3.29,-0.3 4.81,0.35 0.03,0.94 0.05,1.89 0.01,2.82l-0.23 0.05c0,-0.85 0.02,-1.71 -0.02,-2.56 -0.04,-0.06 -0.12,-0.19 -0.16,-0.25 -6.78,-0.03 -13.58,-0.01 -20.36,0.05l-0.13 0.01c-0.91,0.66 -1.27,1.76 -1.28,2.84 -0.56,-0.84 -1.03,-1.73 -1.49,-2.63z"/>
   </g>
   <g>
    <path class="fil88" d="M59.61 75.3c6.78,-0.06 13.58,-0.08 20.36,-0.05 0.04,0.06 0.12,0.19 0.16,0.25 -2.65,-0.47 -5.36,-0.11 -8.03,-0.2 -4.17,0.01 -8.33,-0.07 -12.49,0z"/>
    <path class="fil88" d="M103.29 109.02c0.46,-0.1 0.92,-0.19 1.39,-0.26 0.69,-0.01 1.38,0.02 2.08,0.03 -1.09,0.4 -2.13,0.97 -2.94,1.82 1.38,1.59 3.22,2.62 4.88,3.88 -1.2,0.31 -2.45,0.66 -3.32,1.61 -0.09,0.03 -0.27,0.09 -0.36,0.12 0.3,-0.87 0.93,-1.84 0.43,-2.75 -0.77,-1.48 -2.47,-2.58 -2.16,-4.45z"/>
   </g>
   <g>
    <path class="fil89" d="M58.2 78.15c0.01,-1.08 0.37,-2.18 1.28,-2.84 -0.1,0.83 -0.17,1.67 -0.23,2.51 -0.01,0.18 -0.03,0.54 -0.05,0.72l-0.27 0.01c-0.12,-0.01 -0.36,-0.03 -0.48,-0.04 -0.06,-0.09 -0.18,-0.27 -0.25,-0.36z"/>
   </g>
   <g>
    <path class="fil90" d="M59.48 75.31l0.13 -0.01c4.16,-0.07 8.32,0.01 12.49,0 0.23,0.69 0.46,1.39 0.69,2.09 -0.32,0.27 -0.64,0.55 -0.96,0.83 -4.18,-0.21 -8.44,0.39 -12.58,-0.4 0.06,-0.84 0.13,-1.68 0.23,-2.51z"/>
   </g>
   <g>
    <path class="fil91" d="M72.1 75.3c2.67,0.09 5.38,-0.27 8.03,0.2 0.04,0.85 0.02,1.71 0.02,2.56 -2.76,0.29 -5.55,0.08 -8.32,0.16 0.32,-0.28 0.64,-0.56 0.96,-0.83 -0.23,-0.7 -0.46,-1.4 -0.69,-2.09z"/>
   </g>
   <g>
    <path class="fil92" d="M135.47 79.13c1.22,-1.09 3.3,-1.19 3.83,-2.99 0.03,1.33 0.04,2.67 0,4.01 -0.4,1.29 -1.25,2.29 -2.43,2.94 -1.65,2.72 -2.41,5.97 -4.35,8.54 -0.28,-1.32 -0.51,-2.66 -0.7,-4 0,-0.1 0,-0.29 0,-0.38 0.15,-1.45 0.23,-2.9 0.28,-4.35 0.2,0.11 0.4,0.21 0.61,0.32 0.78,-1.44 1.39,-3.08 2.76,-4.09z"/>
   </g>
   <g>
    <path class="fil93" d="M7.42 81.17c0.19,-1.26 0.13,-2.54 0.31,-3.8 0.35,5.95 -0.29,11.95 0.29,17.87 0.22,2.08 -0.03,4.18 0.33,6.24 0.24,1.06 0.66,2.07 1.03,3.09 -0.45,-0.17 -0.9,-0.3 -1.36,-0.44 -0.02,0.71 -0.02,1.43 -0.03,2.14 -1.12,0.91 -1.92,2.21 -3.27,2.79 -0.03,0.5 -0.04,0.99 -0.04,1.48 -2.52,-3.18 -3.98,-7.25 -3.8,-11.32 0,-5.62 -0.01,-11.24 0.02,-16.86 0.35,-1.08 1.32,-1.65 2.4,-1.82 0.21,-0.83 0.46,-1.65 0.76,-2.44 0.41,0.95 0.69,1.98 1.28,2.85 0.46,0.62 1.6,1.08 2.08,0.22z"/>
   </g>
   <g>
    <path class="fil94" d="M59.25 77.82c4.14,0.79 8.4,0.19 12.58,0.4 2.77,-0.08 5.56,0.13 8.32,-0.16l0.23 -0.05c-0.01,0.13 -0.02,0.39 -0.02,0.52l-0.24 0.02c-6.97,-0.09 -13.95,-0.12 -20.92,-0.01 0.02,-0.18 0.04,-0.54 0.05,-0.72z"/>
   </g>
   <g>
    <path class="fil95" d="M53.43 79.49c1.32,-0.86 2.9,-1.12 4.45,-1.02 0.15,0.01 0.43,0.03 0.57,0.04 0.12,0.01 0.36,0.03 0.48,0.04 3.69,0.46 7.42,0.11 11.12,0.23 -0.12,0.11 -0.37,0.33 -0.49,0.44 0.89,0.86 2.15,0.91 3.3,1.1 -0.4,0.62 -0.89,1.17 -1.52,1.56 0.56,0.02 1.13,0.15 1.55,0.54 -1.03,0.64 -2.2,1.02 -3.4,1.09 -3.4,0.16 -6.81,-0.25 -10.19,0.15 0.11,2.43 2.01,4.44 4.24,5.2 1.88,0.73 3.93,0.47 5.89,0.74 0.91,0.21 1.82,0.41 2.75,0.55 -0.43,1.86 0.9,3.65 2.7,4.03 1.28,-0.02 2.5,-0.57 3.8,-0.41 -3.49,1.93 -7.61,1.69 -11.47,1.55 -3.4,-0.35 -6.85,-1.3 -9.66,-3.31 -3.95,-2.64 -5.42,-8.09 -4.12,-12.52z"/>
   </g>
   <g>
    <path class="fil96" d="M58.93 78.55l0.27 -0.01c6.97,-0.11 13.95,-0.08 20.92,0.01 -3.33,0.46 -6.71,0.15 -10.07,0.23 -3.7,-0.12 -7.43,0.23 -11.12,-0.23z"/>
   </g>
   <g>
    <path class="fil97" d="M97.68 79.65c1.2,1.17 2.37,2.37 3.62,3.48 0.82,0.83 1.63,1.67 2.44,2.51 -1.59,-0.67 -2.59,-2.11 -3.86,-3.2 -0.9,-0.78 -1.67,-1.71 -2.2,-2.79z"/>
   </g>
   <g>
    <path class="fil98" d="M136.87 83.09c1.18,-0.65 2.03,-1.65 2.43,-2.94 0.09,3.78 0.01,7.56 0.03,11.35 -0.97,-0.05 -2.07,-0.63 -2.92,0.1 -1.67,1.23 -2.73,3.07 -4.21,4.5 -0.17,-0.62 -0.34,-1.24 -0.49,-1.87 -0.07,-2.2 -0.02,-4.4 0.11,-6.6 0.19,1.34 0.42,2.68 0.7,4 1.94,-2.57 2.7,-5.82 4.35,-8.54z"/>
   </g>
   <g>
    <path class="fil99" d="M59.3 83.66c3.38,-0.4 6.79,0.01 10.19,-0.15 2.32,0.01 4.64,0.13 6.96,0.03 1.03,-0.02 2.12,-0.14 3.07,0.32 -6.6,0.07 -13.2,-0.08 -19.81,-0.04 0.05,0.34 0.09,0.68 0.15,1.02 1.01,2.95 4.2,4.09 7.06,4.24 2.5,0.22 5.04,0.24 7.55,0 0.41,-0.03 0.82,-0.07 1.23,-0.13 -1.98,0.87 -4.19,0.38 -6.27,0.65 -1.96,-0.27 -4.01,-0.01 -5.89,-0.74 -2.23,-0.76 -4.13,-2.77 -4.24,-5.2z"/>
   </g>
   <g>
    <path class="fil100" d="M59.71 83.82c6.61,-0.04 13.21,0.11 19.81,0.04 0.1,0.05 0.3,0.15 0.4,0.19 -0.08,0.26 -0.15,0.51 -0.23,0.77 -0.43,-0.33 -0.85,-0.74 -1.43,-0.7 -2.33,-0.04 -4.66,0.02 -7,0.02 -2.96,-0.08 -5.92,-0.04 -8.89,-0.11 -0.9,0.02 -2.09,-0.23 -2.51,0.81 -0.06,-0.34 -0.1,-0.68 -0.15,-1.02z"/>
   </g>
   <g>
    <path class="fil101" d="M59.86 84.84c0.42,-1.04 1.61,-0.79 2.51,-0.81 2.97,0.07 5.93,0.03 8.89,0.11 0.36,0.19 0.72,0.4 1.07,0.6 -1.99,0.84 -1.77,3.55 -3.85,4.27 -0.52,0.03 -1.04,0.06 -1.56,0.07 -2.86,-0.15 -6.05,-1.29 -7.06,-4.24z"/>
   </g>
   <g>
    <path class="fil102" d="M71.26 84.14c2.34,0 4.67,-0.06 7,-0.02 0.58,-0.04 1,0.37 1.43,0.7 -0.78,1.78 -2.12,3.46 -3.99,4.13 -0.41,0.06 -0.82,0.1 -1.23,0.13 -2,-0.02 -3.99,-0.11 -5.99,-0.07 2.08,-0.72 1.86,-3.43 3.85,-4.27 -0.35,-0.2 -0.71,-0.41 -1.07,-0.6z"/>
   </g>
   <g>
    <path class="fil103" d="M66.92 89.08c0.52,-0.01 1.04,-0.04 1.56,-0.07 2,-0.04 3.99,0.05 5.99,0.07 -2.51,0.24 -5.05,0.22 -7.55,0z"/>
   </g>
   <g>
    <path class="fil104" d="M136.41 91.6c0.85,-0.73 1.95,-0.15 2.92,-0.1 0.01,1.32 0.02,2.63 0.02,3.95 -1.16,0.82 -2.7,0.76 -3.83,1.64 -0.92,0.69 -2.04,0.98 -3.17,1.14 -0.22,-0.46 -0.44,-0.92 -0.64,-1.39 -0.06,-0.87 -0.01,-1.74 0,-2.61 0.15,0.63 0.32,1.25 0.49,1.87 1.48,-1.43 2.54,-3.27 4.21,-4.5z"/>
   </g>
   <g>
    <path class="fil105" d="M15 95.63c1.76,-0.23 2.33,-2.28 3.82,-3.06 0.23,0.12 0.47,0.23 0.72,0.35 -0.58,0.8 -1.34,1.65 -1.19,2.72 0.05,1.58 1.75,2.35 2.06,3.86 1.72,-1.44 3.19,-3.16 5.05,-4.44 -0.44,0.55 -0.8,1.16 -1.17,1.76 -1.05,1.04 -2.1,2.08 -3.13,3.14 -2.21,1.99 -3.91,4.52 -6.38,6.22 -2.79,0.77 -5.57,-1.93 -5.46,-4.66 0.5,-0.89 1.4,-1.51 1.85,-2.44 0.72,-0.74 1.51,-1.42 2.3,-2.1 0.82,0 1.26,-0.66 1.53,-1.35z"/>
   </g>
   <g>
    <path class="fil106" d="M120.47 92.45c3.84,2.93 6.48,7.25 10.77,9.6 1.32,0.7 2.28,1.98 3.77,2.39 1.22,0.24 2.06,1.16 2.17,2.41 -1.61,4.04 -5.39,6.64 -9.28,8.24 -2.6,1.05 -5.46,0.56 -8.18,0.73 -1.95,0.1 -3.91,-0.03 -5.75,-0.7 0.77,-1.85 -0.01,-3.72 -0.63,-5.48 0.92,-0.13 1.85,-0.34 2.65,-0.84 0.08,0 0.25,0 0.33,0 2.36,0.18 4.78,0.37 7.11,-0.17 0.97,-0.13 2.09,-0.11 2.77,-0.94 -0.82,-1.68 -2.61,-2.59 -3.74,-4.05 0.41,0.11 0.83,0.21 1.25,0.31 0.28,-0.58 0.56,-1.16 0.83,-1.75 0.23,1.23 0.89,2.44 2.34,2.12 -1.09,-1.42 -1.92,-3.05 -2.57,-4.7 -0.09,-1.17 -0.27,-2.58 -1.71,-2.72 0.24,-0.28 0.49,-0.55 0.74,-0.83 -0.95,-1.22 -2.06,-2.3 -2.87,-3.62z"/>
   </g>
   <g>
    <path class="fil107" d="M112.2 93.88c0.52,-0.18 0.87,0.33 0.87,0.8 -0.37,-0.18 -0.69,-0.43 -0.87,-0.8z"/>
   </g>
   <g>
    <path class="fil108" d="M135.52 97.09c1.13,-0.88 2.67,-0.82 3.83,-1.64 -0.03,1.95 0.01,3.9 -0.09,5.85 -0.06,0.9 -0.2,1.8 -0.42,2.68 -0.54,-1.12 -1.08,-2.31 -2.07,-3.11 -0.99,-0.57 -2.15,-0.75 -3.22,-1.1 -0.65,0.47 -1.31,0.93 -1.93,1.44 0.24,-1.45 0.14,-2.92 0.09,-4.37 0.2,0.47 0.42,0.93 0.64,1.39 1.13,-0.16 2.25,-0.45 3.17,-1.14z"/>
   </g>
   <g>
    <path class="fil109" d="M13.47 96.98c0.5,-0.46 1.01,-0.9 1.53,-1.35 -0.27,0.69 -0.71,1.35 -1.53,1.35z"/>
   </g>
   <g>
    <path class="fil110" d="M8.7 101.23c0.89,-0.64 1.63,-1.45 2.47,-2.15 -0.45,0.93 -1.35,1.55 -1.85,2.44 -0.11,2.73 2.67,5.43 5.46,4.66 -0.43,0.34 -0.83,0.7 -1.24,1.06 -1.09,-0.61 -2.15,-1.28 -3.22,-1.93 -0.13,-0.16 -0.25,-0.31 -0.37,-0.47 -0.53,-1.16 -0.89,-2.39 -1.25,-3.61z"/>
   </g>
   <g>
    <path class="fil111" d="M131.62 101.21c0.62,-0.51 1.28,-0.97 1.93,-1.44 1.07,0.35 2.23,0.53 3.22,1.1 0.99,0.8 1.53,1.99 2.07,3.11 -0.8,0.8 -1.27,1.83 -1.66,2.87 -0.11,-1.25 -0.95,-2.17 -2.17,-2.41 -1.49,-0.41 -2.45,-1.69 -3.77,-2.39 0.04,-0.08 0.12,-0.26 0.15,-0.34l0.13 -0.28 0.1 -0.22z"/>
   </g>
   <g>
    <path class="fil112" d="M8.35 101.48l0.21 -0.16 0.14 -0.09c0.36,1.22 0.72,2.45 1.25,3.61 -0.14,-0.07 -0.43,-0.2 -0.57,-0.27 -0.37,-1.02 -0.79,-2.03 -1.03,-3.09z"/>
   </g>
   <g>
    <path class="fil113" d="M8.02 104.13c0.46,0.14 0.91,0.27 1.36,0.44 0.14,0.07 0.43,0.2 0.57,0.27 0.12,0.16 0.24,0.31 0.37,0.47 0.64,0.93 1.61,1.52 2.42,2.28 0.17,0.41 0.31,0.84 0.47,1.26 2.01,0.97 2.27,3.78 1.93,5.75 0.52,0.13 1.04,0.25 1.56,0.38 -0.03,0.23 -0.07,0.47 -0.1,0.71 -4.38,0.49 -8.03,-2.48 -11.68,-4.41 -0.06,-0.05 -0.17,-0.15 -0.22,-0.2 -0.01,-0.13 -0.02,-0.4 -0.02,-0.54 0,-0.49 0.01,-0.98 0.04,-1.48 1.35,-0.58 2.15,-1.88 3.27,-2.79 0.01,-0.71 0.01,-1.43 0.03,-2.14z"/>
   </g>
   <g>
    <path class="fil114" d="M10.32 105.31c1.07,0.65 2.13,1.32 3.22,1.93l0.19 0.1c-0.05,0.16 -0.17,0.49 -0.23,0.65l-0.07 0.22c-0.24,-0.21 -0.46,-0.42 -0.69,-0.62 -0.81,-0.76 -1.78,-1.35 -2.42,-2.28z"/>
   </g>
   <g>
    <path class="fil115" d="M12.74 107.59c0.23,0.2 0.45,0.41 0.69,0.62 0.33,0.34 0.79,0.46 1.24,0.56 0.34,0.07 0.67,0.14 1.02,0.2 5.71,0.76 11.5,0.34 17.24,0.78 3.37,-0.21 6.73,-0.26 10.1,-0.14 -1.21,1.91 -0.77,4.61 1.21,5.83 -9.2,0.45 -18.43,0.06 -27.64,0.25 0.03,-0.24 0.07,-0.48 0.1,-0.71 -0.52,-0.13 -1.04,-0.25 -1.56,-0.38 0.34,-1.97 0.08,-4.78 -1.93,-5.75 -0.16,-0.42 -0.3,-0.85 -0.47,-1.26z"/>
   </g>
   <g>
    <path class="fil116" d="M13.5 107.99c5.44,0.45 10.9,0.33 16.36,0.35 9.91,-0.05 19.83,0.1 29.74,-0.11 12.94,0.14 25.91,0.13 38.87,0.11 1.27,-0.04 2.55,0.11 3.81,0.31 -29.2,0.14 -58.4,-0.06 -87.61,0.12 -0.45,-0.1 -0.91,-0.22 -1.24,-0.56l0.07 -0.22z"/>
   </g>
   <g>
    <path class="fil117" d="M14.67 108.77c29.21,-0.18 58.41,0.02 87.61,-0.12 0.07,2.64 3.66,4.43 2.15,7.18 0.88,-2.69 -1.93,-4.48 -2.84,-6.74 -8.32,-0.23 -16.68,-0.36 -25.01,0 -19.49,-0.33 -39,0.12 -58.5,-0.24 -0.8,0.01 -1.6,0.08 -2.39,0.12 -0.35,-0.06 -0.68,-0.13 -1.02,-0.2z"/>
   </g>
   <g>
    <path class="fil118" d="M102.28 108.65c0.8,0.08 1.6,0.1 2.4,0.11 -0.47,0.07 -0.93,0.16 -1.39,0.26 -0.31,1.87 1.39,2.97 2.16,4.45 0.5,0.91 -0.13,1.88 -0.43,2.75 -0.19,0 -0.56,-0.01 -0.75,-0.02 0.04,-0.09 0.12,-0.27 0.16,-0.37 1.51,-2.75 -2.08,-4.54 -2.15,-7.18z"/>
   </g>
   <g>
    <path class="fil119" d="M116.32 108.8c2.36,-0.21 4.74,-0.17 7.11,-0.17 -2.33,0.54 -4.75,0.35 -7.11,0.17z"/>
   </g>
   <g>
    <path class="fil120" d="M15.69 108.97c0.79,-0.04 1.59,-0.11 2.39,-0.12 19.5,0.36 39.01,-0.09 58.5,0.24 1.86,0.25 3.73,0.11 5.59,0.23l0.33 0.09c-13.15,0.17 -26.32,-0.13 -39.47,0.2 -3.37,-0.12 -6.73,-0.07 -10.1,0.14 -5.74,-0.44 -11.53,-0.02 -17.24,-0.78z"/>
   </g>
   <g>
    <path class="fil121" d="M76.58 109.09c8.33,-0.36 16.69,-0.23 25.01,0 0.91,2.26 3.72,4.05 2.84,6.74 -0.04,0.1 -0.12,0.28 -0.16,0.37 -0.16,0 -0.47,-0.01 -0.62,-0.01 -0.47,-0.02 -0.94,-0.06 -1.41,-0.08 0.76,-0.26 1.98,-0.45 1.98,-1.48 -0.05,-1.58 -1.4,-2.61 -2.27,-3.78 -0.47,-0.52 -0.86,-1.34 -1.68,-1.33 -3.58,-0.32 -7.18,-0.01 -10.77,0.11 -2.43,-0.28 -4.87,-0.69 -7.33,-0.31 -1.86,-0.12 -3.73,0.02 -5.59,-0.23z"/>
   </g>
   <g>
    <path class="fil122" d="M82.17 109.32c2.46,-0.38 4.9,0.03 7.33,0.31 3.59,-0.12 7.19,-0.43 10.77,-0.11 0.82,-0.01 1.21,0.81 1.68,1.33 0.87,1.17 2.22,2.2 2.27,3.78 0,1.03 -1.22,1.22 -1.98,1.48 -5.14,-0.08 -10.28,0.12 -15.42,-0.03l-0.25 -0.22c3.11,0.07 6.22,-0.37 9.34,-0.24 2.33,0.04 4.71,0.32 7,-0.22 1.1,-0.26 0.68,-1.7 0.11,-2.29 -0.99,-1.47 -2.86,-1.54 -4.38,-2.1 -1.81,-0.22 -3.62,0.45 -5.13,1.43 -1.95,1.36 -4.61,0.1 -5.81,-1.7 -0.83,-1.37 -2.6,-1 -3.94,-1.07 -0.43,-0.07 -0.85,-0.16 -1.26,-0.26l-0.33 -0.09z"/>
   </g>
   <g>
    <path class="fil123" d="M43.03 109.61c13.15,-0.33 26.32,-0.03 39.47,-0.2 0.41,0.1 0.83,0.19 1.26,0.26 -0.5,0.18 -0.99,0.39 -1.47,0.6 0.84,1.58 1.4,3.3 2.05,4.97 0.74,0.21 1.49,0.4 2.23,0.62l0.25 0.22c-2.11,-0.02 -4.22,0.03 -6.33,-0.09 -6.79,-0.7 -13.63,0.03 -20.42,-0.54 -5.27,0.4 -10.56,-0.02 -15.83,-0.01 -1.98,-1.22 -2.42,-3.92 -1.21,-5.83z"/>
   </g>
   <g>
    <path class="fil124" d="M82.29 110.27c0.48,-0.21 0.97,-0.42 1.47,-0.6 1.34,0.07 3.11,-0.3 3.94,1.07 1.2,1.8 3.86,3.06 5.81,1.7 1.51,-0.98 3.32,-1.65 5.13,-1.43 1.52,0.56 3.39,0.63 4.38,2.1 0.57,0.59 0.99,2.03 -0.11,2.29 -2.29,0.54 -4.67,0.26 -7,0.22 -3.12,-0.13 -6.23,0.31 -9.34,0.24 -0.74,-0.22 -1.49,-0.41 -2.23,-0.62 -0.65,-1.67 -1.21,-3.39 -2.05,-4.97z"/>
   </g>
   <g>
    <path class="fil125" d="M105.65 116.1l0.24 -0.01c1.9,0.11 3.81,0.08 5.72,0.06 3.15,-0.04 6.31,-0.06 9.46,0 -4.14,0.41 -8.3,-0.09 -12.44,0.27 -1,-0.03 -2,-0.17 -2.98,-0.32z"/>
   </g>
  </g>
  <g id="_2366779889760">
   <polygon class="fil126 str0" points="100.1,104.07 102.33,97.16 103.9,97.16 100.67,106.16 99.5,106.16 96.24,97.16 97.81,97.16 "/>
   <path class="fil20 str0" d="M88.67 101.76c0,1 0.23,1.8 0.69,2.41 0.46,0.6 1.09,0.9 1.86,0.9 0.78,0 1.41,-0.3 1.87,-0.92 0.46,-0.61 0.69,-1.47 0.69,-2.58 0,-0.99 -0.24,-1.78 -0.7,-2.4 -0.47,-0.61 -1.1,-0.92 -1.87,-0.92 -0.76,0 -1.38,0.3 -1.84,0.91 -0.47,0.6 -0.7,1.47 -0.7,2.6zm-1.55 -0.18c0,-0.88 0.17,-1.68 0.52,-2.38 0.35,-0.71 0.83,-1.25 1.45,-1.64 0.61,-0.38 1.32,-0.57 2.12,-0.57 1.22,0 2.22,0.42 2.97,1.27 0.76,0.85 1.14,1.98 1.14,3.39l0 0.11c0,0.88 -0.17,1.67 -0.5,2.36 -0.34,0.7 -0.82,1.24 -1.45,1.63 -0.62,0.39 -1.34,0.58 -2.15,0.58 -1.22,0 -2.21,-0.42 -2.96,-1.27 -0.76,-0.85 -1.14,-1.97 -1.14,-3.37l0 -0.11zm-5.72 0.41l-0.97 1.01 0 3.16 -1.54 0 0 -12.79 1.54 0 0 7.74 0.83 -0.99 2.8 -2.96 1.88 0 -3.51 3.76 3.92 5.24 -1.81 0 -3.14 -4.17z"/>
   <path class="fil127 str0" d="M70.93 97.16l0.05 1.13c0.69,-0.87 1.59,-1.3 2.7,-1.3 1.9,0 2.86,1.07 2.88,3.22l0 5.95 -1.54 0 0 -5.95c0,-0.65 -0.15,-1.13 -0.44,-1.44 -0.29,-0.31 -0.75,-0.47 -1.37,-0.47 -0.49,0 -0.93,0.14 -1.31,0.4 -0.38,0.27 -0.67,0.62 -0.88,1.05l0 6.41 -1.54 0 0 -9 1.45 0zm-5.58 -2.4c0,-0.25 0.07,-0.46 0.22,-0.63 0.16,-0.18 0.38,-0.26 0.68,-0.26 0.3,0 0.53,0.08 0.68,0.26 0.16,0.17 0.24,0.38 0.24,0.63 0,0.25 -0.08,0.46 -0.24,0.63 -0.15,0.17 -0.38,0.25 -0.68,0.25 -0.3,0 -0.52,-0.08 -0.68,-0.25 -0.15,-0.17 -0.22,-0.38 -0.22,-0.63zm1.66 11.4l-1.54 0 0 -9 1.54 0 0 9z"/>
   <polygon class="fil41 str0" points="62.87,106.16 61.33,106.16 61.33,93.37 62.87,93.37 "/>
   <path class="fil41 str0" d="M59.78 98.53c-0.24,-0.04 -0.49,-0.06 -0.76,-0.06 -1.01,0 -1.69,0.43 -2.06,1.29l0 6.4 -1.54 0 0 -9 1.5 0 0.03 1.04c0.5,-0.81 1.22,-1.21 2.15,-1.21 0.3,0 0.52,0.04 0.68,0.12l0 1.42z"/>
   <path class="fil20 str0" d="M49.94 98.25c-0.62,0 -1.14,0.23 -1.57,0.68 -0.42,0.46 -0.68,1.09 -0.78,1.91l4.52 0 0 -0.11c-0.05,-0.79 -0.26,-1.4 -0.64,-1.83 -0.38,-0.43 -0.89,-0.65 -1.53,-0.65zm0.19 8.08c-1.22,0 -2.21,-0.4 -2.98,-1.2 -0.77,-0.8 -1.15,-1.87 -1.15,-3.22l0 -0.28c0,-0.9 0.17,-1.69 0.51,-2.4 0.34,-0.7 0.82,-1.25 1.44,-1.64 0.61,-0.4 1.27,-0.6 1.99,-0.6 1.17,0 2.08,0.39 2.73,1.16 0.65,0.77 0.98,1.87 0.98,3.31l0 0.64 -6.11 0c0.02,0.89 0.28,1.61 0.78,2.15 0.5,0.55 1.13,0.82 1.9,0.82 0.54,0 1,-0.11 1.38,-0.33 0.38,-0.22 0.71,-0.51 0.99,-0.88l0.94 0.73c-0.76,1.16 -1.89,1.74 -3.4,1.74z"/>
   <path class="fil126 str0" d="M37.62 99.21l2.41 0c0.7,0 1.26,-0.18 1.68,-0.53 0.42,-0.35 0.63,-0.82 0.63,-1.42 0,-0.67 -0.2,-1.15 -0.59,-1.45 -0.38,-0.31 -0.98,-0.46 -1.77,-0.46l-2.36 0 0 3.86zm0 1.31l0 4.33 2.63 0c0.75,0 1.34,-0.19 1.77,-0.57 0.43,-0.39 0.64,-0.92 0.64,-1.59 0,-1.45 -0.79,-2.17 -2.38,-2.17l-2.66 0zm-1.6 5.64l0 -12.12 3.96 0c1.32,0 2.31,0.27 2.97,0.82 0.66,0.54 0.99,1.35 0.99,2.42 0,0.56 -0.16,1.06 -0.48,1.5 -0.32,0.44 -0.76,0.78 -1.32,1.01 0.66,0.19 1.18,0.54 1.56,1.05 0.38,0.51 0.57,1.12 0.57,1.83 0,1.09 -0.35,1.94 -1.06,2.56 -0.7,0.62 -1.7,0.93 -2.99,0.93l-4.2 0z"/>
  </g>
 </g>
</svg>
